<svg width="173" height="35" viewBox="0 0 173 35" fill="none" xmlns="http://www.w3.org/2000/svg">
<rect width="172.062" height="33.6714" transform="translate(0.199219 0.723267)" fill="white"/>
<rect x="0.199219" y="0.723267" width="10.4619" height="13.6005" rx="2.18902" fill="#FFCA39"/>
<path d="M18.242 11.7233V3.35375H21.1681C21.7511 3.35375 22.232 3.45456 22.6107 3.65617C22.9894 3.85505 23.2713 4.12341 23.4566 4.46124C23.6419 4.79635 23.7345 5.16824 23.7345 5.5769C23.7345 5.93653 23.6705 6.2335 23.5424 6.4678C23.4171 6.7021 23.2509 6.88736 23.0439 7.02359C22.8395 7.15981 22.6175 7.26061 22.3777 7.326V7.40774C22.6338 7.42408 22.8913 7.51399 23.1501 7.67746C23.4089 7.84092 23.6255 8.07523 23.7999 8.38036C23.9743 8.6855 24.0614 9.05875 24.0614 9.50011C24.0614 9.91968 23.9661 10.297 23.7754 10.6321C23.5847 10.9672 23.2836 11.2329 22.8722 11.429C22.4608 11.6252 21.9255 11.7233 21.2662 11.7233H18.242ZM19.2555 10.8242H21.2662C21.9282 10.8242 22.3982 10.6961 22.6761 10.44C22.9567 10.1812 23.097 9.86792 23.097 9.50011C23.097 9.21677 23.0248 8.95522 22.8804 8.71547C22.736 8.473 22.5303 8.27956 22.2633 8.13516C21.9963 7.98804 21.6803 7.91448 21.3152 7.91448H19.2555V10.8242ZM19.2555 7.03176H21.1354C21.4405 7.03176 21.7157 6.97182 21.9609 6.85195C22.2088 6.73207 22.405 6.56316 22.5494 6.3452C22.6965 6.12724 22.7701 5.87114 22.7701 5.5769C22.7701 5.2091 22.642 4.89715 22.3859 4.64105C22.1298 4.38223 21.7239 4.25282 21.1681 4.25282H19.2555V7.03176ZM27.4432 11.8704C27.0454 11.8704 26.6844 11.7955 26.3602 11.6456C26.036 11.4931 25.7785 11.2737 25.5878 10.9877C25.3971 10.6989 25.3017 10.3501 25.3017 9.94148C25.3017 9.58185 25.3726 9.29033 25.5143 9.06693C25.6559 8.8408 25.8453 8.66371 26.0823 8.53566C26.3193 8.40761 26.5809 8.31225 26.8669 8.24959C27.1557 8.1842 27.4459 8.13244 27.7374 8.0943C28.1188 8.04526 28.4281 8.00848 28.6651 7.98396C28.9048 7.95671 29.0792 7.91176 29.1882 7.8491C29.2999 7.78643 29.3557 7.67746 29.3557 7.52216V7.48947C29.3557 7.08625 29.2454 6.77294 29.0247 6.54953C28.8068 6.32613 28.4757 6.21443 28.0316 6.21443C27.5712 6.21443 27.2102 6.31523 26.9487 6.51684C26.6871 6.71845 26.5032 6.93368 26.397 7.16253L25.4816 6.8356C25.645 6.45418 25.863 6.15721 26.1354 5.9447C26.4106 5.72947 26.7103 5.57963 27.0345 5.49517C27.3614 5.40799 27.6829 5.3644 27.999 5.3644C28.2006 5.3644 28.4321 5.38892 28.6937 5.43796C28.958 5.48427 29.2127 5.58099 29.4579 5.72811C29.7058 5.87523 29.9115 6.09727 30.075 6.39424C30.2385 6.6912 30.3202 7.08897 30.3202 7.58755V11.7233H29.3557V10.8732H29.3067C29.2413 11.0095 29.1323 11.1552 28.9798 11.3105C28.8272 11.4658 28.6242 11.5979 28.3708 11.7069C28.1175 11.8159 27.8082 11.8704 27.4432 11.8704ZM27.5903 11.004C27.9717 11.004 28.2932 10.9291 28.5547 10.7792C28.819 10.6294 29.0179 10.436 29.1514 10.1989C29.2876 9.96191 29.3557 9.71262 29.3557 9.45107V8.56835C29.3149 8.61739 29.225 8.66235 29.086 8.70321C28.9498 8.74135 28.7918 8.77541 28.612 8.80538C28.4349 8.83262 28.2619 8.85714 28.0929 8.87894C27.9268 8.89801 27.7919 8.91436 27.6884 8.92798C27.4377 8.96067 27.2034 9.0138 26.9855 9.08736C26.7702 9.1582 26.5959 9.26581 26.4624 9.41021C26.3316 9.55188 26.2662 9.74531 26.2662 9.99052C26.2662 10.3256 26.3902 10.579 26.6381 10.7506C26.8887 10.9196 27.2061 11.004 27.5903 11.004ZM34.6306 11.854C34.0421 11.854 33.5354 11.7151 33.1104 11.4372C32.6854 11.1593 32.3584 10.7765 32.1296 10.2888C31.9007 9.80117 31.7863 9.24402 31.7863 8.61739C31.7863 7.97987 31.9034 7.41727 32.1377 6.92959C32.3748 6.43919 32.7044 6.05641 33.1267 5.78124C33.5517 5.50334 34.0476 5.3644 34.6143 5.3644C35.0556 5.3644 35.4534 5.44613 35.8076 5.6096C36.1618 5.77306 36.4519 6.00192 36.678 6.29616C36.9042 6.5904 37.0445 6.93368 37.099 7.326H36.1345C36.0609 7.03993 35.8975 6.78656 35.6441 6.56588C35.3935 6.34247 35.0556 6.23077 34.6306 6.23077C34.2546 6.23077 33.925 6.32885 33.6416 6.52501C33.361 6.71845 33.1417 6.99226 32.9837 7.34644C32.8284 7.69789 32.7507 8.11064 32.7507 8.5847C32.7507 9.06965 32.827 9.49194 32.9796 9.85157C33.1349 10.2112 33.3528 10.4905 33.6335 10.6893C33.9168 10.8882 34.2492 10.9877 34.6306 10.9877C34.8813 10.9877 35.1087 10.9441 35.3131 10.8569C35.5174 10.7697 35.6904 10.6444 35.8321 10.4809C35.9738 10.3174 36.0746 10.1213 36.1345 9.89244H37.099C37.0445 10.263 36.9096 10.5967 36.6944 10.8937C36.4819 11.1879 36.1999 11.4222 35.8484 11.5966C35.4997 11.7682 35.0938 11.854 34.6306 11.854ZM39.4079 9.43473L39.3916 8.24142H39.5877L42.334 5.44613H43.5273L40.6012 8.40488H40.5195L39.4079 9.43473ZM38.5089 11.7233V3.35375H39.4733V11.7233H38.5089ZM42.4975 11.7233L40.0455 8.61739L40.732 7.94718L43.7235 11.7233H42.4975ZM49.2149 6.85195L48.3486 7.09715C48.2941 6.95275 48.2137 6.81244 48.1074 6.67622C48.0039 6.53727 47.8622 6.42285 47.6824 6.33294C47.5026 6.24303 47.2724 6.19808 46.9918 6.19808C46.6076 6.19808 46.2875 6.28662 46.0314 6.46371C45.778 6.63808 45.6514 6.86012 45.6514 7.12984C45.6514 7.36959 45.7385 7.55894 45.9129 7.69789C46.0873 7.83684 46.3597 7.95263 46.7302 8.04526L47.662 8.27411C48.2232 8.41033 48.6414 8.61875 48.9166 8.89937C49.1918 9.17727 49.3294 9.53553 49.3294 9.97417C49.3294 10.3338 49.2258 10.6553 49.0188 10.9386C48.8144 11.222 48.5284 11.4454 48.1606 11.6088C47.7928 11.7723 47.365 11.854 46.8774 11.854C46.2371 11.854 45.7072 11.7151 45.2876 11.4372C44.8681 11.1593 44.6024 10.7534 44.4907 10.2194L45.4062 9.99052C45.4933 10.3283 45.6582 10.5817 45.9006 10.7506C46.1458 10.9196 46.466 11.004 46.861 11.004C47.3105 11.004 47.6675 10.9087 47.9317 10.7179C48.1987 10.5245 48.3322 10.2929 48.3322 10.0232C48.3322 9.80525 48.2559 9.62271 48.1034 9.47559C47.9508 9.32575 47.7165 9.21405 47.4005 9.14049L46.3543 8.89529C45.7794 8.75906 45.3571 8.54792 45.0874 8.26185C44.8204 7.97306 44.6869 7.61207 44.6869 7.17888C44.6869 6.8247 44.7863 6.51139 44.9852 6.23895C45.1868 5.9665 45.4606 5.75263 45.8067 5.59734C46.1554 5.44204 46.5504 5.3644 46.9918 5.3644C47.613 5.3644 48.1006 5.50062 48.4548 5.77306C48.8117 6.04551 49.0651 6.40514 49.2149 6.85195ZM53.5111 5.44613V6.26347H50.2581V5.44613H53.5111ZM51.2062 3.94223H52.1706V9.92513C52.1706 10.1976 52.2101 10.4019 52.2891 10.5381C52.3709 10.6716 52.4744 10.7615 52.5997 10.8079C52.7278 10.8514 52.8626 10.8732 53.0043 10.8732C53.1106 10.8732 53.1977 10.8678 53.2659 10.8569C53.334 10.8433 53.3885 10.8324 53.4293 10.8242L53.6255 11.6906C53.5601 11.7151 53.4688 11.7396 53.3517 11.7641C53.2345 11.7914 53.086 11.805 52.9062 11.805C52.6338 11.805 52.3668 11.7464 52.1052 11.6293C51.8464 11.5121 51.6312 11.3337 51.4595 11.0939C51.2906 10.8542 51.2062 10.5518 51.2062 10.1867V3.94223ZM56.809 11.8704C56.4112 11.8704 56.0502 11.7955 55.726 11.6456C55.4018 11.4931 55.1444 11.2737 54.9537 10.9877C54.7629 10.6989 54.6676 10.3501 54.6676 9.94148C54.6676 9.58185 54.7384 9.29033 54.8801 9.06693C55.0218 8.8408 55.2111 8.66371 55.4481 8.53566C55.6852 8.40761 55.9467 8.31225 56.2328 8.24959C56.5216 8.1842 56.8117 8.13244 57.1032 8.0943C57.4847 8.04526 57.7939 8.00848 58.0309 7.98396C58.2707 7.95671 58.445 7.91176 58.554 7.8491C58.6657 7.78643 58.7216 7.67746 58.7216 7.52216V7.48947C58.7216 7.08625 58.6112 6.77294 58.3906 6.54953C58.1726 6.32613 57.8416 6.21443 57.3975 6.21443C56.9371 6.21443 56.5761 6.31523 56.3145 6.51684C56.053 6.71845 55.8691 6.93368 55.7628 7.16253L54.8474 6.8356C55.0109 6.45418 55.2288 6.15721 55.5013 5.9447C55.7764 5.72947 56.0761 5.57963 56.4003 5.49517C56.7273 5.40799 57.0488 5.3644 57.3648 5.3644C57.5664 5.3644 57.798 5.38892 58.0595 5.43796C58.3238 5.48427 58.5785 5.58099 58.8237 5.72811C59.0717 5.87523 59.2774 6.09727 59.4408 6.39424C59.6043 6.6912 59.686 7.08897 59.686 7.58755V11.7233H58.7216V10.8732H58.6725C58.6071 11.0095 58.4982 11.1552 58.3456 11.3105C58.193 11.4658 57.9901 11.5979 57.7367 11.7069C57.4833 11.8159 57.1741 11.8704 56.809 11.8704ZM56.9561 11.004C57.3375 11.004 57.659 10.9291 57.9206 10.7792C58.1849 10.6294 58.3837 10.436 58.5172 10.1989C58.6535 9.96191 58.7216 9.71262 58.7216 9.45107V8.56835C58.6807 8.61739 58.5908 8.66235 58.4519 8.70321C58.3156 8.74135 58.1576 8.77541 57.9778 8.80538C57.8007 8.83262 57.6277 8.85714 57.4588 8.87894C57.2926 8.89801 57.1577 8.91436 57.0542 8.92798C56.8036 8.96067 56.5693 9.0138 56.3513 9.08736C56.1361 9.1582 55.9617 9.26581 55.8282 9.41021C55.6974 9.55188 55.632 9.74531 55.632 9.99052C55.632 10.3256 55.756 10.579 56.0039 10.7506C56.2546 10.9196 56.572 11.004 56.9561 11.004ZM63.9801 14.208C63.5142 14.208 63.1137 14.148 62.7786 14.0282C62.4435 13.911 62.1643 13.7557 61.9409 13.5623C61.7202 13.3716 61.5444 13.1672 61.4137 12.9493L62.182 12.4098C62.2691 12.5243 62.3795 12.655 62.513 12.8021C62.6465 12.952 62.829 13.0814 63.0606 13.1904C63.2949 13.3021 63.6014 13.3579 63.9801 13.3579C64.4869 13.3579 64.9051 13.2353 65.2347 12.9901C65.5644 12.7449 65.7292 12.3608 65.7292 11.8377V10.5627H65.6475C65.5766 10.6771 65.4758 10.8187 65.3451 10.9877C65.217 11.1539 65.0317 11.3023 64.7893 11.4331C64.5495 11.5612 64.2253 11.6252 63.8166 11.6252C63.3099 11.6252 62.8549 11.5053 62.4517 11.2656C62.0512 11.0258 61.7338 10.6771 61.4995 10.2194C61.2679 9.76166 61.1521 9.20587 61.1521 8.552C61.1521 7.90903 61.2652 7.34916 61.4913 6.87238C61.7174 6.39288 62.0321 6.02235 62.4353 5.7608C62.8386 5.49653 63.3044 5.3644 63.833 5.3644C64.2417 5.3644 64.5659 5.43251 64.8056 5.56873C65.0481 5.70223 65.2334 5.8548 65.3614 6.02644C65.4922 6.19535 65.593 6.3343 65.6638 6.44328H65.7619V5.44613H66.6937V11.9031C66.6937 12.4425 66.5711 12.8812 66.3259 13.219C66.0834 13.5595 65.7564 13.8088 65.3451 13.9669C64.9364 14.1276 64.4814 14.208 63.9801 14.208ZM63.9474 10.7588C64.3343 10.7588 64.6612 10.6703 64.9282 10.4932C65.1952 10.3161 65.3982 10.0614 65.5371 9.72897C65.6761 9.39658 65.7455 8.99881 65.7455 8.53566C65.7455 8.0834 65.6774 7.68427 65.5412 7.33826C65.405 6.99226 65.2034 6.72117 64.9364 6.52501C64.6694 6.32885 64.3397 6.23077 63.9474 6.23077C63.5387 6.23077 63.1982 6.3343 62.9257 6.54136C62.656 6.74842 62.453 7.02631 62.3168 7.37504C62.1833 7.72377 62.1166 8.11064 62.1166 8.53566C62.1166 8.97157 62.1847 9.35708 62.3209 9.69219C62.4599 10.0246 62.6642 10.2861 62.9339 10.4768C63.2064 10.6648 63.5442 10.7588 63.9474 10.7588ZM71.0909 11.854C70.4861 11.854 69.9644 11.7205 69.5257 11.4535C69.0898 11.1838 68.7533 10.8079 68.5163 10.3256C68.282 9.84067 68.1649 9.27671 68.1649 8.63374C68.1649 7.99077 68.282 7.42408 68.5163 6.93368C68.7533 6.44056 69.083 6.05641 69.5053 5.78124C69.9303 5.50334 70.4262 5.3644 70.9928 5.3644C71.3198 5.3644 71.6426 5.41889 71.9614 5.52786C72.2801 5.63684 72.5703 5.81393 72.8318 6.05913C73.0934 6.30161 73.3018 6.62309 73.4571 7.02359C73.6124 7.42408 73.69 7.91721 73.69 8.50296V8.91163H68.8514V8.07795H72.7092C72.7092 7.72377 72.6384 7.40774 72.4967 7.12984C72.3578 6.85195 72.1589 6.63263 71.9001 6.47189C71.644 6.31114 71.3416 6.23077 70.9928 6.23077C70.6087 6.23077 70.2763 6.32613 69.9957 6.51684C69.7178 6.70483 69.5039 6.95003 69.3541 7.25244C69.2042 7.55486 69.1293 7.87907 69.1293 8.22507V8.78086C69.1293 9.25491 69.211 9.65677 69.3745 9.98643C69.5407 10.3134 69.7709 10.5627 70.0652 10.7343C70.3594 10.9032 70.7013 10.9877 71.0909 10.9877C71.3443 10.9877 71.5731 10.9522 71.7775 10.8814C71.9845 10.8079 72.163 10.6989 72.3128 10.5545C72.4627 10.4074 72.5785 10.2248 72.6602 10.0069L73.592 10.2684C73.4939 10.5844 73.3291 10.8623 73.0975 11.1021C72.8659 11.3391 72.5798 11.5244 72.2393 11.6579C71.8987 11.7887 71.5159 11.854 71.0909 11.854ZM78.8679 11.7233H77.8053L80.8785 3.35375H81.9247L84.9979 11.7233H83.9353L81.4343 4.67783H81.3689L78.8679 11.7233ZM79.2602 8.45392H83.543V9.35299H79.2602V8.45392ZM88.7208 11.854C88.1324 11.854 87.6256 11.7151 87.2006 11.4372C86.7756 11.1593 86.4487 10.7765 86.2198 10.2888C85.9909 9.80117 85.8765 9.24402 85.8765 8.61739C85.8765 7.97987 85.9937 7.41727 86.228 6.92959C86.465 6.43919 86.7947 6.05641 87.217 5.78124C87.642 5.50334 88.1378 5.3644 88.7045 5.3644C89.1459 5.3644 89.5436 5.44613 89.8978 5.6096C90.252 5.77306 90.5421 6.00192 90.7683 6.29616C90.9944 6.5904 91.1347 6.93368 91.1892 7.326H90.2247C90.1512 7.03993 89.9877 6.78656 89.7343 6.56588C89.4837 6.34247 89.1459 6.23077 88.7208 6.23077C88.3449 6.23077 88.0152 6.32885 87.7319 6.52501C87.4513 6.71845 87.2319 6.99226 87.0739 7.34644C86.9186 7.69789 86.841 8.11064 86.841 8.5847C86.841 9.06965 86.9173 9.49194 87.0698 9.85157C87.2251 10.2112 87.4431 10.4905 87.7237 10.6893C88.007 10.8882 88.3394 10.9877 88.7208 10.9877C88.9715 10.9877 89.199 10.9441 89.4033 10.8569C89.6077 10.7697 89.7807 10.6444 89.9223 10.4809C90.064 10.3174 90.1648 10.1213 90.2247 9.89244H91.1892C91.1347 10.263 90.9999 10.5967 90.7846 10.8937C90.5721 11.1879 90.2901 11.4222 89.9387 11.5966C89.5899 11.7682 89.184 11.854 88.7208 11.854ZM95.1492 11.854C94.5607 11.854 94.054 11.7151 93.6289 11.4372C93.2039 11.1593 92.877 10.7765 92.6481 10.2888C92.4193 9.80117 92.3049 9.24402 92.3049 8.61739C92.3049 7.97987 92.422 7.41727 92.6563 6.92959C92.8933 6.43919 93.223 6.05641 93.6453 5.78124C94.0703 5.50334 94.5662 5.3644 95.1328 5.3644C95.5742 5.3644 95.972 5.44613 96.3262 5.6096C96.6803 5.77306 96.9705 6.00192 97.1966 6.29616C97.4227 6.5904 97.5631 6.93368 97.6175 7.326H96.6531C96.5795 7.03993 96.4161 6.78656 96.1627 6.56588C95.912 6.34247 95.5742 6.23077 95.1492 6.23077C94.7732 6.23077 94.4436 6.32885 94.1602 6.52501C93.8796 6.71845 93.6603 6.99226 93.5023 7.34644C93.347 7.69789 93.2693 8.11064 93.2693 8.5847C93.2693 9.06965 93.3456 9.49194 93.4982 9.85157C93.6535 10.2112 93.8714 10.4905 94.152 10.6893C94.4354 10.8882 94.7678 10.9877 95.1492 10.9877C95.3998 10.9877 95.6273 10.9441 95.8317 10.8569C96.036 10.7697 96.209 10.6444 96.3507 10.4809C96.4923 10.3174 96.5932 10.1213 96.6531 9.89244H97.6175C97.5631 10.263 97.4282 10.5967 97.213 10.8937C97.0005 11.1879 96.7185 11.4222 96.367 11.5966C96.0183 11.7682 95.6124 11.854 95.1492 11.854ZM101.659 11.854C101.054 11.854 100.533 11.7205 100.094 11.4535C99.6582 11.1838 99.3217 10.8079 99.0847 10.3256C98.8504 9.84067 98.7332 9.27671 98.7332 8.63374C98.7332 7.99077 98.8504 7.42408 99.0847 6.93368C99.3217 6.44056 99.6514 6.05641 100.074 5.78124C100.499 5.50334 100.995 5.3644 101.561 5.3644C101.888 5.3644 102.211 5.41889 102.53 5.52786C102.848 5.63684 103.139 5.81393 103.4 6.05913C103.662 6.30161 103.87 6.62309 104.025 7.02359C104.181 7.42408 104.258 7.91721 104.258 8.50296V8.91163H99.4198V8.07795H103.278C103.278 7.72377 103.207 7.40774 103.065 7.12984C102.926 6.85195 102.727 6.63263 102.468 6.47189C102.212 6.31114 101.91 6.23077 101.561 6.23077C101.177 6.23077 100.845 6.32613 100.564 6.51684C100.286 6.70483 100.072 6.95003 99.9224 7.25244C99.7726 7.55486 99.6977 7.87907 99.6977 8.22507V8.78086C99.6977 9.25491 99.7794 9.65677 99.9429 9.98643C100.109 10.3134 100.339 10.5627 100.634 10.7343C100.928 10.9032 101.27 10.9877 101.659 10.9877C101.913 10.9877 102.142 10.9522 102.346 10.8814C102.553 10.8079 102.731 10.6989 102.881 10.5545C103.031 10.4074 103.147 10.2248 103.229 10.0069L104.16 10.2684C104.062 10.5844 103.897 10.8623 103.666 11.1021C103.434 11.3391 103.148 11.5244 102.808 11.6579C102.467 11.7887 102.084 11.854 101.659 11.854ZM110.172 6.85195L109.305 7.09715C109.251 6.95275 109.171 6.81244 109.064 6.67622C108.961 6.53727 108.819 6.42285 108.639 6.33294C108.459 6.24303 108.229 6.19808 107.949 6.19808C107.565 6.19808 107.244 6.28662 106.988 6.46371C106.735 6.63808 106.608 6.86012 106.608 7.12984C106.608 7.36959 106.695 7.55894 106.87 7.69789C107.044 7.83684 107.317 7.95263 107.687 8.04526L108.619 8.27411C109.18 8.41033 109.598 8.61875 109.873 8.89937C110.149 9.17727 110.286 9.53553 110.286 9.97417C110.286 10.3338 110.183 10.6553 109.976 10.9386C109.771 11.222 109.485 11.4454 109.117 11.6088C108.75 11.7723 108.322 11.854 107.834 11.854C107.194 11.854 106.664 11.7151 106.245 11.4372C105.825 11.1593 105.559 10.7534 105.448 10.2194L106.363 9.99052C106.45 10.3283 106.615 10.5817 106.858 10.7506C107.103 10.9196 107.423 11.004 107.818 11.004C108.267 11.004 108.624 10.9087 108.889 10.7179C109.156 10.5245 109.289 10.2929 109.289 10.0232C109.289 9.80525 109.213 9.62271 109.06 9.47559C108.908 9.32575 108.673 9.21405 108.357 9.14049L107.311 8.89529C106.736 8.75906 106.314 8.54792 106.044 8.26185C105.777 7.97306 105.644 7.61207 105.644 7.17888C105.644 6.8247 105.743 6.51139 105.942 6.23895C106.144 5.9665 106.418 5.75263 106.764 5.59734C107.112 5.44204 107.507 5.3644 107.949 5.3644C108.57 5.3644 109.058 5.50062 109.412 5.77306C109.769 6.04551 110.022 6.40514 110.172 6.85195ZM116.184 6.85195L115.318 7.09715C115.263 6.95275 115.183 6.81244 115.077 6.67622C114.973 6.53727 114.832 6.42285 114.652 6.33294C114.472 6.24303 114.242 6.19808 113.961 6.19808C113.577 6.19808 113.257 6.28662 113.001 6.46371C112.747 6.63808 112.621 6.86012 112.621 7.12984C112.621 7.36959 112.708 7.55894 112.882 7.69789C113.057 7.83684 113.329 7.95263 113.7 8.04526L114.631 8.27411C115.193 8.41033 115.611 8.61875 115.886 8.89937C116.161 9.17727 116.299 9.53553 116.299 9.97417C116.299 10.3338 116.195 10.6553 115.988 10.9386C115.784 11.222 115.498 11.4454 115.13 11.6088C114.762 11.7723 114.334 11.854 113.847 11.854C113.207 11.854 112.677 11.7151 112.257 11.4372C111.837 11.1593 111.572 10.7534 111.46 10.2194L112.376 9.99052C112.463 10.3283 112.628 10.5817 112.87 10.7506C113.115 10.9196 113.435 11.004 113.83 11.004C114.28 11.004 114.637 10.9087 114.901 10.7179C115.168 10.5245 115.302 10.2929 115.302 10.0232C115.302 9.80525 115.225 9.62271 115.073 9.47559C114.92 9.32575 114.686 9.21405 114.37 9.14049L113.324 8.89529C112.749 8.75906 112.327 8.54792 112.057 8.26185C111.79 7.97306 111.656 7.61207 111.656 7.17888C111.656 6.8247 111.756 6.51139 111.955 6.23895C112.156 5.9665 112.43 5.75263 112.776 5.59734C113.125 5.44204 113.52 5.3644 113.961 5.3644C114.582 5.3644 115.07 5.50062 115.424 5.77306C115.781 6.04551 116.034 6.40514 116.184 6.85195Z" fill="#1E1E20"/>
<path d="M124.736 12.6743V3.16353H125.345V12.6743H124.736ZM126.493 6.20625C126.458 5.88179 126.312 5.62916 126.054 5.44836C125.799 5.26755 125.467 5.17715 125.059 5.17715C124.772 5.17715 124.525 5.2205 124.319 5.30718C124.114 5.39387 123.957 5.51152 123.848 5.66012C123.739 5.80873 123.683 5.97839 123.68 6.1691C123.68 6.32761 123.716 6.46507 123.788 6.58148C123.863 6.69789 123.963 6.79696 124.089 6.8787C124.215 6.95795 124.355 7.02483 124.509 7.07931C124.663 7.1338 124.817 7.17962 124.973 7.21678L125.687 7.3951C125.974 7.46198 126.25 7.55238 126.515 7.66631C126.783 7.78024 127.022 7.92389 127.232 8.09727C127.445 8.27064 127.614 8.47993 127.737 8.72513C127.861 8.97033 127.923 9.25764 127.923 9.58705C127.923 10.0329 127.809 10.4254 127.581 10.7648C127.354 11.1016 127.024 11.3654 126.593 11.5561C126.165 11.7443 125.646 11.8384 125.037 11.8384C124.445 11.8384 123.931 11.7468 123.495 11.5635C123.061 11.3802 122.722 11.1127 122.477 10.761C122.234 10.4093 122.103 9.98086 122.083 9.47559H123.439C123.459 9.74061 123.541 9.96104 123.684 10.1369C123.828 10.3127 124.015 10.444 124.245 10.5307C124.478 10.6174 124.738 10.6607 125.025 10.6607C125.325 10.6607 125.588 10.6161 125.813 10.527C126.041 10.4353 126.219 10.309 126.348 10.148C126.477 9.98457 126.542 9.79386 126.545 9.5759C126.542 9.37776 126.484 9.21429 126.37 9.0855C126.256 8.95423 126.097 8.84525 125.891 8.75857C125.688 8.6694 125.45 8.59015 125.178 8.5208L124.312 8.29789C123.685 8.1369 123.19 7.89294 122.826 7.566C122.464 7.23659 122.284 6.79944 122.284 6.25455C122.284 5.80625 122.405 5.41368 122.648 5.07684C122.893 4.74 123.226 4.4787 123.647 4.29294C124.068 4.10471 124.545 4.01059 125.077 4.01059C125.617 4.01059 126.09 4.10471 126.497 4.29294C126.905 4.4787 127.226 4.73752 127.459 5.06941C127.692 5.39882 127.812 5.77777 127.819 6.20625H126.493ZM129.078 11.7233V10.7276L131.719 8.13814C131.972 7.88303 132.182 7.6564 132.351 7.45826C132.519 7.26012 132.645 7.06817 132.73 6.88241C132.814 6.69665 132.856 6.49851 132.856 6.28799C132.856 6.04774 132.802 5.84217 132.693 5.67127C132.584 5.49789 132.434 5.36415 132.243 5.27003C132.052 5.17591 131.836 5.12885 131.593 5.12885C131.343 5.12885 131.123 5.18087 130.935 5.28489C130.747 5.38644 130.601 5.53133 130.497 5.71957C130.395 5.9078 130.345 6.13195 130.345 6.39201H129.033C129.033 5.90904 129.143 5.48923 129.364 5.13257C129.584 4.77591 129.888 4.49975 130.274 4.30409C130.663 4.10842 131.109 4.01059 131.611 4.01059C132.122 4.01059 132.57 4.10595 132.956 4.29666C133.343 4.48737 133.642 4.74867 133.855 5.08056C134.071 5.41245 134.179 5.79139 134.179 6.2174C134.179 6.50223 134.124 6.7821 134.015 7.05702C133.906 7.33195 133.714 7.63659 133.439 7.97095C133.167 8.30532 132.784 8.71027 132.291 9.18581L130.98 10.5196V10.5716H134.294V11.7233H129.078ZM138.388 11.8682C137.776 11.8682 137.251 11.7134 136.813 11.4038C136.377 11.0917 136.041 10.6422 135.806 10.0552C135.573 9.46569 135.457 8.75609 135.457 7.92637C135.459 7.09665 135.577 6.39077 135.81 5.80873C136.045 5.22421 136.38 4.77839 136.816 4.47127C137.255 4.16415 137.779 4.01059 138.388 4.01059C138.997 4.01059 139.521 4.16415 139.959 4.47127C140.398 4.77839 140.733 5.22421 140.966 5.80873C141.201 6.39325 141.319 7.09913 141.319 7.92637C141.319 8.75857 141.201 9.4694 140.966 10.0589C140.733 10.6459 140.398 11.0942 139.959 11.4038C139.523 11.7134 139 11.8682 138.388 11.8682ZM138.388 10.7053C138.863 10.7053 139.239 10.4713 139.514 10.0031C139.791 9.53256 139.93 8.8403 139.93 7.92637C139.93 7.32204 139.867 6.8143 139.74 6.40316C139.614 5.99201 139.436 5.68241 139.205 5.47437C138.975 5.26384 138.702 5.15858 138.388 5.15858C137.915 5.15858 137.541 5.39387 137.266 5.86446C136.991 6.33257 136.852 7.01987 136.85 7.92637C136.847 8.53318 136.908 9.0434 137.032 9.45702C137.158 9.87064 137.336 10.1827 137.567 10.3932C137.797 10.6013 138.071 10.7053 138.388 10.7053ZM145.366 11.8682C144.754 11.8682 144.229 11.7134 143.791 11.4038C143.355 11.0917 143.019 10.6422 142.784 10.0552C142.551 9.46569 142.435 8.75609 142.435 7.92637C142.437 7.09665 142.555 6.39077 142.788 5.80873C143.023 5.22421 143.358 4.77839 143.794 4.47127C144.233 4.16415 144.757 4.01059 145.366 4.01059C145.975 4.01059 146.499 4.16415 146.937 4.47127C147.376 4.77839 147.711 5.22421 147.944 5.80873C148.179 6.39325 148.297 7.09913 148.297 7.92637C148.297 8.75857 148.179 9.4694 147.944 10.0589C147.711 10.6459 147.376 11.0942 146.937 11.4038C146.501 11.7134 145.978 11.8682 145.366 11.8682ZM145.366 10.7053C145.841 10.7053 146.217 10.4713 146.492 10.0031C146.769 9.53256 146.908 8.8403 146.908 7.92637C146.908 7.32204 146.845 6.8143 146.718 6.40316C146.592 5.99201 146.414 5.68241 146.183 5.47437C145.953 5.26384 145.68 5.15858 145.366 5.15858C144.893 5.15858 144.519 5.39387 144.244 5.86446C143.969 6.33257 143.83 7.01987 143.828 7.92637C143.825 8.53318 143.886 9.0434 144.01 9.45702C144.136 9.87064 144.314 10.1827 144.545 10.3932C144.775 10.6013 145.049 10.7053 145.366 10.7053Z" fill="#C256C7"/>
<path d="M18.3431 24.0113C18.3431 23.0751 18.4644 22.2144 18.7071 21.4293C18.9524 20.6417 19.3016 19.9172 19.7548 19.2559H20.5276C20.3493 19.5011 20.1821 19.8033 20.026 20.1624C19.8725 20.5191 19.7375 20.9116 19.6211 21.3401C19.5047 21.7661 19.413 22.207 19.3462 22.6627C19.2818 23.1184 19.2496 23.568 19.2496 24.0113C19.2496 24.6008 19.3065 25.1989 19.4205 25.8057C19.5344 26.4126 19.688 26.976 19.8811 27.4961C20.0743 28.0163 20.2898 28.4398 20.5276 28.7667H19.7548C19.3016 28.1054 18.9524 27.3822 18.7071 26.5971C18.4644 25.8095 18.3431 24.9475 18.3431 24.0113ZM26.1012 22.1092C26.0567 21.7327 25.8759 21.4404 25.5588 21.2324C25.2418 21.0243 24.853 20.9203 24.3923 20.9203C24.0554 20.9203 23.7607 20.9748 23.5081 21.0838C23.2579 21.1927 23.0622 21.3426 22.9211 21.5333C22.7824 21.724 22.713 21.9407 22.713 22.1835C22.713 22.3866 22.7613 22.5612 22.8579 22.7073C22.957 22.8509 23.0833 22.9711 23.2369 23.0677C23.3904 23.1618 23.5514 23.2398 23.7198 23.3017C23.8883 23.3612 24.0431 23.4095 24.1842 23.4466L24.957 23.6547C25.1551 23.7067 25.3756 23.7785 25.6183 23.8701C25.8635 23.9618 26.0975 24.0869 26.3204 24.2454C26.5458 24.4014 26.7316 24.602 26.8777 24.8472C27.0238 25.0924 27.0969 25.3934 27.0969 25.75C27.0969 26.1612 26.9892 26.5327 26.7737 26.8646C26.5607 27.1964 26.2486 27.4602 25.8375 27.6559C25.4288 27.8516 24.9322 27.9494 24.3477 27.9494C23.8028 27.9494 23.331 27.8615 22.9322 27.6856C22.5359 27.5098 22.2239 27.2646 21.996 26.95C21.7706 26.6355 21.6431 26.2701 21.6133 25.854H22.5644C22.5892 26.1413 22.6858 26.3791 22.8542 26.5673C23.0251 26.7531 23.2406 26.8918 23.5006 26.9834C23.7632 27.0726 24.0455 27.1172 24.3477 27.1172C24.6994 27.1172 25.0152 27.0602 25.2951 26.9463C25.5749 26.8299 25.7966 26.6689 25.9601 26.4633C26.1235 26.2553 26.2053 26.0126 26.2053 25.7352C26.2053 25.4825 26.1347 25.2769 25.9935 25.1184C25.8523 24.9599 25.6666 24.8311 25.4362 24.7321C25.2059 24.633 24.957 24.5463 24.6895 24.472L23.7533 24.2045C23.1588 24.0336 22.6883 23.7896 22.3415 23.4726C21.9948 23.1556 21.8214 22.7407 21.8214 22.228C21.8214 21.802 21.9366 21.4305 22.1669 21.1135C22.3997 20.794 22.7118 20.5463 23.1031 20.3705C23.4969 20.1921 23.9365 20.103 24.422 20.103C24.9124 20.103 25.3483 20.1909 25.7297 20.3667C26.1112 20.5401 26.4133 20.7779 26.6362 21.0801C26.8616 21.3822 26.9805 21.7253 26.9929 22.1092H26.1012ZM30.9746 22.1092V22.8522H28.0173V22.1092H30.9746ZM28.8793 20.742H29.756V26.181C29.756 26.4286 29.792 26.6144 29.8638 26.7382C29.9381 26.8596 30.0322 26.9413 30.1461 26.9834C30.2625 27.0231 30.3851 27.0429 30.5139 27.0429C30.6105 27.0429 30.6898 27.0379 30.7517 27.028C30.8136 27.0156 30.8632 27.0057 30.9003 26.9983L31.0786 27.7859C31.0192 27.8082 30.9362 27.8305 30.8297 27.8528C30.7232 27.8776 30.5882 27.8899 30.4248 27.8899C30.1771 27.8899 29.9344 27.8367 29.6966 27.7302C29.4613 27.6237 29.2656 27.4615 29.1096 27.2435C28.956 27.0256 28.8793 26.7506 28.8793 26.4187V20.742ZM33.9727 27.9494C33.6111 27.9494 33.283 27.8813 32.9882 27.7451C32.6935 27.6064 32.4594 27.407 32.2861 27.1469C32.1127 26.8844 32.026 26.5673 32.026 26.1958C32.026 25.8689 32.0904 25.6039 32.2192 25.4008C32.348 25.1952 32.5201 25.0342 32.7356 24.9178C32.9511 24.8014 33.1888 24.7147 33.4489 24.6578C33.7114 24.5983 33.9752 24.5513 34.2402 24.5166C34.587 24.472 34.8681 24.4386 35.0836 24.4163C35.3015 24.3915 35.46 24.3506 35.5591 24.2937C35.6607 24.2367 35.7114 24.1376 35.7114 23.9965V23.9667C35.7114 23.6002 35.6111 23.3153 35.4105 23.1122C35.2124 22.9092 34.9114 22.8076 34.5077 22.8076C34.0892 22.8076 33.761 22.8992 33.5232 23.0825C33.2854 23.2658 33.1183 23.4615 33.0217 23.6695L32.1895 23.3723C32.3381 23.0256 32.5362 22.7556 32.7839 22.5624C33.034 22.3667 33.3065 22.2305 33.6012 22.1537C33.8984 22.0745 34.1907 22.0349 34.478 22.0349C34.6613 22.0349 34.8718 22.0571 35.1096 22.1017C35.3498 22.1438 35.5814 22.2318 35.8043 22.3655C36.0297 22.4992 36.2167 22.7011 36.3653 22.9711C36.5139 23.241 36.5882 23.6027 36.5882 24.0559V27.8156H35.7114V27.0429H35.6669C35.6074 27.1667 35.5083 27.2992 35.3696 27.4404C35.2309 27.5816 35.0464 27.7017 34.8161 27.8008C34.5857 27.8999 34.3046 27.9494 33.9727 27.9494ZM34.1065 27.1618C34.4532 27.1618 34.7455 27.0937 34.9833 26.9574C35.2235 26.8212 35.4043 26.6454 35.5257 26.4299C35.6495 26.2144 35.7114 25.9878 35.7114 25.75V24.9475C35.6743 24.9921 35.5926 25.033 35.4662 25.0701C35.3424 25.1048 35.1988 25.1358 35.0353 25.163C34.8743 25.1878 34.717 25.2101 34.5635 25.2299C34.4124 25.2472 34.2898 25.2621 34.1957 25.2745C33.9678 25.3042 33.7548 25.3525 33.5566 25.4194C33.361 25.4838 33.2025 25.5816 33.0811 25.7129C32.9622 25.8417 32.9028 26.0175 32.9028 26.2404C32.9028 26.5451 33.0155 26.7754 33.2409 26.9314C33.4687 27.085 33.7573 27.1618 34.1065 27.1618ZM39.0653 24.3828V27.8156H38.1885V22.1092H39.0356V23.0008H39.1099C39.2436 22.711 39.4467 22.4782 39.7192 22.3023C39.9916 22.124 40.3433 22.0349 40.7743 22.0349C41.1607 22.0349 41.4987 22.1141 41.7885 22.2726C42.0783 22.4287 42.3037 22.6664 42.4647 22.9859C42.6257 23.303 42.7062 23.7042 42.7062 24.1896V27.8156H41.8294V24.2491C41.8294 23.8008 41.713 23.4516 41.4802 23.2014C41.2473 22.9488 40.9278 22.8225 40.5216 22.8225C40.2418 22.8225 39.9916 22.8831 39.7712 23.0045C39.5532 23.1259 39.3811 23.303 39.2548 23.5358C39.1285 23.7686 39.0653 24.0509 39.0653 24.3828ZM46.4631 27.9345C45.9876 27.9345 45.5678 27.8144 45.2037 27.5742C44.8396 27.3314 44.5548 26.9896 44.3492 26.5488C44.1436 26.1054 44.0408 25.5816 44.0408 24.9773C44.0408 24.3779 44.1436 23.8578 44.3492 23.4169C44.5548 22.976 44.8408 22.6355 45.2074 22.3952C45.574 22.155 45.9975 22.0349 46.478 22.0349C46.8495 22.0349 47.143 22.0968 47.3585 22.2206C47.5764 22.342 47.7424 22.4807 47.8563 22.6367C47.9727 22.7903 48.0631 22.9166 48.1275 23.0157H48.2018V20.207H49.0786V27.8156H48.2315V26.9389H48.1275C48.0631 27.0429 47.9715 27.1742 47.8526 27.3327C47.7337 27.4887 47.564 27.6286 47.3436 27.7525C47.1232 27.8738 46.8297 27.9345 46.4631 27.9345ZM46.582 27.1469C46.9337 27.1469 47.2309 27.0553 47.4736 26.872C47.7164 26.6862 47.9009 26.4299 48.0272 26.103C48.1535 25.7735 48.2167 25.3934 48.2167 24.9624C48.2167 24.5364 48.1548 24.1636 48.0309 23.8441C47.9071 23.5222 47.7238 23.272 47.4811 23.0937C47.2383 22.9129 46.9387 22.8225 46.582 22.8225C46.2105 22.8225 45.9009 22.9178 45.6532 23.1085C45.408 23.2968 45.2235 23.5531 45.0997 23.8776C44.9783 24.1996 44.9176 24.5612 44.9176 24.9624C44.9176 25.3686 44.9795 25.7376 45.1034 26.0695C45.2297 26.3989 45.4154 26.6615 45.6606 26.8571C45.9083 27.0503 46.2154 27.1469 46.582 27.1469ZM50.8061 27.8156V22.1092H51.6829V27.8156H50.8061ZM51.252 21.1581C51.0811 21.1581 50.9337 21.0999 50.8099 20.9835C50.6885 20.8671 50.6278 20.7271 50.6278 20.5636C50.6278 20.4002 50.6885 20.2602 50.8099 20.1438C50.9337 20.0274 51.0811 19.9692 51.252 19.9692C51.4229 19.9692 51.569 20.0274 51.6903 20.1438C51.8142 20.2602 51.8761 20.4002 51.8761 20.5636C51.8761 20.7271 51.8142 20.8671 51.6903 20.9835C51.569 21.0999 51.4229 21.1581 51.252 21.1581ZM54.1656 24.3828V27.8156H53.2888V22.1092H54.1359V23.0008H54.2102C54.3439 22.711 54.547 22.4782 54.8194 22.3023C55.0919 22.124 55.4436 22.0349 55.8746 22.0349C56.2609 22.0349 56.599 22.1141 56.8888 22.2726C57.1786 22.4287 57.404 22.6664 57.5649 22.9859C57.7259 23.303 57.8064 23.7042 57.8064 24.1896V27.8156H56.9297V24.2491C56.9297 23.8008 56.8132 23.4516 56.5804 23.2014C56.3476 22.9488 56.0281 22.8225 55.6219 22.8225C55.342 22.8225 55.0919 22.8831 54.8715 23.0045C54.6535 23.1259 54.4814 23.303 54.3551 23.5358C54.2287 23.7686 54.1656 24.0509 54.1656 24.3828ZM61.712 30.0745C61.2885 30.0745 60.9244 30.02 60.6197 29.911C60.3151 29.8045 60.0612 29.6633 59.8581 29.4875C59.6575 29.3141 59.4978 29.1283 59.3789 28.9302L60.0773 28.4398C60.1566 28.5438 60.2569 28.6627 60.3783 28.7964C60.4996 28.9327 60.6656 29.0503 60.8761 29.1494C61.0891 29.2509 61.3677 29.3017 61.712 29.3017C62.1727 29.3017 62.5529 29.1903 62.8526 28.9673C63.1522 28.7444 63.3021 28.3952 63.3021 27.9197V26.7605H63.2278C63.1634 26.8646 63.0717 26.9934 62.9529 27.1469C62.8365 27.298 62.668 27.433 62.4476 27.5519C62.2296 27.6683 61.9349 27.7265 61.5634 27.7265C61.1027 27.7265 60.6891 27.6175 60.3225 27.3995C59.9584 27.1816 59.6699 26.8646 59.4569 26.4485C59.2464 26.0324 59.1411 25.5271 59.1411 24.9327C59.1411 24.3482 59.2439 23.8392 59.4495 23.4057C59.655 22.9698 59.9411 22.633 60.3077 22.3952C60.6742 22.155 61.0978 22.0349 61.5783 22.0349C61.9498 22.0349 62.2445 22.0968 62.4625 22.2206C62.6829 22.342 62.8513 22.4807 62.9677 22.6367C63.0866 22.7903 63.1783 22.9166 63.2426 23.0157H63.3318V22.1092H64.1789V27.9791C64.1789 28.4695 64.0674 28.8683 63.8445 29.1754C63.6241 29.485 63.3269 29.7116 62.9529 29.8553C62.5813 30.0014 62.1677 30.0745 61.712 30.0745ZM61.6823 26.9389C62.034 26.9389 62.3312 26.8584 62.5739 26.6974C62.8166 26.5364 63.0012 26.3048 63.1275 26.0026C63.2538 25.7005 63.3169 25.3389 63.3169 24.9178C63.3169 24.5067 63.255 24.1438 63.1312 23.8293C63.0074 23.5147 62.8241 23.2683 62.5813 23.09C62.3386 22.9116 62.0389 22.8225 61.6823 22.8225C61.3108 22.8225 61.0012 22.9166 60.7535 23.1048C60.5083 23.2931 60.3238 23.5457 60.1999 23.8627C60.0786 24.1797 60.0179 24.5314 60.0179 24.9178C60.0179 25.3141 60.0798 25.6646 60.2036 25.9692C60.33 26.2714 60.5157 26.5091 60.7609 26.6825C61.0086 26.8534 61.3157 26.9389 61.6823 26.9389ZM67.6563 24.6057C67.6563 25.542 67.5337 26.4039 67.2885 27.1915C67.0457 27.9766 66.6977 28.6999 66.2445 29.3612H65.4717C65.6501 29.1159 65.816 28.8138 65.9696 28.4547C66.1256 28.098 66.2618 27.7067 66.3782 27.2807C66.4946 26.8522 66.585 26.4101 66.6494 25.9543C66.7163 25.4961 66.7498 25.0466 66.7498 24.6057C66.7498 24.0163 66.6928 23.4181 66.5789 22.8113C66.4649 22.2045 66.3114 21.641 66.1182 21.1209C65.925 20.6008 65.7095 20.1773 65.4717 19.8503H66.2445C66.6977 20.5116 67.0457 21.2361 67.2885 22.0237C67.5337 22.8088 67.6563 23.6695 67.6563 24.6057Z" fill="#777779"/>
</svg>
