<svg width="173" height="35" viewBox="0 0 173 35" fill="none" xmlns="http://www.w3.org/2000/svg">
<rect width="172.062" height="33.6714" transform="translate(0.199219 0.641541)" fill="white"/>
<rect x="0.199219" y="0.641541" width="10.4619" height="13.6005" rx="2.18902" fill="#D3DAF9"/>
<path d="M18.242 11.6415V3.27203H21.1681C21.7511 3.27203 22.232 3.37283 22.6107 3.57444C22.9894 3.77332 23.2713 4.04168 23.4566 4.37951C23.6419 4.71462 23.7345 5.08651 23.7345 5.49518C23.7345 5.85481 23.6705 6.15177 23.5424 6.38607C23.4171 6.62038 23.2509 6.80564 23.0439 6.94186C22.8395 7.07808 22.6175 7.17889 22.3777 7.24428V7.32601C22.6338 7.34236 22.8913 7.43226 23.1501 7.59573C23.4089 7.7592 23.6255 7.9935 23.7999 8.29864C23.9743 8.60378 24.0614 8.97703 24.0614 9.41839C24.0614 9.83795 23.9661 10.2153 23.7754 10.5504C23.5847 10.8855 23.2836 11.1511 22.8722 11.3473C22.4608 11.5435 21.9255 11.6415 21.2662 11.6415H18.242ZM19.2555 10.7425H21.2662C21.9282 10.7425 22.3982 10.6144 22.6761 10.3583C22.9567 10.0995 23.097 9.78619 23.097 9.41839C23.097 9.13505 23.0248 8.8735 22.8804 8.63375C22.736 8.39127 22.5303 8.19783 22.2633 8.05344C21.9963 7.90632 21.6803 7.83276 21.3152 7.83276H19.2555V10.7425ZM19.2555 6.95003H21.1354C21.4405 6.95003 21.7157 6.8901 21.9609 6.77022C22.2088 6.65035 22.405 6.48143 22.5494 6.26347C22.6965 6.04552 22.7701 5.78942 22.7701 5.49518C22.7701 5.12738 22.642 4.81543 22.3859 4.55933C22.1298 4.30051 21.7239 4.17109 21.1681 4.17109H19.2555V6.95003ZM25.596 11.6415V5.3644H26.5277V6.31251H26.5931C26.7076 6.00193 26.9146 5.74991 27.2143 5.55648C27.514 5.36304 27.8518 5.26632 28.2278 5.26632C28.2986 5.26632 28.3872 5.26769 28.4934 5.27041C28.5997 5.27313 28.6801 5.27722 28.7346 5.28267V6.26347C28.7019 6.2553 28.6269 6.24304 28.5098 6.22669C28.3954 6.20762 28.2741 6.19809 28.1461 6.19809C27.8409 6.19809 27.5685 6.26211 27.3287 6.39016C27.0917 6.51548 26.9037 6.68985 26.7648 6.91325C26.6286 7.13394 26.5604 7.38595 26.5604 7.66929V11.6415H25.596ZM32.2368 11.7723C31.6702 11.7723 31.1729 11.6375 30.7452 11.3677C30.3202 11.098 29.9878 10.7207 29.7481 10.2357C29.511 9.75077 29.3925 9.18409 29.3925 8.53567C29.3925 7.8818 29.511 7.31102 29.7481 6.82335C29.9878 6.33567 30.3202 5.95697 30.7452 5.68725C31.1729 5.41753 31.6702 5.28267 32.2368 5.28267C32.8035 5.28267 33.2994 5.41753 33.7244 5.68725C34.1521 5.95697 34.4845 6.33567 34.7215 6.82335C34.9613 7.31102 35.0812 7.8818 35.0812 8.53567C35.0812 9.18409 34.9613 9.75077 34.7215 10.2357C34.4845 10.7207 34.1521 11.098 33.7244 11.3677C33.2994 11.6375 32.8035 11.7723 32.2368 11.7723ZM32.2368 10.9059C32.6673 10.9059 33.0215 10.7956 33.2994 10.5749C33.5773 10.3542 33.783 10.0641 33.9165 9.70446C34.05 9.34483 34.1167 8.95523 34.1167 8.53567C34.1167 8.1161 34.05 7.72514 33.9165 7.36279C33.783 7.00044 33.5773 6.70756 33.2994 6.48415C33.0215 6.26075 32.6673 6.14905 32.2368 6.14905C31.8064 6.14905 31.4522 6.26075 31.1743 6.48415C30.8964 6.70756 30.6907 7.00044 30.5572 7.36279C30.4237 7.72514 30.357 8.1161 30.357 8.53567C30.357 8.95523 30.4237 9.34483 30.5572 9.70446C30.6907 10.0641 30.8964 10.3542 31.1743 10.5749C31.4522 10.7956 31.8064 10.9059 32.2368 10.9059ZM37.5178 7.86545V11.6415H36.5534V5.3644H37.4852V6.34521H37.5669C37.714 6.02645 37.9374 5.77035 38.2371 5.57691C38.5368 5.38075 38.9237 5.28267 39.3977 5.28267C39.8227 5.28267 40.1946 5.36985 40.5134 5.54422C40.8321 5.71586 41.0801 5.97741 41.2572 6.32886C41.4342 6.67759 41.5228 7.11895 41.5228 7.65294V11.6415H40.5583V7.71833C40.5583 7.2252 40.4303 6.84106 40.1742 6.56589C39.9181 6.28799 39.5666 6.14905 39.1198 6.14905C38.812 6.14905 38.5368 6.21579 38.2943 6.34929C38.0546 6.48279 37.8652 6.67759 37.7263 6.93369C37.5873 7.18979 37.5178 7.50037 37.5178 7.86545ZM43.1054 11.6415V10.9059L46.6689 6.32886V6.26347H43.2198V5.3644H47.9113V6.1327L44.4458 10.6771V10.7425H48.0257V11.6415H43.1054ZM51.9632 11.7723C51.3584 11.7723 50.8367 11.6388 50.398 11.3718C49.9621 11.1021 49.6256 10.7261 49.3886 10.2439C49.1543 9.75894 49.0372 9.19498 49.0372 8.55201C49.0372 7.90904 49.1543 7.34236 49.3886 6.85195C49.6256 6.35883 49.9553 5.97468 50.3776 5.69951C50.8026 5.42162 51.2985 5.28267 51.8651 5.28267C52.1921 5.28267 52.5149 5.33716 52.8337 5.44614C53.1525 5.55512 53.4426 5.7322 53.7042 5.97741C53.9657 6.21988 54.1741 6.54137 54.3294 6.94186C54.4847 7.34236 54.5624 7.83548 54.5624 8.42124V8.82991H49.7237V7.99622H53.5816C53.5816 7.64205 53.5107 7.32601 53.369 7.04811C53.2301 6.77022 53.0312 6.5509 52.7724 6.39016C52.5163 6.22942 52.2139 6.14905 51.8651 6.14905C51.481 6.14905 51.1486 6.2444 50.868 6.43511C50.5901 6.6231 50.3762 6.8683 50.2264 7.17072C50.0765 7.47313 50.0016 7.79734 50.0016 8.14334V8.69913C50.0016 9.17319 50.0834 9.57504 50.2468 9.9047C50.413 10.2316 50.6432 10.4809 50.9375 10.6526C51.2317 10.8215 51.5736 10.9059 51.9632 10.9059C52.2166 10.9059 52.4455 10.8705 52.6498 10.7997C52.8568 10.7261 53.0353 10.6171 53.1851 10.4728C53.335 10.3256 53.4508 10.1431 53.5325 9.92514L54.4643 10.1867C54.3662 10.5027 54.2014 10.7806 53.9698 11.0204C53.7382 11.2574 53.4521 11.4427 53.1116 11.5762C52.771 11.7069 52.3882 11.7723 51.9632 11.7723Z" fill="#1E1E20"/>
<path d="M62.7356 12.5926V3.08181H63.3449V12.5926H62.7356ZM64.4929 6.12453C64.4582 5.80007 64.3121 5.54744 64.0545 5.36663C63.7994 5.18583 63.4675 5.09543 63.0588 5.09543C62.7715 5.09543 62.5251 5.13877 62.3195 5.22546C62.1139 5.31214 61.9566 5.42979 61.8477 5.5784C61.7387 5.727 61.683 5.89666 61.6805 6.08737C61.6805 6.24589 61.7164 6.38335 61.7882 6.49976C61.8625 6.61617 61.9628 6.71524 62.0891 6.79697C62.2155 6.87623 62.3554 6.9431 62.509 6.99759C62.6625 7.05208 62.8173 7.0979 62.9734 7.13505L63.6867 7.31338C63.974 7.38025 64.2501 7.47065 64.5151 7.58458C64.7826 7.69852 65.0217 7.84217 65.2322 8.01554C65.4452 8.18892 65.6136 8.3982 65.7374 8.64341C65.8613 8.88861 65.9232 9.17591 65.9232 9.50532C65.9232 9.95114 65.8093 10.3437 65.5814 10.683C65.3535 11.0199 65.0241 11.2836 64.5932 11.4744C64.1647 11.6626 63.6458 11.7567 63.0365 11.7567C62.4446 11.7567 61.9306 11.6651 61.4947 11.4818C61.0613 11.2985 60.722 11.031 60.4768 10.6793C60.234 10.3276 60.1028 9.89913 60.083 9.39387H61.439C61.4588 9.65888 61.5405 9.87932 61.6842 10.0552C61.8279 10.231 62.0148 10.3623 62.2452 10.449C62.478 10.5357 62.7381 10.579 63.0254 10.579C63.3251 10.579 63.5876 10.5344 63.813 10.4453C64.0408 10.3536 64.2192 10.2273 64.348 10.0663C64.4768 9.90285 64.5424 9.71213 64.5449 9.49418C64.5424 9.29604 64.4842 9.13257 64.3703 9.00378C64.2563 8.87251 64.0966 8.76353 63.891 8.67684C63.6879 8.58768 63.4501 8.50842 63.1777 8.43907L62.3121 8.21616C61.6854 8.05517 61.1901 7.81121 60.826 7.48428C60.4644 7.15486 60.2836 6.71771 60.2836 6.17282C60.2836 5.72453 60.4049 5.33196 60.6477 4.99512C60.8929 4.65828 61.226 4.39698 61.647 4.21122C62.0681 4.02298 62.5449 3.92887 63.0774 3.92887C63.6173 3.92887 64.0904 4.02298 64.4966 4.21122C64.9052 4.39698 65.226 4.6558 65.4588 4.98769C65.6916 5.3171 65.8117 5.69604 65.8192 6.12453H64.4929ZM69.8641 11.7456C69.5 11.7431 69.1446 11.6799 68.7978 11.5561C68.4511 11.4298 68.139 11.2254 67.8616 10.9431C67.5842 10.6583 67.3637 10.2806 67.2003 9.80997C67.0368 9.3369 66.9563 8.75115 66.9588 8.05269C66.9588 7.4013 67.0281 6.8205 67.1668 6.31028C67.3055 5.80007 67.5049 5.36911 67.765 5.01741C68.025 4.66323 68.3384 4.39326 68.7049 4.2075C69.074 4.02174 69.4863 3.92887 69.9421 3.92887C70.4201 3.92887 70.8436 4.02298 71.2127 4.21122C71.5842 4.39945 71.8839 4.65704 72.1117 4.98397C72.3396 5.30843 72.4808 5.67499 72.5353 6.08366H71.1792C71.1099 5.7914 70.9675 5.55858 70.752 5.38521C70.539 5.20936 70.269 5.12143 69.9421 5.12143C69.4145 5.12143 69.0083 5.35053 68.7235 5.80874C68.4411 6.26694 68.2987 6.89604 68.2963 7.69604H68.3483C68.4696 7.47808 68.6269 7.29109 68.8201 7.13505C69.0133 6.97901 69.2312 6.85889 69.474 6.77468C69.7192 6.68799 69.978 6.64465 70.2504 6.64465C70.6962 6.64465 71.0962 6.75115 71.4504 6.96415C71.8071 7.17715 72.0894 7.47065 72.2975 7.84465C72.5055 8.21616 72.6083 8.64217 72.6058 9.12266C72.6083 9.62297 72.4944 10.0725 72.264 10.4713C72.0337 10.8675 71.713 11.1796 71.3018 11.4075C70.8907 11.6353 70.4114 11.748 69.8641 11.7456ZM69.8566 10.631C70.1266 10.631 70.3681 10.5654 70.5811 10.4341C70.7941 10.3028 70.9625 10.1258 71.0863 9.90285C71.2102 9.67994 71.2709 9.42978 71.2684 9.15238C71.2709 8.87994 71.2114 8.6335 71.0901 8.41307C70.9712 8.19263 70.8065 8.01802 70.5959 7.88923C70.3854 7.76044 70.1452 7.69604 69.8752 7.69604C69.6746 7.69604 69.4876 7.73443 69.3142 7.81121C69.1408 7.88799 68.9898 7.99449 68.861 8.13071C68.7322 8.26446 68.6306 8.4205 68.5563 8.59882C68.4845 8.77467 68.4473 8.96291 68.4449 9.16353C68.4473 9.42854 68.5093 9.67251 68.6306 9.89541C68.752 10.1183 68.9192 10.2967 69.1322 10.4304C69.3452 10.5641 69.5867 10.631 69.8566 10.631ZM76.6739 11.7864C76.0622 11.7864 75.5371 11.6316 75.0987 11.322C74.6628 11.01 74.3272 10.5604 74.0919 9.97343C73.8591 9.38396 73.7427 8.67436 73.7427 7.84465C73.7452 7.01493 73.8628 6.30905 74.0956 5.727C74.3309 5.14248 74.6665 4.69667 75.1024 4.38955C75.5408 4.08243 76.0647 3.92887 76.6739 3.92887C77.2832 3.92887 77.8071 4.08243 78.2455 4.38955C78.6838 4.69667 79.0194 5.14248 79.2523 5.727C79.4876 6.31152 79.6052 7.0174 79.6052 7.84465C79.6052 8.67684 79.4876 9.38768 79.2523 9.97715C79.0194 10.5641 78.6838 11.0124 78.2455 11.322C77.8095 11.6316 77.2857 11.7864 76.6739 11.7864ZM76.6739 10.6236C77.1495 10.6236 77.5247 10.3895 77.7996 9.92142C78.077 9.45083 78.2157 8.75858 78.2157 7.84465C78.2157 7.24031 78.1526 6.73257 78.0263 6.32143C77.8999 5.91028 77.7216 5.60069 77.4913 5.39264C77.2609 5.18211 76.9885 5.07685 76.6739 5.07685C76.2009 5.07685 75.8269 5.31214 75.552 5.78273C75.277 6.25084 75.1383 6.93815 75.1359 7.84465C75.1334 8.45146 75.1941 8.96167 75.3179 9.37529C75.4442 9.78891 75.6226 10.101 75.8529 10.3115C76.0832 10.5196 76.3569 10.6236 76.6739 10.6236Z" fill="#C256C7"/>
<path d="M18.3431 23.9296C18.3431 22.9934 18.4644 22.1327 18.7071 21.3476C18.9524 20.5599 19.3016 19.8355 19.7548 19.1742H20.5276C20.3493 19.4194 20.1821 19.7216 20.026 20.0807C19.8725 20.4373 19.7375 20.8299 19.6211 21.2584C19.5047 21.6844 19.413 22.1253 19.3462 22.581C19.2818 23.0367 19.2496 23.4862 19.2496 23.9296C19.2496 24.5191 19.3065 25.1172 19.4205 25.724C19.5344 26.3308 19.688 26.8943 19.8811 27.4144C20.0743 27.9345 20.2898 28.3581 20.5276 28.685H19.7548C19.3016 28.0237 18.9524 27.3005 18.7071 26.5153C18.4644 25.7277 18.3431 24.8658 18.3431 23.9296ZM26.1012 22.0274C26.0567 21.651 25.8759 21.3587 25.5588 21.1507C25.2418 20.9426 24.853 20.8386 24.3923 20.8386C24.0554 20.8386 23.7607 20.8931 23.5081 21.002C23.2579 21.111 23.0622 21.2609 22.9211 21.4516C22.7824 21.6423 22.713 21.859 22.713 22.1017C22.713 22.3048 22.7613 22.4794 22.8579 22.6256C22.957 22.7692 23.0833 22.8893 23.2369 22.9859C23.3904 23.0801 23.5514 23.1581 23.7198 23.22C23.8883 23.2794 24.0431 23.3277 24.1842 23.3649L24.957 23.5729C25.1551 23.6249 25.3756 23.6968 25.6183 23.7884C25.8635 23.8801 26.0975 24.0051 26.3204 24.1636C26.5458 24.3197 26.7316 24.5203 26.8777 24.7655C27.0238 25.0107 27.0969 25.3116 27.0969 25.6683C27.0969 26.0794 26.9892 26.4509 26.7737 26.7828C26.5607 27.1147 26.2486 27.3785 25.8375 27.5742C25.4288 27.7698 24.9322 27.8677 24.3477 27.8677C23.8028 27.8677 23.331 27.7797 22.9322 27.6039C22.5359 27.428 22.2239 27.1828 21.996 26.8683C21.7706 26.5537 21.6431 26.1884 21.6133 25.7723H22.5644C22.5892 26.0596 22.6858 26.2974 22.8542 26.4856C23.0251 26.6714 23.2406 26.8101 23.5006 26.9017C23.7632 26.9909 24.0455 27.0355 24.3477 27.0355C24.6994 27.0355 25.0152 26.9785 25.2951 26.8646C25.5749 26.7482 25.7966 26.5872 25.9601 26.3816C26.1235 26.1735 26.2053 25.9308 26.2053 25.6534C26.2053 25.4008 26.1347 25.1952 25.9935 25.0367C25.8523 24.8782 25.6666 24.7494 25.4362 24.6503C25.2059 24.5513 24.957 24.4646 24.6895 24.3903L23.7533 24.1228C23.1588 23.9519 22.6883 23.7079 22.3415 23.3909C21.9948 23.0739 21.8214 22.659 21.8214 22.1463C21.8214 21.7203 21.9366 21.3488 22.1669 21.0318C22.3997 20.7123 22.7118 20.4646 23.1031 20.2887C23.4969 20.1104 23.9365 20.0212 24.422 20.0212C24.9124 20.0212 25.3483 20.1092 25.7297 20.285C26.1112 20.4584 26.4133 20.6962 26.6362 20.9983C26.8616 21.3005 26.9805 21.6435 26.9929 22.0274H26.1012ZM30.8854 27.8528C30.3356 27.8528 29.8613 27.7314 29.4625 27.4887C29.0663 27.2435 28.7604 26.9017 28.5449 26.4633C28.3319 26.0225 28.2254 25.5098 28.2254 24.9253C28.2254 24.3407 28.3319 23.8256 28.5449 23.3797C28.7604 22.9315 29.0601 22.5822 29.444 22.3321C29.8303 22.0794 30.2811 21.9531 30.7963 21.9531C31.0935 21.9531 31.387 22.0027 31.6768 22.1017C31.9666 22.2008 32.2303 22.3618 32.4681 22.5847C32.7059 22.8051 32.8954 23.0974 33.0365 23.4615C33.1777 23.8256 33.2483 24.2739 33.2483 24.8064V25.1779H28.8495V24.42H32.3567C32.3567 24.098 32.2923 23.8107 32.1635 23.5581C32.0371 23.3054 31.8563 23.1061 31.6211 22.9599C31.3882 22.8138 31.1133 22.7407 30.7963 22.7407C30.4471 22.7407 30.1449 22.8274 29.8898 23.0008C29.6372 23.1717 29.4427 23.3946 29.3065 23.6695C29.1703 23.9445 29.1022 24.2392 29.1022 24.5537V25.059C29.1022 25.49 29.1765 25.8553 29.3251 26.155C29.4762 26.4522 29.6855 26.6788 29.9529 26.8348C30.2204 26.9884 30.5313 27.0652 30.8854 27.0652C31.1158 27.0652 31.3238 27.033 31.5096 26.9686C31.6978 26.9017 31.8601 26.8027 31.9963 26.6714C32.1325 26.5376 32.2378 26.3717 32.3121 26.1735L33.1591 26.4113C33.07 26.6986 32.9201 26.9513 32.7096 27.1692C32.4991 27.3847 32.239 27.5531 31.9294 27.6745C31.6198 27.7934 31.2718 27.8528 30.8854 27.8528ZM36.2613 27.8677C35.8997 27.8677 35.5715 27.7996 35.2768 27.6633C34.982 27.5246 34.748 27.3252 34.5746 27.0652C34.4012 26.8027 34.3145 26.4856 34.3145 26.1141C34.3145 25.7872 34.3789 25.5222 34.5077 25.3191C34.6365 25.1135 34.8087 24.9525 35.0241 24.8361C35.2396 24.7197 35.4774 24.633 35.7375 24.576C36 24.5166 36.2638 24.4695 36.5288 24.4349C36.8755 24.3903 37.1566 24.3568 37.3721 24.3345C37.5901 24.3098 37.7486 24.2689 37.8477 24.2119C37.9492 24.155 38 24.0559 38 23.9147V23.885C38 23.5184 37.8997 23.2336 37.6991 23.0305C37.5009 22.8274 37.2 22.7259 36.7963 22.7259C36.3777 22.7259 36.0495 22.8175 35.8118 23.0008C35.574 23.1841 35.4068 23.3797 35.3102 23.5878L34.478 23.2906C34.6266 22.9438 34.8248 22.6739 35.0724 22.4807C35.3226 22.285 35.595 22.1488 35.8898 22.072C36.187 21.9928 36.4792 21.9531 36.7665 21.9531C36.9498 21.9531 37.1604 21.9754 37.3981 22.02C37.6384 22.0621 37.87 22.15 38.0929 22.2838C38.3182 22.4175 38.5052 22.6194 38.6539 22.8893C38.8025 23.1593 38.8768 23.5209 38.8768 23.9742V27.7339H38V26.9612H37.9554C37.896 27.085 37.7969 27.2175 37.6582 27.3587C37.5195 27.4999 37.335 27.62 37.1046 27.7191C36.8743 27.8181 36.5932 27.8677 36.2613 27.8677ZM36.395 27.08C36.7418 27.08 37.034 27.0119 37.2718 26.8757C37.5121 26.7395 37.6929 26.5636 37.8142 26.3482C37.9381 26.1327 38 25.9061 38 25.6683V24.8658C37.9628 24.9104 37.8811 24.9513 37.7548 24.9884C37.6309 25.0231 37.4873 25.054 37.3238 25.0813C37.1628 25.1061 37.0056 25.1284 36.852 25.1482C36.7009 25.1655 36.5783 25.1804 36.4842 25.1927C36.2563 25.2225 36.0433 25.2708 35.8452 25.3376C35.6495 25.402 35.491 25.4999 35.3696 25.6311C35.2508 25.7599 35.1913 25.9358 35.1913 26.1587C35.1913 26.4633 35.304 26.6937 35.5294 26.8497C35.7573 27.0033 36.0458 27.08 36.395 27.08ZM42.9588 22.0274V22.7705H40.0015V22.0274H42.9588ZM40.8634 20.6603H41.7402V26.0992C41.7402 26.3469 41.7761 26.5327 41.848 26.6565C41.9223 26.7779 42.0164 26.8596 42.1303 26.9017C42.2467 26.9413 42.3693 26.9612 42.4981 26.9612C42.5947 26.9612 42.674 26.9562 42.7359 26.9463C42.7978 26.9339 42.8473 26.924 42.8845 26.9166L43.0628 27.7042C43.0034 27.7265 42.9204 27.7488 42.8139 27.7711C42.7074 27.7958 42.5724 27.8082 42.4089 27.8082C42.1613 27.8082 41.9185 27.755 41.6808 27.6485C41.4455 27.542 41.2498 27.3797 41.0938 27.1618C40.9402 26.9438 40.8634 26.6689 40.8634 26.337V20.6603ZM44.2777 27.7339V22.0274H45.1545V27.7339H44.2777ZM44.7235 21.0763C44.5526 21.0763 44.4052 21.0181 44.2814 20.9017C44.16 20.7853 44.0993 20.6454 44.0993 20.4819C44.0993 20.3185 44.16 20.1785 44.2814 20.0621C44.4052 19.9457 44.5526 19.8875 44.7235 19.8875C44.8944 19.8875 45.0405 19.9457 45.1619 20.0621C45.2857 20.1785 45.3476 20.3185 45.3476 20.4819C45.3476 20.6454 45.2857 20.7853 45.1619 20.9017C45.0405 21.0181 44.8944 21.0763 44.7235 21.0763ZM47.6371 24.3011V27.7339H46.7603V22.0274H47.6074V22.9191H47.6817C47.8154 22.6293 48.0185 22.3965 48.291 22.2206C48.5634 22.0423 48.9151 21.9531 49.3461 21.9531C49.7325 21.9531 50.0705 22.0324 50.3603 22.1909C50.6501 22.3469 50.8755 22.5847 51.0365 22.9042C51.1975 23.2212 51.278 23.6225 51.278 24.1079V27.7339H50.4012V24.1674C50.4012 23.7191 50.2848 23.3698 50.052 23.1197C49.8191 22.8671 49.4996 22.7407 49.0935 22.7407C48.8136 22.7407 48.5634 22.8014 48.343 22.9228C48.125 23.0441 47.9529 23.2212 47.8266 23.4541C47.7003 23.6869 47.6371 23.9692 47.6371 24.3011ZM55.1835 29.9927C54.76 29.9927 54.3959 29.9382 54.0913 29.8293C53.7866 29.7228 53.5328 29.5816 53.3297 29.4057C53.129 29.2324 52.9693 29.0466 52.8504 28.8485L53.5489 28.3581C53.6281 28.4621 53.7284 28.581 53.8498 28.7147C53.9711 28.8509 54.1371 28.9686 54.3476 29.0677C54.5606 29.1692 54.8393 29.22 55.1835 29.22C55.6442 29.22 56.0244 29.1085 56.3241 28.8856C56.6238 28.6627 56.7736 28.3135 56.7736 27.8379V26.6788H56.6993C56.6349 26.7828 56.5433 26.9116 56.4244 27.0652C56.308 27.2163 56.1396 27.3513 55.9191 27.4701C55.7012 27.5865 55.4064 27.6448 55.0349 27.6448C54.5742 27.6448 54.1606 27.5358 53.7941 27.3178C53.43 27.0999 53.1414 26.7828 52.9284 26.3667C52.7179 25.9506 52.6126 25.4454 52.6126 24.851C52.6126 24.2664 52.7154 23.7575 52.921 23.324C53.1266 22.8881 53.4126 22.5513 53.7792 22.3135C54.1458 22.0732 54.5693 21.9531 55.0498 21.9531C55.4213 21.9531 55.716 22.015 55.934 22.1389C56.1544 22.2602 56.3228 22.3989 56.4393 22.555C56.5581 22.7085 56.6498 22.8349 56.7142 22.9339H56.8033V22.0274H57.6504V27.8974C57.6504 28.3878 57.5389 28.7865 57.316 29.0937C57.0956 29.4033 56.7984 29.6299 56.4244 29.7735C56.0529 29.9197 55.6393 29.9927 55.1835 29.9927ZM55.1538 26.8571C55.5055 26.8571 55.8027 26.7766 56.0454 26.6157C56.2882 26.4547 56.4727 26.2231 56.599 25.9209C56.7253 25.6188 56.7885 25.2571 56.7885 24.8361C56.7885 24.4249 56.7266 24.0621 56.6027 23.7475C56.4789 23.433 56.2956 23.1866 56.0529 23.0082C55.8102 22.8299 55.5105 22.7407 55.1538 22.7407C54.7823 22.7407 54.4727 22.8349 54.225 23.0231C53.9798 23.2113 53.7953 23.464 53.6715 23.781C53.5501 24.098 53.4894 24.4497 53.4894 24.8361C53.4894 25.2324 53.5513 25.5828 53.6752 25.8875C53.8015 26.1896 53.9872 26.4274 54.2324 26.6008C54.4801 26.7717 54.7872 26.8571 55.1538 26.8571ZM61.1278 24.524C61.1278 25.4602 61.0052 26.3222 60.76 27.1098C60.5173 27.8949 60.1693 28.6181 59.716 29.2794H58.9433C59.1216 29.0342 59.2875 28.7321 59.4411 28.3729C59.5971 28.0163 59.7334 27.6249 59.8498 27.1989C59.9662 26.7705 60.0566 26.3283 60.121 25.8726C60.1879 25.4144 60.2213 24.9649 60.2213 24.524C60.2213 23.9345 60.1643 23.3364 60.0504 22.7296C59.9365 22.1228 59.7829 21.5593 59.5897 21.0392C59.3965 20.5191 59.181 20.0955 58.9433 19.7686H59.716C60.1693 20.4299 60.5173 21.1544 60.76 21.942C61.0052 22.7271 61.1278 23.5878 61.1278 24.524Z" fill="#777779"/>
</svg>
