<svg width="173" height="35" viewBox="0 0 173 35" fill="none" xmlns="http://www.w3.org/2000/svg">
<rect width="172.062" height="33.6714" transform="translate(0.199219 0.478058)" fill="white"/>
<rect x="0.199219" y="0.478058" width="10.4619" height="13.6005" rx="2.18902" fill="#FCD3FE"/>
<path d="M20.8248 11.4781H18.242V3.10854H20.9392C21.7511 3.10854 22.4458 3.2761 23.0234 3.6112C23.601 3.94359 24.0437 4.42173 24.3516 5.04563C24.6595 5.6668 24.8134 6.41058 24.8134 7.27695C24.8134 8.14878 24.6581 8.89936 24.3475 9.52871C24.0369 10.1553 23.5847 10.6376 22.9907 10.9754C22.3968 11.3105 21.6748 11.4781 20.8248 11.4781ZM19.2555 10.579H20.7594C21.4514 10.579 22.0249 10.4455 22.4799 10.1785C22.9349 9.9115 23.2741 9.53144 23.4975 9.03831C23.7209 8.54519 23.8326 7.95807 23.8326 7.27695C23.8326 6.60129 23.7222 6.01962 23.5016 5.53194C23.2809 5.04154 22.9512 4.66557 22.5126 4.40402C22.074 4.13975 21.5277 4.00761 20.8738 4.00761H19.2555V10.579ZM26.3827 11.4781V5.20092H27.3471V11.4781H26.3827ZM26.8731 4.15473C26.6851 4.15473 26.523 4.09071 26.3868 3.96266C26.2533 3.83461 26.1865 3.68068 26.1865 3.50086C26.1865 3.32105 26.2533 3.16712 26.3868 3.03907C26.523 2.91102 26.6851 2.847 26.8731 2.847C27.0611 2.847 27.2218 2.91102 27.3553 3.03907C27.4915 3.16712 27.5596 3.32105 27.5596 3.50086C27.5596 3.68068 27.4915 3.83461 27.3553 3.96266C27.2218 4.09071 27.0611 4.15473 26.8731 4.15473ZM30.9608 11.6252C30.563 11.6252 30.202 11.5503 29.8778 11.4004C29.5536 11.2478 29.2961 11.0285 29.1054 10.7425C28.9147 10.4537 28.8194 10.1049 28.8194 9.69627C28.8194 9.33664 28.8902 9.04512 29.0319 8.82172C29.1735 8.59559 29.3629 8.4185 29.5999 8.29045C29.8369 8.1624 30.0985 8.06704 30.3846 8.00438C30.6733 7.939 30.9635 7.88723 31.255 7.84909C31.6364 7.80005 31.9457 7.76327 32.1827 7.73875C32.4224 7.7115 32.5968 7.66655 32.7058 7.60389C32.8175 7.54123 32.8733 7.43225 32.8733 7.27695V7.24426C32.8733 6.84104 32.763 6.52773 32.5423 6.30432C32.3244 6.08092 31.9933 5.96922 31.5493 5.96922C31.0888 5.96922 30.7278 6.07002 30.4663 6.27163C30.2047 6.47324 30.0208 6.68847 29.9146 6.91733L28.9992 6.59039C29.1626 6.20897 29.3806 5.912 29.653 5.6995C29.9282 5.48426 30.2279 5.33442 30.5521 5.24996C30.879 5.16278 31.2005 5.11919 31.5166 5.11919C31.7182 5.11919 31.9497 5.14371 32.2113 5.19275C32.4756 5.23906 32.7303 5.33578 32.9755 5.4829C33.2234 5.63002 33.4291 5.85207 33.5926 6.14903C33.7561 6.446 33.8378 6.84377 33.8378 7.34234V11.4781H32.8733V10.628H32.8243C32.7589 10.7643 32.6499 10.91 32.4974 11.0653C32.3448 11.2206 32.1418 11.3527 31.8884 11.4617C31.6351 11.5707 31.3259 11.6252 30.9608 11.6252ZM31.1079 10.7588C31.4893 10.7588 31.8108 10.6839 32.0724 10.534C32.3366 10.3842 32.5355 10.1908 32.669 9.95373C32.8052 9.7167 32.8733 9.46741 32.8733 9.20587V8.32314C32.8325 8.37218 32.7426 8.41714 32.6036 8.458C32.4674 8.49615 32.3094 8.5302 32.1296 8.56017C31.9525 8.58741 31.7795 8.61193 31.6106 8.63373C31.4444 8.6528 31.3095 8.66915 31.206 8.68277C30.9553 8.71546 30.721 8.76859 30.5031 8.84215C30.2878 8.91299 30.1135 9.0206 29.98 9.165C29.8492 9.30667 29.7838 9.50011 29.7838 9.74531C29.7838 10.0804 29.9078 10.3338 30.1557 10.5054C30.4063 10.6743 30.7237 10.7588 31.1079 10.7588ZM35.5981 11.4781V5.20092H36.5299V6.18172H36.6116C36.7424 5.84662 36.9535 5.58643 37.2451 5.40117C37.5366 5.21318 37.8867 5.11919 38.2953 5.11919C38.7095 5.11919 39.0541 5.21318 39.3293 5.40117C39.6072 5.58643 39.8238 5.84662 39.979 6.18172H40.0444C40.2052 5.85751 40.4463 5.60005 40.7678 5.40934C41.0893 5.21591 41.4748 5.11919 41.9243 5.11919C42.4855 5.11919 42.9446 5.29492 43.3015 5.64637C43.6584 5.9951 43.8369 6.53863 43.8369 7.27695V11.4781H42.8724V7.27695C42.8724 6.8138 42.7457 6.48278 42.4924 6.28389C42.239 6.08501 41.9407 5.98556 41.5974 5.98556C41.156 5.98556 40.8141 6.11906 40.5716 6.38606C40.3291 6.65033 40.2079 6.98544 40.2079 7.39138V11.4781H39.2271V7.17887C39.2271 6.82197 39.1113 6.53454 38.8797 6.31658C38.6482 6.0959 38.3498 5.98556 37.9848 5.98556C37.7341 5.98556 37.4998 6.05231 37.2818 6.18581C37.0666 6.31931 36.8922 6.50457 36.7587 6.7416C36.628 6.9759 36.5626 7.24698 36.5626 7.55485V11.4781H35.5981ZM48.1504 11.6088C47.5837 11.6088 47.0865 11.474 46.6587 11.2043C46.2337 10.9345 45.9013 10.5572 45.6616 10.0722C45.4245 9.58729 45.306 9.0206 45.306 8.37218C45.306 7.71831 45.4245 7.14754 45.6616 6.65987C45.9013 6.17219 46.2337 5.79349 46.6587 5.52377C47.0865 5.25405 47.5837 5.11919 48.1504 5.11919C48.717 5.11919 49.2129 5.25405 49.6379 5.52377C50.0656 5.79349 50.398 6.17219 50.6351 6.65987C50.8748 7.14754 50.9947 7.71831 50.9947 8.37218C50.9947 9.0206 50.8748 9.58729 50.6351 10.0722C50.398 10.5572 50.0656 10.9345 49.6379 11.2043C49.2129 11.474 48.717 11.6088 48.1504 11.6088ZM48.1504 10.7425C48.5808 10.7425 48.935 10.6321 49.2129 10.4114C49.4908 10.1908 49.6965 9.9006 49.83 9.54097C49.9635 9.18135 50.0302 8.79175 50.0302 8.37218C50.0302 7.95262 49.9635 7.56166 49.83 7.19931C49.6965 6.83695 49.4908 6.54408 49.2129 6.32067C48.935 6.09727 48.5808 5.98556 48.1504 5.98556C47.7199 5.98556 47.3657 6.09727 47.0878 6.32067C46.8099 6.54408 46.6042 6.83695 46.4707 7.19931C46.3372 7.56166 46.2705 7.95262 46.2705 8.37218C46.2705 8.79175 46.3372 9.18135 46.4707 9.54097C46.6042 9.9006 46.8099 10.1908 47.0878 10.4114C47.3657 10.6321 47.7199 10.7425 48.1504 10.7425ZM53.4314 7.70197V11.4781H52.4669V5.20092H53.3987V6.18172H53.4804C53.6275 5.86296 53.8509 5.60686 54.1506 5.41343C54.4503 5.21727 54.8372 5.11919 55.3112 5.11919C55.7363 5.11919 56.1081 5.20637 56.4269 5.38074C56.7457 5.55238 56.9936 5.81392 57.1707 6.16538C57.3478 6.51411 57.4363 6.95547 57.4363 7.48946V11.4781H56.4719V7.55485C56.4719 7.06172 56.3438 6.67757 56.0877 6.4024C55.8316 6.12451 55.4802 5.98556 55.0333 5.98556C54.7255 5.98556 54.4503 6.05231 54.2078 6.18581C53.9681 6.31931 53.7787 6.51411 53.6398 6.77021C53.5008 7.0263 53.4314 7.33689 53.4314 7.70197ZM61.569 11.6088C61.0459 11.6088 60.5841 11.4767 60.1836 11.2124C59.7831 10.9454 59.4698 10.5695 59.2436 10.0845C59.0175 9.59682 58.9045 9.0206 58.9045 8.35584C58.9045 7.69652 59.0175 7.12438 59.2436 6.63943C59.4698 6.15448 59.7845 5.77987 60.1877 5.5156C60.5909 5.25132 61.0568 5.11919 61.5853 5.11919C61.994 5.11919 62.3168 5.1873 62.5539 5.32352C62.7936 5.45702 62.9761 5.60959 63.1015 5.78123C63.2295 5.95015 63.329 6.08909 63.3998 6.19807H63.4815V3.10854H64.446V11.4781H63.5142V10.5136H63.3998C63.329 10.628 63.2282 10.7724 63.0974 10.9468C62.9666 11.1184 62.78 11.2724 62.5375 11.4086C62.295 11.5421 61.9722 11.6088 61.569 11.6088ZM61.6997 10.7425C62.0866 10.7425 62.4135 10.6417 62.6805 10.44C62.9475 10.2357 63.1505 9.95373 63.2895 9.5941C63.4284 9.23175 63.4979 8.81354 63.4979 8.33949C63.4979 7.87088 63.4298 7.46085 63.2935 7.1094C63.1573 6.75522 62.9557 6.48005 62.6887 6.28389C62.4217 6.08501 62.0921 5.98556 61.6997 5.98556C61.2911 5.98556 60.9505 6.09045 60.6781 6.30024C60.4084 6.5073 60.2054 6.78928 60.0692 7.14618C59.9357 7.50036 59.8689 7.89813 59.8689 8.33949C59.8689 8.7863 59.937 9.19224 60.0732 9.55732C60.2122 9.91967 60.4165 10.2085 60.6862 10.4237C60.9587 10.6362 61.2965 10.7425 61.6997 10.7425Z" fill="#1E1E20"/>
<path d="M73.7356 12.4291V2.91833H74.3449V12.4291H73.7356ZM75.4929 5.96104C75.4582 5.63659 75.3121 5.38396 75.0545 5.20315C74.7994 5.02235 74.4675 4.93194 74.0588 4.93194C73.7715 4.93194 73.5251 4.97529 73.3195 5.06197C73.1139 5.14866 72.9566 5.26631 72.8477 5.41491C72.7387 5.56352 72.683 5.73318 72.6805 5.92389C72.6805 6.08241 72.7164 6.21987 72.7882 6.33627C72.8625 6.45268 72.9628 6.55175 73.0891 6.63349C73.2155 6.71274 73.3554 6.77962 73.509 6.83411C73.6625 6.8886 73.8173 6.93442 73.9734 6.97157L74.6867 7.14989C74.974 7.21677 75.2501 7.30717 75.5151 7.4211C75.7826 7.53503 76.0217 7.67869 76.2322 7.85206C76.4452 8.02543 76.6136 8.23472 76.7374 8.47992C76.8613 8.72512 76.9232 9.01243 76.9232 9.34184C76.9232 9.78766 76.8093 10.1802 76.5814 10.5195C76.3535 10.8564 76.0241 11.1202 75.5932 11.3109C75.1647 11.4991 74.6458 11.5932 74.0365 11.5932C73.4446 11.5932 72.9306 11.5016 72.4947 11.3183C72.0613 11.135 71.722 10.8675 71.4768 10.5158C71.234 10.1641 71.1028 9.73565 71.083 9.23039H72.439C72.4588 9.4954 72.5405 9.71583 72.6842 9.89168C72.8279 10.0675 73.0148 10.1988 73.2452 10.2855C73.478 10.3722 73.7381 10.4155 74.0254 10.4155C74.3251 10.4155 74.5876 10.3709 74.813 10.2818C75.0408 10.1901 75.2192 10.0638 75.348 9.90283C75.4768 9.73936 75.5424 9.54865 75.5449 9.33069C75.5424 9.13255 75.4842 8.96909 75.3703 8.84029C75.2563 8.70902 75.0966 8.60005 74.891 8.51336C74.6879 8.4242 74.4501 8.34494 74.1777 8.27559L73.3121 8.05268C72.6854 7.89169 72.1901 7.64773 71.826 7.32079C71.4644 6.99138 71.2836 6.55423 71.2836 6.00934C71.2836 5.56104 71.4049 5.16848 71.6477 4.83163C71.8929 4.49479 72.226 4.23349 72.647 4.04773C73.0681 3.8595 73.5449 3.76538 74.0774 3.76538C74.6173 3.76538 75.0904 3.8595 75.4966 4.04773C75.9052 4.23349 76.226 4.49232 76.4588 4.8242C76.6916 5.15361 76.8117 5.53256 76.8192 5.96104H75.4929ZM81.1724 3.86941V11.4781H79.7941V5.21058H79.7495L77.9699 6.34742V5.08427L79.861 3.86941H81.1724ZM83.1043 11.4781V10.4824L85.7458 7.89293C85.9984 7.63782 86.2089 7.41119 86.3774 7.21305C86.5458 7.01491 86.6721 6.82296 86.7563 6.6372C86.8405 6.45144 86.8826 6.2533 86.8826 6.04278C86.8826 5.80253 86.8281 5.59696 86.7191 5.42606C86.6102 5.25269 86.4603 5.11894 86.2696 5.02482C86.0789 4.93071 85.8622 4.88365 85.6195 4.88365C85.3693 4.88365 85.1501 4.93566 84.9619 5.03968C84.7736 5.14123 84.6275 5.28612 84.5235 5.47436C84.4219 5.66259 84.3712 5.88674 84.3712 6.1468H83.0597C83.0597 5.66383 83.1699 5.24402 83.3904 4.88736C83.6108 4.53071 83.9142 4.25455 84.3006 4.05888C84.6894 3.86322 85.1353 3.76538 85.638 3.76538C86.1483 3.76538 86.5965 3.86074 86.9829 4.05145C87.3693 4.24216 87.669 4.50346 87.882 4.83535C88.0975 5.16724 88.2052 5.54618 88.2052 5.97219C88.2052 6.25702 88.1507 6.53689 88.0417 6.81182C87.9328 7.08674 87.7408 7.39138 87.4659 7.72574C87.1935 8.06011 86.8108 8.46506 86.3179 8.9406L85.0065 10.2743V10.3264H88.3204V11.4781H83.1043ZM92.4145 11.6229C91.8027 11.6229 91.2777 11.4682 90.8393 11.1586C90.4033 10.8465 90.0677 10.3969 89.8325 9.80995C89.5996 9.22048 89.4832 8.51088 89.4832 7.68116C89.4857 6.85144 89.6034 6.14556 89.8362 5.56352C90.0715 4.979 90.4071 4.53318 90.843 4.22606C91.2814 3.91894 91.8052 3.76538 92.4145 3.76538C93.0238 3.76538 93.5476 3.91894 93.986 4.22606C94.4244 4.53318 94.76 4.979 94.9928 5.56352C95.2281 6.14804 95.3458 6.85392 95.3458 7.68116C95.3458 8.51336 95.2281 9.22419 94.9928 9.81367C94.76 10.4007 94.4244 10.849 93.986 11.1586C93.5501 11.4682 93.0263 11.6229 92.4145 11.6229ZM92.4145 10.4601C92.89 10.4601 93.2653 10.226 93.5402 9.75794C93.8176 9.28735 93.9563 8.59509 93.9563 7.68116C93.9563 7.07683 93.8931 6.56909 93.7668 6.15795C93.6405 5.7468 93.4622 5.43721 93.2318 5.22916C93.0015 5.01863 92.729 4.91337 92.4145 4.91337C91.9414 4.91337 91.5674 5.14866 91.2925 5.61925C91.0176 6.08736 90.8789 6.77466 90.8764 7.68116C90.8739 8.28797 90.9346 8.79819 91.0585 9.21181C91.1848 9.62543 91.3631 9.9375 91.5934 10.148C91.8238 10.3561 92.0975 10.4601 92.4145 10.4601Z" fill="#C256C7"/>
<path d="M18.3431 23.7661C18.3431 22.8299 18.4644 21.9692 18.7071 21.1841C18.9524 20.3965 19.3016 19.672 19.7548 19.0107H20.5276C20.3493 19.2559 20.1821 19.5581 20.026 19.9172C19.8725 20.2739 19.7375 20.6664 19.6211 21.0949C19.5047 21.5209 19.413 21.9618 19.3462 22.4175C19.2818 22.8732 19.2496 23.3228 19.2496 23.7661C19.2496 24.3556 19.3065 24.9537 19.4205 25.5605C19.5344 26.1673 19.688 26.7308 19.8811 27.2509C20.0743 27.7711 20.2898 28.1946 20.5276 28.5215H19.7548C19.3016 27.8602 18.9524 27.137 18.7071 26.3519C18.4644 25.5642 18.3431 24.7023 18.3431 23.7661ZM26.1012 21.8639C26.0567 21.4875 25.8759 21.1952 25.5588 20.9872C25.2418 20.7791 24.853 20.6751 24.3923 20.6751C24.0554 20.6751 23.7607 20.7296 23.5081 20.8386C23.2579 20.9475 23.0622 21.0974 22.9211 21.2881C22.7824 21.4788 22.713 21.6955 22.713 21.9382C22.713 22.1413 22.7613 22.316 22.8579 22.4621C22.957 22.6057 23.0833 22.7259 23.2369 22.8225C23.3904 22.9166 23.5514 22.9946 23.7198 23.0565C23.8883 23.116 24.0431 23.1643 24.1842 23.2014L24.957 23.4095C25.1551 23.4615 25.3756 23.5333 25.6183 23.6249C25.8635 23.7166 26.0975 23.8417 26.3204 24.0002C26.5458 24.1562 26.7316 24.3568 26.8777 24.602C27.0238 24.8472 27.0969 25.1481 27.0969 25.5048C27.0969 25.9159 26.9892 26.2875 26.7737 26.6194C26.5607 26.9512 26.2486 27.215 25.8375 27.4107C25.4288 27.6063 24.9322 27.7042 24.3477 27.7042C23.8028 27.7042 23.331 27.6163 22.9322 27.4404C22.5359 27.2646 22.2239 27.0194 21.996 26.7048C21.7706 26.3903 21.6431 26.0249 21.6133 25.6088H22.5644C22.5892 25.8961 22.6858 26.1339 22.8542 26.3221C23.0251 26.5079 23.2406 26.6466 23.5006 26.7382C23.7632 26.8274 24.0455 26.872 24.3477 26.872C24.6994 26.872 25.0152 26.815 25.2951 26.7011C25.5749 26.5847 25.7966 26.4237 25.9601 26.2181C26.1235 26.0101 26.2053 25.7673 26.2053 25.4899C26.2053 25.2373 26.1347 25.0317 25.9935 24.8732C25.8523 24.7147 25.6666 24.5859 25.4362 24.4869C25.2059 24.3878 24.957 24.3011 24.6895 24.2268L23.7533 23.9593C23.1588 23.7884 22.6883 23.5444 22.3415 23.2274C21.9948 22.9104 21.8214 22.4955 21.8214 21.9828C21.8214 21.5568 21.9366 21.1853 22.1669 20.8683C22.3997 20.5488 22.7118 20.3011 23.1031 20.1253C23.4969 19.9469 23.9365 19.8578 24.422 19.8578C24.9124 19.8578 25.3483 19.9457 25.7297 20.1215C26.1112 20.2949 26.4133 20.5327 26.6362 20.8348C26.8616 21.137 26.9805 21.48 26.9929 21.8639H26.1012ZM30.8854 27.6893C30.3356 27.6893 29.8613 27.568 29.4625 27.3252C29.0663 27.08 28.7604 26.7382 28.5449 26.2998C28.3319 25.859 28.2254 25.3463 28.2254 24.7618C28.2254 24.1773 28.3319 23.6621 28.5449 23.2163C28.7604 22.768 29.0601 22.4187 29.444 22.1686C29.8303 21.916 30.2811 21.7896 30.7963 21.7896C31.0935 21.7896 31.387 21.8392 31.6768 21.9382C31.9666 22.0373 32.2303 22.1983 32.4681 22.4212C32.7059 22.6417 32.8954 22.9339 33.0365 23.298C33.1777 23.6621 33.2483 24.1104 33.2483 24.6429V25.0144H28.8495V24.2565H32.3567C32.3567 23.9345 32.2923 23.6472 32.1635 23.3946C32.0371 23.142 31.8563 22.9426 31.6211 22.7965C31.3882 22.6503 31.1133 22.5773 30.7963 22.5773C30.4471 22.5773 30.1449 22.6639 29.8898 22.8373C29.6372 23.0082 29.4427 23.2311 29.3065 23.506C29.1703 23.781 29.1022 24.0757 29.1022 24.3903V24.8955C29.1022 25.3265 29.1765 25.6918 29.3251 25.9915C29.4762 26.2887 29.6855 26.5153 29.9529 26.6714C30.2204 26.8249 30.5313 26.9017 30.8854 26.9017C31.1158 26.9017 31.3238 26.8695 31.5096 26.8051C31.6978 26.7382 31.8601 26.6392 31.9963 26.5079C32.1325 26.3742 32.2378 26.2082 32.3121 26.0101L33.1591 26.2478C33.07 26.5351 32.9201 26.7878 32.7096 27.0057C32.4991 27.2212 32.239 27.3896 31.9294 27.511C31.6198 27.6299 31.2718 27.6893 30.8854 27.6893ZM36.2613 27.7042C35.8997 27.7042 35.5715 27.6361 35.2768 27.4998C34.982 27.3611 34.748 27.1618 34.5746 26.9017C34.4012 26.6392 34.3145 26.3221 34.3145 25.9506C34.3145 25.6237 34.3789 25.3587 34.5077 25.1556C34.6365 24.95 34.8087 24.789 35.0241 24.6726C35.2396 24.5562 35.4774 24.4695 35.7375 24.4125C36 24.3531 36.2638 24.306 36.5288 24.2714C36.8755 24.2268 37.1566 24.1934 37.3721 24.1711C37.5901 24.1463 37.7486 24.1054 37.8477 24.0485C37.9492 23.9915 38 23.8924 38 23.7512V23.7215C38 23.355 37.8997 23.0701 37.6991 22.867C37.5009 22.6639 37.2 22.5624 36.7963 22.5624C36.3777 22.5624 36.0495 22.654 35.8118 22.8373C35.574 23.0206 35.4068 23.2163 35.3102 23.4243L34.478 23.1271C34.6266 22.7804 34.8248 22.5104 35.0724 22.3172C35.3226 22.1215 35.595 21.9853 35.8898 21.9085C36.187 21.8293 36.4792 21.7896 36.7665 21.7896C36.9498 21.7896 37.1604 21.8119 37.3981 21.8565C37.6384 21.8986 37.87 21.9865 38.0929 22.1203C38.3182 22.254 38.5052 22.4559 38.6539 22.7259C38.8025 22.9958 38.8768 23.3574 38.8768 23.8107V27.5704H38V26.7977H37.9554C37.896 26.9215 37.7969 27.054 37.6582 27.1952C37.5195 27.3364 37.335 27.4565 37.1046 27.5556C36.8743 27.6546 36.5932 27.7042 36.2613 27.7042ZM36.395 26.9166C36.7418 26.9166 37.034 26.8485 37.2718 26.7122C37.5121 26.576 37.6929 26.4002 37.8142 26.1847C37.9381 25.9692 38 25.7426 38 25.5048V24.7023C37.9628 24.7469 37.8811 24.7878 37.7548 24.8249C37.6309 24.8596 37.4873 24.8906 37.3238 24.9178C37.1628 24.9426 37.0056 24.9649 36.852 24.9847C36.7009 25.002 36.5783 25.0169 36.4842 25.0293C36.2563 25.059 36.0433 25.1073 35.8452 25.1742C35.6495 25.2386 35.491 25.3364 35.3696 25.4677C35.2508 25.5964 35.1913 25.7723 35.1913 25.9952C35.1913 26.2998 35.304 26.5302 35.5294 26.6862C35.7573 26.8398 36.0458 26.9166 36.395 26.9166ZM42.9588 21.8639V22.607H40.0015V21.8639H42.9588ZM40.8634 20.4968H41.7402V25.9358C41.7402 26.1834 41.7761 26.3692 41.848 26.493C41.9223 26.6144 42.0164 26.6961 42.1303 26.7382C42.2467 26.7779 42.3693 26.7977 42.4981 26.7977C42.5947 26.7977 42.674 26.7927 42.7359 26.7828C42.7978 26.7704 42.8473 26.7605 42.8845 26.7531L43.0628 27.5407C43.0034 27.563 42.9204 27.5853 42.8139 27.6076C42.7074 27.6324 42.5724 27.6447 42.4089 27.6447C42.1613 27.6447 41.9185 27.5915 41.6808 27.485C41.4455 27.3785 41.2498 27.2163 41.0938 26.9983C40.9402 26.7803 40.8634 26.5054 40.8634 26.1735V20.4968ZM44.2777 27.5704V21.8639H45.1545V27.5704H44.2777ZM44.7235 20.9129C44.5526 20.9129 44.4052 20.8547 44.2814 20.7383C44.16 20.6218 44.0993 20.4819 44.0993 20.3184C44.0993 20.155 44.16 20.015 44.2814 19.8986C44.4052 19.7822 44.5526 19.724 44.7235 19.724C44.8944 19.724 45.0405 19.7822 45.1619 19.8986C45.2857 20.015 45.3476 20.155 45.3476 20.3184C45.3476 20.4819 45.2857 20.6218 45.1619 20.7383C45.0405 20.8547 44.8944 20.9129 44.7235 20.9129ZM47.6371 24.1376V27.5704H46.7603V21.8639H47.6074V22.7556H47.6817C47.8154 22.4658 48.0185 22.233 48.291 22.0571C48.5634 21.8788 48.9151 21.7896 49.3461 21.7896C49.7325 21.7896 50.0705 21.8689 50.3603 22.0274C50.6501 22.1835 50.8755 22.4212 51.0365 22.7407C51.1975 23.0578 51.278 23.459 51.278 23.9444V27.5704H50.4012V24.0039C50.4012 23.5556 50.2848 23.2064 50.052 22.9562C49.8191 22.7036 49.4996 22.5773 49.0935 22.5773C48.8136 22.5773 48.5634 22.6379 48.343 22.7593C48.125 22.8807 47.9529 23.0578 47.8266 23.2906C47.7003 23.5234 47.6371 23.8057 47.6371 24.1376ZM55.1835 29.8293C54.76 29.8293 54.3959 29.7748 54.0913 29.6658C53.7866 29.5593 53.5328 29.4181 53.3297 29.2423C53.129 29.0689 52.9693 28.8831 52.8504 28.685L53.5489 28.1946C53.6281 28.2986 53.7284 28.4175 53.8498 28.5512C53.9711 28.6875 54.1371 28.8051 54.3476 28.9042C54.5606 29.0057 54.8393 29.0565 55.1835 29.0565C55.6442 29.0565 56.0244 28.945 56.3241 28.7221C56.6238 28.4992 56.7736 28.15 56.7736 27.6745V26.5153H56.6993C56.6349 26.6194 56.5433 26.7481 56.4244 26.9017C56.308 27.0528 56.1396 27.1878 55.9191 27.3067C55.7012 27.4231 55.4064 27.4813 55.0349 27.4813C54.5742 27.4813 54.1606 27.3723 53.7941 27.1543C53.43 26.9364 53.1414 26.6194 52.9284 26.2033C52.7179 25.7872 52.6126 25.2819 52.6126 24.6875C52.6126 24.103 52.7154 23.594 52.921 23.1605C53.1266 22.7246 53.4126 22.3878 53.7792 22.15C54.1458 21.9098 54.5693 21.7896 55.0498 21.7896C55.4213 21.7896 55.716 21.8516 55.934 21.9754C56.1544 22.0968 56.3228 22.2355 56.4393 22.3915C56.5581 22.5451 56.6498 22.6714 56.7142 22.7704H56.8033V21.8639H57.6504V27.7339C57.6504 28.2243 57.5389 28.6231 57.316 28.9302C57.0956 29.2398 56.7984 29.4664 56.4244 29.6101C56.0529 29.7562 55.6393 29.8293 55.1835 29.8293ZM55.1538 26.6937C55.5055 26.6937 55.8027 26.6132 56.0454 26.4522C56.2882 26.2912 56.4727 26.0596 56.599 25.7574C56.7253 25.4553 56.7885 25.0937 56.7885 24.6726C56.7885 24.2615 56.7266 23.8986 56.6027 23.5841C56.4789 23.2695 56.2956 23.0231 56.0529 22.8447C55.8102 22.6664 55.5105 22.5773 55.1538 22.5773C54.7823 22.5773 54.4727 22.6714 54.225 22.8596C53.9798 23.0478 53.7953 23.3005 53.6715 23.6175C53.5501 23.9345 53.4894 24.2862 53.4894 24.6726C53.4894 25.0689 53.5513 25.4194 53.6752 25.724C53.8015 26.0262 53.9872 26.2639 54.2324 26.4373C54.4801 26.6082 54.7872 26.6937 55.1538 26.6937ZM61.1278 24.3605C61.1278 25.2968 61.0052 26.1587 60.76 26.9463C60.5173 27.7314 60.1693 28.4546 59.716 29.1159H58.9433C59.1216 28.8707 59.2875 28.5686 59.4411 28.2094C59.5971 27.8528 59.7334 27.4615 59.8498 27.0355C59.9662 26.607 60.0566 26.1649 60.121 25.7091C60.1879 25.2509 60.2213 24.8014 60.2213 24.3605C60.2213 23.7711 60.1643 23.1729 60.0504 22.5661C59.9365 21.9593 59.7829 21.3958 59.5897 20.8757C59.3965 20.3556 59.181 19.9321 58.9433 19.6051H59.716C60.1693 20.2664 60.5173 20.9909 60.76 21.7785C61.0052 22.5636 61.1278 23.4243 61.1278 24.3605Z" fill="#777779"/>
</svg>
