<svg width="173" height="35" viewBox="0 0 173 35" fill="none" xmlns="http://www.w3.org/2000/svg">
<rect width="172.062" height="33.6714" transform="translate(0.199219 0.682373)" fill="white"/>
<rect x="0.199219" y="0.682373" width="10.4619" height="13.6005" rx="2.18902" fill="#FFEFC3"/>
<path d="M23.9634 5.92833C23.8735 5.65316 23.7549 5.4066 23.6078 5.18864C23.4634 4.96796 23.2904 4.77997 23.0888 4.62468C22.8899 4.46939 22.6638 4.35087 22.4104 4.26914C22.157 4.18741 21.8792 4.14654 21.5767 4.14654C21.0809 4.14654 20.63 4.27459 20.2241 4.53069C19.8181 4.78679 19.4953 5.16412 19.2555 5.6627C19.0158 6.16127 18.8959 6.77291 18.8959 7.49762C18.8959 8.22232 19.0171 8.83396 19.2596 9.33253C19.5021 9.83111 19.8304 10.2084 20.2445 10.4645C20.6586 10.7206 21.1245 10.8487 21.6421 10.8487C22.1216 10.8487 22.5439 10.7465 22.909 10.5422C23.2768 10.3351 23.5629 10.0436 23.7672 9.66764C23.9743 9.28894 24.0778 8.84349 24.0778 8.3313L24.3884 8.39668H21.871V7.49762H25.0586V8.39668C25.0586 9.08597 24.9115 9.68535 24.6172 10.1948C24.3257 10.7043 23.9225 11.0993 23.4076 11.38C22.8954 11.6579 22.3069 11.7968 21.6421 11.7968C20.9011 11.7968 20.2499 11.6224 19.6887 11.2737C19.1302 10.925 18.6943 10.4291 18.381 9.78615C18.0704 9.14318 17.9151 8.38034 17.9151 7.49762C17.9151 6.83557 18.0036 6.24028 18.1807 5.71174C18.3605 5.18047 18.6139 4.72821 18.9408 4.35496C19.2678 3.98171 19.6546 3.69564 20.1014 3.49676C20.5483 3.29787 21.04 3.19843 21.5767 3.19843C22.0181 3.19843 22.4295 3.26518 22.8109 3.39868C23.1951 3.52945 23.537 3.71608 23.8367 3.95855C24.1391 4.1983 24.3911 4.48573 24.5927 4.82084C24.7943 5.15322 24.9333 5.52239 25.0095 5.92833H23.9634ZM29.2955 11.8131C28.6906 11.8131 28.1689 11.6796 27.7303 11.4127C27.2943 11.1429 26.9579 10.767 26.7208 10.2847C26.4865 9.79978 26.3694 9.23582 26.3694 8.59285C26.3694 7.94987 26.4865 7.38319 26.7208 6.89279C26.9579 6.39966 27.2875 6.01551 27.7098 5.74034C28.1348 5.46245 28.6307 5.3235 29.1974 5.3235C29.5243 5.3235 29.8472 5.37799 30.1659 5.48697C30.4847 5.59595 30.7748 5.77304 31.0364 6.01824C31.2979 6.26071 31.5063 6.5822 31.6616 6.98269C31.8169 7.38319 31.8946 7.87631 31.8946 8.46207V8.87074H27.056V8.03706H30.9138C30.9138 7.68288 30.8429 7.36684 30.7013 7.08895C30.5623 6.81105 30.3634 6.59174 30.1046 6.43099C29.8485 6.27025 29.5461 6.18988 29.1974 6.18988C28.8132 6.18988 28.4808 6.28523 28.2002 6.47595C27.9223 6.66393 27.7085 6.90913 27.5586 7.21155C27.4088 7.51396 27.3338 7.83817 27.3338 8.18418V8.73997C27.3338 9.21402 27.4156 9.61588 27.579 9.94554C27.7452 10.2725 27.9755 10.5218 28.2697 10.6934C28.5639 10.8623 28.9059 10.9468 29.2955 10.9468C29.5488 10.9468 29.7777 10.9114 29.982 10.8405C30.1891 10.767 30.3675 10.658 30.5174 10.5136C30.6672 10.3665 30.783 10.1839 30.8647 9.96597L31.7965 10.2275C31.6984 10.5436 31.5336 10.8214 31.302 11.0612C31.0704 11.2982 30.7844 11.4835 30.4438 11.617C30.1033 11.7478 29.7205 11.8131 29.2955 11.8131ZM34.3262 7.90628V11.6824H33.3617V5.40524H34.2935V6.38604H34.3752C34.5223 6.06728 34.7457 5.81118 35.0454 5.61774C35.3451 5.42158 35.732 5.3235 36.206 5.3235C36.631 5.3235 37.0029 5.41069 37.3217 5.58505C37.6404 5.75669 37.8884 6.01824 38.0655 6.36969C38.2426 6.71842 38.3311 7.15978 38.3311 7.69378V11.6824H37.3666V7.75916C37.3666 7.26604 37.2386 6.88189 36.9825 6.60672C36.7264 6.32883 36.3749 6.18988 35.9281 6.18988C35.6203 6.18988 35.3451 6.25663 35.1026 6.39013C34.8629 6.52362 34.6735 6.71842 34.5346 6.97452C34.3956 7.23062 34.3262 7.54121 34.3262 7.90628ZM42.7253 11.8131C42.1205 11.8131 41.5987 11.6796 41.1601 11.4127C40.7242 11.1429 40.3877 10.767 40.1507 10.2847C39.9164 9.79978 39.7992 9.23582 39.7992 8.59285C39.7992 7.94987 39.9164 7.38319 40.1507 6.89279C40.3877 6.39966 40.7174 6.01551 41.1397 5.74034C41.5647 5.46245 42.0605 5.3235 42.6272 5.3235C42.9541 5.3235 43.277 5.37799 43.5958 5.48697C43.9145 5.59595 44.2047 5.77304 44.4662 6.01824C44.7278 6.26071 44.9362 6.5822 45.0915 6.98269C45.2468 7.38319 45.3244 7.87631 45.3244 8.46207V8.87074H40.4858V8.03706H44.3436C44.3436 7.68288 44.2728 7.36684 44.1311 7.08895C43.9922 6.81105 43.7933 6.59174 43.5345 6.43099C43.2784 6.27025 42.9759 6.18988 42.6272 6.18988C42.2431 6.18988 41.9107 6.28523 41.6301 6.47595C41.3522 6.66393 41.1383 6.90913 40.9885 7.21155C40.8386 7.51396 40.7637 7.83817 40.7637 8.18418V8.73997C40.7637 9.21402 40.8454 9.61588 41.0089 9.94554C41.1751 10.2725 41.4053 10.5218 41.6995 10.6934C41.9938 10.8623 42.3357 10.9468 42.7253 10.9468C42.9787 10.9468 43.2075 10.9114 43.4119 10.8405C43.6189 10.767 43.7974 10.658 43.9472 10.5136C44.0971 10.3665 44.2128 10.1839 44.2946 9.96597L45.2263 10.2275C45.1283 10.5436 44.9634 10.8214 44.7319 11.0612C44.5003 11.2982 44.2142 11.4835 43.8737 11.617C43.5331 11.7478 43.1503 11.8131 42.7253 11.8131ZM46.7915 11.6824V5.40524H47.7233V6.35335H47.7887C47.9031 6.04276 48.1102 5.79075 48.4099 5.59731C48.7096 5.40387 49.0474 5.30716 49.4234 5.30716C49.4942 5.30716 49.5827 5.30852 49.689 5.31124C49.7952 5.31397 49.8756 5.31805 49.9301 5.3235V6.30431C49.8974 6.29613 49.8225 6.28387 49.7053 6.26753C49.5909 6.24845 49.4697 6.23892 49.3416 6.23892C49.0365 6.23892 48.764 6.30294 48.5243 6.43099C48.2873 6.55632 48.0993 6.73068 47.9603 6.95409C47.8241 7.17477 47.756 7.42678 47.756 7.71012V11.6824H46.7915ZM52.9205 11.8295C52.5228 11.8295 52.1618 11.7546 51.8376 11.6047C51.5134 11.4522 51.2559 11.2328 51.0652 10.9468C50.8745 10.658 50.7791 10.3092 50.7791 9.90058C50.7791 9.54095 50.8499 9.24944 50.9916 9.02603C51.1333 8.7999 51.3226 8.62281 51.5597 8.49476C51.7967 8.36672 52.0582 8.27136 52.3443 8.2087C52.6331 8.14331 52.9233 8.09155 53.2148 8.0534C53.5962 8.00436 53.9054 7.96758 54.1424 7.94306C54.3822 7.91582 54.5566 7.87087 54.6655 7.8082C54.7772 7.74554 54.8331 7.63656 54.8331 7.48127V7.44858C54.8331 7.04536 54.7228 6.73204 54.5021 6.50864C54.2841 6.28523 53.9531 6.17353 53.509 6.17353C53.0486 6.17353 52.6876 6.27434 52.426 6.47595C52.1645 6.67756 51.9806 6.89279 51.8743 7.12164L50.9589 6.79471C51.1224 6.41328 51.3404 6.11632 51.6128 5.90381C51.888 5.68858 52.1877 5.53873 52.5119 5.45428C52.8388 5.36709 53.1603 5.3235 53.4763 5.3235C53.6779 5.3235 53.9095 5.34802 54.1711 5.39706C54.4353 5.44338 54.6901 5.5401 54.9353 5.68722C55.1832 5.83434 55.3889 6.05638 55.5524 6.35335C55.7158 6.65031 55.7976 7.04808 55.7976 7.54666V11.6824H54.8331V10.8323H54.7841C54.7187 10.9686 54.6097 11.1143 54.4571 11.2696C54.3046 11.4249 54.1016 11.557 53.8482 11.666C53.5948 11.775 53.2856 11.8295 52.9205 11.8295ZM53.0677 10.9631C53.4491 10.9631 53.7706 10.8882 54.0321 10.7384C54.2964 10.5885 54.4953 10.3951 54.6288 10.158C54.765 9.92102 54.8331 9.67173 54.8331 9.41018V8.52746C54.7922 8.5765 54.7023 8.62145 54.5634 8.66232C54.4272 8.70046 54.2691 8.73452 54.0893 8.76449C53.9122 8.79173 53.7392 8.81625 53.5703 8.83805C53.4041 8.85712 53.2693 8.87346 53.1657 8.88709C52.9151 8.91978 52.6808 8.97291 52.4628 9.04647C52.2476 9.1173 52.0732 9.22492 51.9397 9.36931C51.809 9.51099 51.7436 9.70442 51.7436 9.94962C51.7436 10.2847 51.8675 10.5381 52.1155 10.7097C52.3661 10.8787 52.6835 10.9631 53.0677 10.9631ZM58.5223 3.31286V11.6824H57.5579V3.31286H58.5223ZM63.9995 11.6824H62.937L66.0102 3.31286H67.0564L70.1295 11.6824H69.067L66.5659 4.63694H66.5006L63.9995 11.6824ZM64.3918 8.41303H68.6747V9.3121H64.3918V8.41303ZM73.6727 11.8131C73.1496 11.8131 72.6878 11.681 72.2873 11.4167C71.8868 11.1497 71.5735 10.7738 71.3474 10.2888C71.1212 9.80114 71.0082 9.22492 71.0082 8.56015C71.0082 7.90083 71.1212 7.3287 71.3474 6.84375C71.5735 6.35879 71.8882 5.98418 72.2914 5.71991C72.6946 5.45564 73.1605 5.3235 73.689 5.3235C74.0977 5.3235 74.4205 5.39161 74.6576 5.52784C74.8973 5.66134 75.0799 5.8139 75.2052 5.98554C75.3332 6.15446 75.4327 6.29341 75.5035 6.40239H75.5852V3.31286H76.5497V11.6824H75.6179V10.7179H75.5035C75.4327 10.8323 75.3319 10.9767 75.2011 11.1511C75.0703 11.3227 74.8837 11.4767 74.6412 11.6129C74.3987 11.7464 74.0759 11.8131 73.6727 11.8131ZM73.8035 10.9468C74.1903 10.9468 74.5173 10.846 74.7843 10.6444C75.0513 10.44 75.2542 10.158 75.3932 9.79841C75.5321 9.43606 75.6016 9.01786 75.6016 8.5438C75.6016 8.0752 75.5335 7.66517 75.3973 7.31371C75.261 6.95954 75.0594 6.68437 74.7924 6.48821C74.5254 6.28932 74.1958 6.18988 73.8035 6.18988C73.3948 6.18988 73.0542 6.29477 72.7818 6.50455C72.5121 6.71161 72.3091 6.99359 72.1729 7.35049C72.0394 7.70467 71.9726 8.10244 71.9726 8.5438C71.9726 8.99061 72.0407 9.39656 72.177 9.76163C72.3159 10.124 72.5202 10.4128 72.79 10.628C73.0624 10.8405 73.4002 10.9468 73.8035 10.9468ZM78.45 11.6824V5.40524H79.3818V6.38604H79.4635C79.5943 6.05093 79.8054 5.79075 80.0969 5.60548C80.3885 5.4175 80.7385 5.3235 81.1472 5.3235C81.5613 5.3235 81.906 5.4175 82.1811 5.60548C82.459 5.79075 82.6756 6.05093 82.8309 6.38604H82.8963C83.0571 6.06183 83.2982 5.80437 83.6197 5.61366C83.9411 5.42022 84.3266 5.3235 84.7762 5.3235C85.3374 5.3235 85.7965 5.49923 86.1534 5.85068C86.5103 6.19941 86.6887 6.74294 86.6887 7.48127V11.6824H85.7243V7.48127C85.7243 7.01811 85.5976 6.68709 85.3442 6.48821C85.0909 6.28932 84.7925 6.18988 84.4492 6.18988C84.0079 6.18988 83.666 6.32338 83.4235 6.59037C83.181 6.85464 83.0598 7.18975 83.0598 7.5957V11.6824H82.079V7.38319C82.079 7.02629 81.9632 6.73886 81.7316 6.5209C81.5 6.30022 81.2017 6.18988 80.8366 6.18988C80.586 6.18988 80.3517 6.25663 80.1337 6.39013C79.9185 6.52362 79.7441 6.70889 79.6106 6.94591C79.4798 7.18022 79.4145 7.4513 79.4145 7.75916V11.6824H78.45ZM88.4521 11.6824V5.40524H89.4166V11.6824H88.4521ZM88.9426 4.35905C88.7546 4.35905 88.5925 4.29502 88.4562 4.16697C88.3227 4.03892 88.256 3.88499 88.256 3.70518C88.256 3.52537 88.3227 3.37143 88.4562 3.24338C88.5925 3.11534 88.7546 3.05131 88.9426 3.05131C89.1305 3.05131 89.2913 3.11534 89.4248 3.24338C89.561 3.37143 89.6291 3.52537 89.6291 3.70518C89.6291 3.88499 89.561 4.03892 89.4248 4.16697C89.2913 4.29502 89.1305 4.35905 88.9426 4.35905ZM95.6294 6.81105L94.763 7.05625C94.7085 6.91186 94.6281 6.77155 94.5219 6.63533C94.4184 6.49638 94.2767 6.38195 94.0969 6.29205C93.9171 6.20214 93.6868 6.15719 93.4062 6.15719C93.0221 6.15719 92.702 6.24573 92.4459 6.42282C92.1925 6.59718 92.0658 6.81923 92.0658 7.08895C92.0658 7.3287 92.153 7.51805 92.3273 7.657C92.5017 7.79594 92.7742 7.91173 93.1447 8.00436L94.0764 8.23322C94.6377 8.36944 95.0559 8.57786 95.3311 8.85848C95.6062 9.13637 95.7438 9.49464 95.7438 9.93328C95.7438 10.2929 95.6403 10.6144 95.4332 10.8977C95.2289 11.1811 94.9428 11.4045 94.575 11.5679C94.2072 11.7314 93.7795 11.8131 93.2918 11.8131C92.6516 11.8131 92.1216 11.6742 91.7021 11.3963C91.2825 11.1184 91.0169 10.7125 90.9052 10.1785L91.8206 9.94962C91.9078 10.2875 92.0726 10.5408 92.3151 10.7097C92.5603 10.8787 92.8804 10.9631 93.2755 10.9631C93.725 10.9631 94.0819 10.8678 94.3462 10.6771C94.6132 10.4836 94.7467 10.252 94.7467 9.98232C94.7467 9.76436 94.6704 9.58182 94.5178 9.4347C94.3652 9.28486 94.1309 9.17315 93.8149 9.09959L92.7687 8.85439C92.1938 8.71817 91.7716 8.50702 91.5018 8.22096C91.2348 7.93217 91.1013 7.57118 91.1013 7.13799C91.1013 6.78381 91.2008 6.4705 91.3997 6.19805C91.6013 5.92561 91.8751 5.71174 92.2211 5.55644C92.5698 5.40115 92.9649 5.3235 93.4062 5.3235C94.0274 5.3235 94.5151 5.45973 94.8693 5.73217C95.2262 6.00462 95.4795 6.36424 95.6294 6.81105ZM101.642 6.81105L100.776 7.05625C100.721 6.91186 100.641 6.77155 100.534 6.63533C100.431 6.49638 100.289 6.38195 100.109 6.29205C99.9296 6.20214 99.6994 6.15719 99.4187 6.15719C99.0346 6.15719 98.7145 6.24573 98.4584 6.42282C98.205 6.59718 98.0783 6.81923 98.0783 7.08895C98.0783 7.3287 98.1655 7.51805 98.3399 7.657C98.5142 7.79594 98.7867 7.91173 99.1572 8.00436L100.089 8.23322C100.65 8.36944 101.068 8.57786 101.344 8.85848C101.619 9.13637 101.756 9.49464 101.756 9.93328C101.756 10.2929 101.653 10.6144 101.446 10.8977C101.241 11.1811 100.955 11.4045 100.588 11.5679C100.22 11.7314 99.792 11.8131 99.3043 11.8131C98.6641 11.8131 98.1342 11.6742 97.7146 11.3963C97.295 11.1184 97.0294 10.7125 96.9177 10.1785L97.8331 9.94962C97.9203 10.2875 98.0851 10.5408 98.3276 10.7097C98.5728 10.8787 98.8929 10.9631 99.288 10.9631C99.7375 10.9631 100.094 10.8678 100.359 10.6771C100.626 10.4836 100.759 10.252 100.759 9.98232C100.759 9.76436 100.683 9.58182 100.53 9.4347C100.378 9.28486 100.143 9.17315 99.8274 9.09959L98.7812 8.85439C98.2064 8.71817 97.7841 8.50702 97.5144 8.22096C97.2474 7.93217 97.1139 7.57118 97.1139 7.13799C97.1139 6.78381 97.2133 6.4705 97.4122 6.19805C97.6138 5.92561 97.8876 5.71174 98.2336 5.55644C98.5823 5.40115 98.9774 5.3235 99.4187 5.3235C100.04 5.3235 100.528 5.45973 100.882 5.73217C101.239 6.00462 101.492 6.36424 101.642 6.81105ZM103.208 11.6824V5.40524H104.173V11.6824H103.208ZM103.699 4.35905C103.511 4.35905 103.348 4.29502 103.212 4.16697C103.079 4.03892 103.012 3.88499 103.012 3.70518C103.012 3.52537 103.079 3.37143 103.212 3.24338C103.348 3.11534 103.511 3.05131 103.699 3.05131C103.887 3.05131 104.047 3.11534 104.181 3.24338C104.317 3.37143 104.385 3.52537 104.385 3.70518C104.385 3.88499 104.317 4.03892 104.181 4.16697C104.047 4.29502 103.887 4.35905 103.699 4.35905ZM108.489 11.8131C107.922 11.8131 107.425 11.6783 106.997 11.4086C106.572 11.1388 106.24 10.7615 106 10.2766C105.763 9.7916 105.645 9.22492 105.645 8.5765C105.645 7.92263 105.763 7.35186 106 6.86418C106.24 6.3765 106.572 5.9978 106.997 5.72808C107.425 5.45836 107.922 5.3235 108.489 5.3235C109.056 5.3235 109.552 5.45836 109.977 5.72808C110.404 5.9978 110.737 6.3765 110.974 6.86418C111.214 7.35186 111.333 7.92263 111.333 8.5765C111.333 9.22492 111.214 9.7916 110.974 10.2766C110.737 10.7615 110.404 11.1388 109.977 11.4086C109.552 11.6783 109.056 11.8131 108.489 11.8131ZM108.489 10.9468C108.92 10.9468 109.274 10.8364 109.552 10.6158C109.83 10.3951 110.035 10.1049 110.169 9.74529C110.302 9.38566 110.369 8.99606 110.369 8.5765C110.369 8.15693 110.302 7.76597 110.169 7.40362C110.035 7.04127 109.83 6.74839 109.552 6.52499C109.274 6.30158 108.92 6.18988 108.489 6.18988C108.059 6.18988 107.704 6.30158 107.427 6.52499C107.149 6.74839 106.943 7.04127 106.81 7.40362C106.676 7.76597 106.609 8.15693 106.609 8.5765C106.609 8.99606 106.676 9.38566 106.81 9.74529C106.943 10.1049 107.149 10.3951 107.427 10.6158C107.704 10.8364 108.059 10.9468 108.489 10.9468ZM113.77 7.90628V11.6824H112.806V5.40524H113.737V6.38604H113.819C113.966 6.06728 114.19 5.81118 114.489 5.61774C114.789 5.42158 115.176 5.3235 115.65 5.3235C116.075 5.3235 116.447 5.41069 116.766 5.58505C117.084 5.75669 117.332 6.01824 117.509 6.36969C117.687 6.71842 117.775 7.15978 117.775 7.69378V11.6824H116.811V7.75916C116.811 7.26604 116.683 6.88189 116.426 6.60672C116.17 6.32883 115.819 6.18988 115.372 6.18988C115.064 6.18988 114.789 6.25663 114.547 6.39013C114.307 6.52362 114.118 6.71842 113.979 6.97452C113.84 7.23062 113.77 7.54121 113.77 7.90628Z" fill="#1E1E20"/>
<path d="M126.736 12.6335V3.12264H127.345V12.6335H126.736ZM128.493 6.16536C128.458 5.8409 128.312 5.58827 128.054 5.40747C127.799 5.22666 127.467 5.13626 127.059 5.13626C126.772 5.13626 126.525 5.1796 126.319 5.26629C126.114 5.35298 125.957 5.47062 125.848 5.61923C125.739 5.76784 125.683 5.9375 125.68 6.12821C125.68 6.28672 125.716 6.42418 125.788 6.54059C125.863 6.657 125.963 6.75607 126.089 6.8378C126.215 6.91706 126.355 6.98393 126.509 7.03842C126.663 7.09291 126.817 7.13873 126.973 7.17588L127.687 7.35421C127.974 7.42108 128.25 7.51149 128.515 7.62542C128.783 7.73935 129.022 7.883 129.232 8.05638C129.445 8.22975 129.614 8.43904 129.737 8.68424C129.861 8.92944 129.923 9.21674 129.923 9.54616C129.923 9.99197 129.809 10.3845 129.581 10.7239C129.354 11.0607 129.024 11.3245 128.593 11.5152C128.165 11.7034 127.646 11.7975 127.037 11.7975C126.445 11.7975 125.931 11.7059 125.495 11.5226C125.061 11.3393 124.722 11.0718 124.477 10.7201C124.234 10.3684 124.103 9.93996 124.083 9.4347H125.439C125.459 9.69972 125.541 9.92015 125.684 10.096C125.828 10.2719 126.015 10.4031 126.245 10.4898C126.478 10.5765 126.738 10.6198 127.025 10.6198C127.325 10.6198 127.588 10.5753 127.813 10.4861C128.041 10.3945 128.219 10.2681 128.348 10.1071C128.477 9.94368 128.542 9.75297 128.545 9.53501C128.542 9.33687 128.484 9.1734 128.37 9.04461C128.256 8.91334 128.097 8.80436 127.891 8.71767C127.688 8.62851 127.45 8.54925 127.178 8.4799L126.312 8.25699C125.685 8.096 125.19 7.85204 124.826 7.52511C124.464 7.1957 124.284 6.75855 124.284 6.21366C124.284 5.76536 124.405 5.37279 124.648 5.03595C124.893 4.69911 125.226 4.43781 125.647 4.25205C126.068 4.06382 126.545 3.9697 127.077 3.9697C127.617 3.9697 128.09 4.06382 128.497 4.25205C128.905 4.43781 129.226 4.69663 129.459 5.02852C129.692 5.35793 129.812 5.73688 129.819 6.16536H128.493ZM133.723 11.7864C133.228 11.7864 132.784 11.6935 132.393 11.5078C132.002 11.3195 131.691 11.0619 131.46 10.735C131.232 10.4081 131.111 10.0341 131.096 9.61303H132.434C132.458 9.9251 132.593 10.1802 132.839 10.3784C133.084 10.574 133.379 10.6718 133.723 10.6718C133.993 10.6718 134.233 10.6099 134.444 10.4861C134.654 10.3623 134.82 10.1901 134.941 9.96968C135.063 9.74925 135.122 9.49786 135.12 9.21551C135.122 8.9282 135.062 8.67309 134.938 8.45018C134.814 8.22727 134.644 8.05266 134.429 7.92634C134.213 7.79755 133.966 7.73316 133.686 7.73316C133.458 7.73068 133.234 7.77279 133.013 7.85947C132.793 7.94616 132.618 8.06009 132.489 8.20127L131.245 7.99693L131.642 4.07372H136.056V5.22542H132.783L132.564 7.24276H132.608C132.75 7.07681 132.949 6.93935 133.206 6.83037C133.464 6.71892 133.746 6.66319 134.054 6.66319C134.514 6.66319 134.925 6.77217 135.287 6.99012C135.649 7.2056 135.933 7.50282 136.141 7.88176C136.349 8.26071 136.454 8.69414 136.454 9.18207C136.454 9.68485 136.337 10.1332 136.104 10.527C135.874 10.9183 135.553 11.2266 135.142 11.452C134.733 11.6749 134.26 11.7864 133.723 11.7864ZM140.51 11.8273C139.899 11.8273 139.374 11.6725 138.935 11.3629C138.499 11.0508 138.164 10.6013 137.928 10.0143C137.696 9.42479 137.579 8.7152 137.579 7.88548C137.582 7.05576 137.699 6.34988 137.932 5.76784C138.167 5.18332 138.503 4.7375 138.939 4.43038C139.377 4.12326 139.901 3.9697 140.51 3.9697C141.12 3.9697 141.644 4.12326 142.082 4.43038C142.52 4.7375 142.856 5.18332 143.089 5.76784C143.324 6.35235 143.442 7.05824 143.442 7.88548C143.442 8.71767 143.324 9.42851 143.089 10.018C142.856 10.605 142.52 11.0533 142.082 11.3629C141.646 11.6725 141.122 11.8273 140.51 11.8273ZM140.51 10.6644C140.986 10.6644 141.361 10.4304 141.636 9.96225C141.914 9.49167 142.052 8.79941 142.052 7.88548C142.052 7.28115 141.989 6.77341 141.863 6.36226C141.736 5.95112 141.558 5.64152 141.328 5.43347C141.097 5.22295 140.825 5.11768 140.51 5.11768C140.037 5.11768 139.663 5.35298 139.388 5.82356C139.114 6.29167 138.975 6.97898 138.972 7.88548C138.97 8.49229 139.031 9.0025 139.154 9.41612C139.281 9.82975 139.459 10.1418 139.689 10.3523C139.92 10.5604 140.193 10.6644 140.51 10.6644Z" fill="#C256C7"/>
<path d="M18.3431 23.9704C18.3431 23.0342 18.4644 22.1735 18.7071 21.3884C18.9524 20.6008 19.3016 19.8763 19.7548 19.215H20.5276C20.3493 19.4602 20.1821 19.7624 20.026 20.1215C19.8725 20.4782 19.7375 20.8707 19.6211 21.2992C19.5047 21.7252 19.413 22.1661 19.3462 22.6218C19.2818 23.0775 19.2496 23.5271 19.2496 23.9704C19.2496 24.5599 19.3065 25.158 19.4205 25.7648C19.5344 26.3717 19.688 26.9351 19.8811 27.4552C20.0743 27.9754 20.2898 28.3989 20.5276 28.7258H19.7548C19.3016 28.0645 18.9524 27.3413 18.7071 26.5562C18.4644 25.7686 18.3431 24.9066 18.3431 23.9704ZM26.1012 22.0683C26.0567 21.6918 25.8759 21.3995 25.5588 21.1915C25.2418 20.9834 24.853 20.8794 24.3923 20.8794C24.0554 20.8794 23.7607 20.9339 23.5081 21.0429C23.2579 21.1519 23.0622 21.3017 22.9211 21.4924C22.7824 21.6831 22.713 21.8998 22.713 22.1426C22.713 22.3457 22.7613 22.5203 22.8579 22.6664C22.957 22.8101 23.0833 22.9302 23.2369 23.0268C23.3904 23.1209 23.5514 23.1989 23.7198 23.2608C23.8883 23.3203 24.0431 23.3686 24.1842 23.4057L24.957 23.6138C25.1551 23.6658 25.3756 23.7376 25.6183 23.8292C25.8635 23.9209 26.0975 24.046 26.3204 24.2045C26.5458 24.3605 26.7316 24.5611 26.8777 24.8063C27.0238 25.0515 27.0969 25.3525 27.0969 25.7091C27.0969 26.1203 26.9892 26.4918 26.7737 26.8237C26.5607 27.1556 26.2486 27.4193 25.8375 27.615C25.4288 27.8107 24.9322 27.9085 24.3477 27.9085C23.8028 27.9085 23.331 27.8206 22.9322 27.6447C22.5359 27.4689 22.2239 27.2237 21.996 26.9091C21.7706 26.5946 21.6431 26.2292 21.6133 25.8131H22.5644C22.5892 26.1005 22.6858 26.3382 22.8542 26.5265C23.0251 26.7122 23.2406 26.8509 23.5006 26.9426C23.7632 27.0317 24.0455 27.0763 24.3477 27.0763C24.6994 27.0763 25.0152 27.0193 25.2951 26.9054C25.5749 26.789 25.7966 26.628 25.9601 26.4224C26.1235 26.2144 26.2053 25.9717 26.2053 25.6943C26.2053 25.4416 26.1347 25.2361 25.9935 25.0775C25.8523 24.919 25.6666 24.7902 25.4362 24.6912C25.2059 24.5921 24.957 24.5054 24.6895 24.4311L23.7533 24.1636C23.1588 23.9927 22.6883 23.7488 22.3415 23.4317C21.9948 23.1147 21.8214 22.6998 21.8214 22.1871C21.8214 21.7611 21.9366 21.3896 22.1669 21.0726C22.3997 20.7531 22.7118 20.5054 23.1031 20.3296C23.4969 20.1512 23.9365 20.0621 24.422 20.0621C24.9124 20.0621 25.3483 20.15 25.7297 20.3259C26.1112 20.4992 26.4133 20.737 26.6362 21.0392C26.8616 21.3413 26.9805 21.6844 26.9929 22.0683H26.1012ZM30.9746 22.0683V22.8113H28.0173V22.0683H30.9746ZM28.8793 20.7011H29.756V26.1401C29.756 26.3878 29.792 26.5735 29.8638 26.6974C29.9381 26.8187 30.0322 26.9004 30.1461 26.9426C30.2625 26.9822 30.3851 27.002 30.5139 27.002C30.6105 27.002 30.6898 26.997 30.7517 26.9871C30.8136 26.9748 30.8632 26.9648 30.9003 26.9574L31.0786 27.745C31.0192 27.7673 30.9362 27.7896 30.8297 27.8119C30.7232 27.8367 30.5882 27.8491 30.4248 27.8491C30.1771 27.8491 29.9344 27.7958 29.6966 27.6893C29.4613 27.5828 29.2656 27.4206 29.1096 27.2026C28.956 26.9847 28.8793 26.7097 28.8793 26.3778V20.7011ZM33.9727 27.9085C33.6111 27.9085 33.283 27.8404 32.9882 27.7042C32.6935 27.5655 32.4594 27.3661 32.2861 27.106C32.1127 26.8435 32.026 26.5265 32.026 26.1549C32.026 25.828 32.0904 25.563 32.2192 25.3599C32.348 25.1543 32.5201 24.9933 32.7356 24.8769C32.9511 24.7605 33.1888 24.6738 33.4489 24.6169C33.7114 24.5574 33.9752 24.5104 34.2402 24.4757C34.587 24.4311 34.8681 24.3977 35.0836 24.3754C35.3015 24.3506 35.46 24.3097 35.5591 24.2528C35.6607 24.1958 35.7114 24.0967 35.7114 23.9556V23.9258C35.7114 23.5593 35.6111 23.2745 35.4105 23.0714C35.2124 22.8683 34.9114 22.7667 34.5077 22.7667C34.0892 22.7667 33.761 22.8584 33.5232 23.0416C33.2854 23.2249 33.1183 23.4206 33.0217 23.6286L32.1895 23.3314C32.3381 22.9847 32.5362 22.7147 32.7839 22.5215C33.034 22.3258 33.3065 22.1896 33.6012 22.1128C33.8984 22.0336 34.1907 21.994 34.478 21.994C34.6613 21.994 34.8718 22.0162 35.1096 22.0608C35.3498 22.1029 35.5814 22.1909 35.8043 22.3246C36.0297 22.4584 36.2167 22.6602 36.3653 22.9302C36.5139 23.2001 36.5882 23.5618 36.5882 24.015V27.7747H35.7114V27.002H35.6669C35.6074 27.1258 35.5083 27.2583 35.3696 27.3995C35.2309 27.5407 35.0464 27.6608 34.8161 27.7599C34.5857 27.859 34.3046 27.9085 33.9727 27.9085ZM34.1065 27.1209C34.4532 27.1209 34.7455 27.0528 34.9833 26.9165C35.2235 26.7803 35.4043 26.6045 35.5257 26.389C35.6495 26.1735 35.7114 25.9469 35.7114 25.7091V24.9066C35.6743 24.9512 35.5926 24.9921 35.4662 25.0292C35.3424 25.0639 35.1988 25.0949 35.0353 25.1221C34.8743 25.1469 34.717 25.1692 34.5635 25.189C34.4124 25.2063 34.2898 25.2212 34.1957 25.2336C33.9678 25.2633 33.7548 25.3116 33.5566 25.3785C33.361 25.4429 33.2025 25.5407 33.0811 25.672C32.9622 25.8008 32.9028 25.9766 32.9028 26.1995C32.9028 26.5042 33.0155 26.7345 33.2409 26.8905C33.4687 27.0441 33.7573 27.1209 34.1065 27.1209ZM39.0653 24.3419V27.7747H38.1885V22.0683H39.0356V22.9599H39.1099C39.2436 22.6701 39.4467 22.4373 39.7192 22.2615C39.9916 22.0831 40.3433 21.994 40.7743 21.994C41.1607 21.994 41.4987 22.0732 41.7885 22.2317C42.0783 22.3878 42.3037 22.6255 42.4647 22.945C42.6257 23.2621 42.7062 23.6633 42.7062 24.1488V27.7747H41.8294V24.2082C41.8294 23.7599 41.713 23.4107 41.4802 23.1605C41.2473 22.9079 40.9278 22.7816 40.5216 22.7816C40.2418 22.7816 39.9916 22.8423 39.7712 22.9636C39.5532 23.085 39.3811 23.2621 39.2548 23.4949C39.1285 23.7277 39.0653 24.0101 39.0653 24.3419ZM46.4631 27.8936C45.9876 27.8936 45.5678 27.7735 45.2037 27.5333C44.8396 27.2905 44.5548 26.9487 44.3492 26.5079C44.1436 26.0645 44.0408 25.5407 44.0408 24.9364C44.0408 24.337 44.1436 23.8169 44.3492 23.376C44.5548 22.9351 44.8408 22.5946 45.2074 22.3543C45.574 22.1141 45.9975 21.994 46.478 21.994C46.8495 21.994 47.143 22.0559 47.3585 22.1797C47.5764 22.3011 47.7424 22.4398 47.8563 22.5958C47.9727 22.7494 48.0631 22.8757 48.1275 22.9748H48.2018V20.1661H49.0786V27.7747H48.2315V26.898H48.1275C48.0631 27.002 47.9715 27.1333 47.8526 27.2918C47.7337 27.4478 47.564 27.5878 47.3436 27.7116C47.1232 27.833 46.8297 27.8936 46.4631 27.8936ZM46.582 27.106C46.9337 27.106 47.2309 27.0144 47.4736 26.8311C47.7164 26.6453 47.9009 26.389 48.0272 26.0621C48.1535 25.7326 48.2167 25.3525 48.2167 24.9215C48.2167 24.4955 48.1548 24.1227 48.0309 23.8032C47.9071 23.4813 47.7238 23.2311 47.4811 23.0528C47.2383 22.872 46.9387 22.7816 46.582 22.7816C46.2105 22.7816 45.9009 22.8769 45.6532 23.0676C45.408 23.2559 45.2235 23.5122 45.0997 23.8367C44.9783 24.1587 44.9176 24.5203 44.9176 24.9215C44.9176 25.3277 44.9795 25.6967 45.1034 26.0286C45.2297 26.358 45.4154 26.6206 45.6606 26.8162C45.9083 27.0094 46.2154 27.106 46.582 27.106ZM50.8061 27.7747V22.0683H51.6829V27.7747H50.8061ZM51.252 21.1172C51.0811 21.1172 50.9337 21.059 50.8099 20.9426C50.6885 20.8262 50.6278 20.6862 50.6278 20.5228C50.6278 20.3593 50.6885 20.2194 50.8099 20.1029C50.9337 19.9865 51.0811 19.9283 51.252 19.9283C51.4229 19.9283 51.569 19.9865 51.6903 20.1029C51.8142 20.2194 51.8761 20.3593 51.8761 20.5228C51.8761 20.6862 51.8142 20.8262 51.6903 20.9426C51.569 21.059 51.4229 21.1172 51.252 21.1172ZM54.1656 24.3419V27.7747H53.2888V22.0683H54.1359V22.9599H54.2102C54.3439 22.6701 54.547 22.4373 54.8194 22.2615C55.0919 22.0831 55.4436 21.994 55.8746 21.994C56.2609 21.994 56.599 22.0732 56.8888 22.2317C57.1786 22.3878 57.404 22.6255 57.5649 22.945C57.7259 23.2621 57.8064 23.6633 57.8064 24.1488V27.7747H56.9297V24.2082C56.9297 23.7599 56.8132 23.4107 56.5804 23.1605C56.3476 22.9079 56.0281 22.7816 55.6219 22.7816C55.342 22.7816 55.0919 22.8423 54.8715 22.9636C54.6535 23.085 54.4814 23.2621 54.3551 23.4949C54.2287 23.7277 54.1656 24.0101 54.1656 24.3419ZM61.712 30.0336C61.2885 30.0336 60.9244 29.9791 60.6197 29.8701C60.3151 29.7636 60.0612 29.6224 59.8581 29.4466C59.6575 29.2732 59.4978 29.0874 59.3789 28.8893L60.0773 28.3989C60.1566 28.5029 60.2569 28.6218 60.3783 28.7556C60.4996 28.8918 60.6656 29.0094 60.8761 29.1085C61.0891 29.21 61.3677 29.2608 61.712 29.2608C62.1727 29.2608 62.5529 29.1494 62.8526 28.9264C63.1522 28.7035 63.3021 28.3543 63.3021 27.8788V26.7196H63.2278C63.1634 26.8237 63.0717 26.9525 62.9529 27.106C62.8365 27.2571 62.668 27.3921 62.4476 27.511C62.2296 27.6274 61.9349 27.6856 61.5634 27.6856C61.1027 27.6856 60.6891 27.5766 60.3225 27.3587C59.9584 27.1407 59.6699 26.8237 59.4569 26.4076C59.2464 25.9915 59.1411 25.4862 59.1411 24.8918C59.1411 24.3073 59.2439 23.7983 59.4495 23.3649C59.655 22.9289 59.9411 22.5921 60.3077 22.3543C60.6742 22.1141 61.0978 21.994 61.5783 21.994C61.9498 21.994 62.2445 22.0559 62.4625 22.1797C62.6829 22.3011 62.8513 22.4398 62.9677 22.5958C63.0866 22.7494 63.1783 22.8757 63.2426 22.9748H63.3318V22.0683H64.1789V27.9382C64.1789 28.4286 64.0674 28.8274 63.8445 29.1345C63.6241 29.4441 63.3269 29.6707 62.9529 29.8144C62.5813 29.9605 62.1677 30.0336 61.712 30.0336ZM61.6823 26.898C62.034 26.898 62.3312 26.8175 62.5739 26.6565C62.8166 26.4955 63.0012 26.2639 63.1275 25.9618C63.2538 25.6596 63.3169 25.298 63.3169 24.8769C63.3169 24.4658 63.255 24.1029 63.1312 23.7884C63.0074 23.4738 62.8241 23.2274 62.5813 23.0491C62.3386 22.8707 62.0389 22.7816 61.6823 22.7816C61.3108 22.7816 61.0012 22.8757 60.7535 23.0639C60.5083 23.2522 60.3238 23.5048 60.1999 23.8218C60.0786 24.1388 60.0179 24.4905 60.0179 24.8769C60.0179 25.2732 60.0798 25.6237 60.2036 25.9283C60.33 26.2305 60.5157 26.4683 60.7609 26.6416C61.0086 26.8125 61.3157 26.898 61.6823 26.898ZM67.6563 24.5649C67.6563 25.5011 67.5337 26.363 67.2885 27.1506C67.0457 27.9357 66.6977 28.659 66.2445 29.3203H65.4717C65.6501 29.0751 65.816 28.7729 65.9696 28.4138C66.1256 28.0571 66.2618 27.6658 66.3782 27.2398C66.4946 26.8113 66.585 26.3692 66.6494 25.9135C66.7163 25.4553 66.7498 25.0057 66.7498 24.5649C66.7498 23.9754 66.6928 23.3772 66.5789 22.7704C66.4649 22.1636 66.3114 21.6002 66.1182 21.08C65.925 20.5599 65.7095 20.1364 65.4717 19.8094H66.2445C66.6977 20.4707 67.0457 21.1952 67.2885 21.9828C67.5337 22.768 67.6563 23.6286 67.6563 24.5649Z" fill="#777779"/>
</svg>
