<svg width="173" height="35" viewBox="0 0 173 35" fill="none" xmlns="http://www.w3.org/2000/svg">
<rect width="172.062" height="33.6714" transform="translate(0.199219 0.559784)" fill="white"/>
<rect x="0.199219" y="0.559784" width="10.4619" height="13.6005" rx="2.18902" fill="#707DBF"/>
<path d="M23.9634 5.80574C23.8735 5.53057 23.7549 5.28401 23.6078 5.06605C23.4634 4.84537 23.2904 4.65739 23.0888 4.50209C22.8899 4.3468 22.6638 4.22828 22.4104 4.14655C22.157 4.06482 21.8792 4.02395 21.5767 4.02395C21.0809 4.02395 20.63 4.152 20.2241 4.4081C19.8181 4.6642 19.4953 5.04153 19.2555 5.54011C19.0158 6.03868 18.8959 6.65032 18.8959 7.37503C18.8959 8.09973 19.0171 8.71137 19.2596 9.20994C19.5021 9.70852 19.8304 10.0859 20.2445 10.342C20.6586 10.5981 21.1245 10.7261 21.6421 10.7261C22.1216 10.7261 22.5439 10.6239 22.909 10.4196C23.2768 10.2125 23.5629 9.92103 23.7672 9.54505C23.9743 9.16635 24.0778 8.72091 24.0778 8.20871L24.3884 8.2741H21.871V7.37503H25.0586V8.2741C25.0586 8.96338 24.9115 9.56276 24.6172 10.0722C24.3257 10.5817 23.9225 10.9768 23.4076 11.2574C22.8954 11.5353 22.3069 11.6742 21.6421 11.6742C20.9011 11.6742 20.2499 11.4998 19.6887 11.1511C19.1302 10.8024 18.6943 10.3065 18.381 9.66357C18.0704 9.0206 17.9151 8.25775 17.9151 7.37503C17.9151 6.71298 18.0036 6.11769 18.1807 5.58915C18.3605 5.05788 18.6139 4.60562 18.9408 4.23237C19.2678 3.85912 19.6546 3.57305 20.1014 3.37417C20.5483 3.17528 21.04 3.07584 21.5767 3.07584C22.0181 3.07584 22.4295 3.14259 22.8109 3.27609C23.1951 3.40686 23.537 3.59349 23.8367 3.83596C24.1391 4.07572 24.3911 4.36314 24.5927 4.69825C24.7943 5.03064 24.9333 5.3998 25.0095 5.80574H23.9634ZM29.2137 11.6906C28.647 11.6906 28.1498 11.5557 27.7221 11.286C27.2971 11.0163 26.9647 10.6389 26.7249 10.154C26.4879 9.66901 26.3694 9.10233 26.3694 8.45391C26.3694 7.80004 26.4879 7.22927 26.7249 6.74159C26.9647 6.25391 27.2971 5.87522 27.7221 5.6055C28.1498 5.33577 28.647 5.20091 29.2137 5.20091C29.7804 5.20091 30.2763 5.33577 30.7013 5.6055C31.129 5.87522 31.4614 6.25391 31.6984 6.74159C31.9382 7.22927 32.058 7.80004 32.058 8.45391C32.058 9.10233 31.9382 9.66901 31.6984 10.154C31.4614 10.6389 31.129 11.0163 30.7013 11.286C30.2763 11.5557 29.7804 11.6906 29.2137 11.6906ZM29.2137 10.8242C29.6442 10.8242 29.9984 10.7138 30.2763 10.4932C30.5541 10.2725 30.7598 9.98233 30.8933 9.6227C31.0268 9.26307 31.0936 8.87347 31.0936 8.45391C31.0936 8.03434 31.0268 7.64338 30.8933 7.28103C30.7598 6.91868 30.5541 6.6258 30.2763 6.4024C29.9984 6.17899 29.6442 6.06729 29.2137 6.06729C28.7833 6.06729 28.4291 6.17899 28.1512 6.4024C27.8733 6.6258 27.6676 6.91868 27.5341 7.28103C27.4006 7.64338 27.3338 8.03434 27.3338 8.45391C27.3338 8.87347 27.4006 9.26307 27.5341 9.6227C27.6676 9.98233 27.8733 10.2725 28.1512 10.4932C28.4291 10.7138 28.7833 10.8242 29.2137 10.8242ZM34.4947 3.19027V11.5598H33.5303V3.19027H34.4947ZM38.6315 11.6906C38.1084 11.6906 37.6466 11.5584 37.2461 11.2941C36.8456 11.0272 36.5323 10.6512 36.3061 10.1662C36.08 9.67855 35.967 9.10233 35.967 8.43756C35.967 7.77825 36.08 7.20611 36.3061 6.72116C36.5323 6.23621 36.847 5.86159 37.2502 5.59732C37.6534 5.33305 38.1193 5.20091 38.6478 5.20091C39.0565 5.20091 39.3793 5.26903 39.6164 5.40525C39.8561 5.53875 40.0386 5.69132 40.164 5.86296C40.292 6.03187 40.3915 6.17082 40.4623 6.2798H40.544V3.19027H41.5085V11.5598H40.5767V10.5953H40.4623C40.3915 10.7098 40.2907 10.8542 40.1599 11.0285C40.0291 11.2002 39.8425 11.3541 39.6 11.4903C39.3575 11.6238 39.0347 11.6906 38.6315 11.6906ZM38.7622 10.8242C39.1491 10.8242 39.476 10.7234 39.743 10.5218C40.01 10.3174 40.213 10.0355 40.352 9.67583C40.4909 9.31347 40.5604 8.89527 40.5604 8.42122C40.5604 7.95261 40.4923 7.54258 40.356 7.19113C40.2198 6.83695 40.0182 6.56178 39.7512 6.36562C39.4842 6.16673 39.1546 6.06729 38.7622 6.06729C38.3536 6.06729 38.013 6.17218 37.7406 6.38196C37.4709 6.58902 37.2679 6.871 37.1317 7.22791C36.9982 7.58208 36.9314 7.97985 36.9314 8.42122C36.9314 8.86803 36.9995 9.27397 37.1357 9.63905C37.2747 10.0014 37.479 10.2902 37.7487 10.5054C38.0212 10.7179 38.359 10.8242 38.7622 10.8242Z" fill="#1E1E20"/>
<path d="M50.7356 12.5109V3.00005H51.3449V12.5109H50.7356ZM52.4929 6.04277C52.4582 5.71831 52.3121 5.46568 52.0545 5.28488C51.7994 5.10407 51.4675 5.01367 51.0588 5.01367C50.7715 5.01367 50.5251 5.05701 50.3195 5.1437C50.1139 5.23039 49.9566 5.34803 49.8477 5.49664C49.7387 5.64525 49.683 5.81491 49.6805 6.00562C49.6805 6.16413 49.7164 6.30159 49.7882 6.418C49.8625 6.53441 49.9628 6.63348 50.0891 6.71521C50.2155 6.79447 50.3554 6.86134 50.509 6.91583C50.6625 6.97032 50.8173 7.01614 50.9734 7.05329L51.6867 7.23162C51.974 7.29849 52.2501 7.3889 52.5151 7.50283C52.7826 7.61676 53.0217 7.76041 53.2322 7.93379C53.4452 8.10716 53.6136 8.31645 53.7374 8.56165C53.8613 8.80685 53.9232 9.09416 53.9232 9.42357C53.9232 9.86939 53.8093 10.262 53.5814 10.6013C53.3535 10.9381 53.0241 11.2019 52.5932 11.3926C52.1647 11.5808 51.6458 11.675 51.0365 11.675C50.4446 11.675 49.9306 11.5833 49.4947 11.4C49.0613 11.2168 48.722 10.9493 48.4768 10.5976C48.234 10.2459 48.1028 9.81737 48.083 9.31211H49.439C49.4588 9.57713 49.5405 9.79756 49.6842 9.97341C49.8279 10.1493 50.0148 10.2805 50.2452 10.3672C50.478 10.4539 50.7381 10.4972 51.0254 10.4972C51.3251 10.4972 51.5876 10.4527 51.813 10.3635C52.0408 10.2719 52.2192 10.1455 52.348 9.98456C52.4768 9.82109 52.5424 9.63038 52.5449 9.41242C52.5424 9.21428 52.4842 9.05081 52.3703 8.92202C52.2563 8.79075 52.0966 8.68177 51.891 8.59509C51.6879 8.50592 51.4501 8.42666 51.1777 8.35731L50.3121 8.13441C49.6854 7.97341 49.1901 7.72945 48.826 7.40252C48.4644 7.07311 48.2836 6.63596 48.2836 6.09107C48.2836 5.64277 48.4049 5.2502 48.6477 4.91336C48.8929 4.57652 49.226 4.31522 49.647 4.12946C50.0681 3.94123 50.5449 3.84711 51.0774 3.84711C51.6173 3.84711 52.0904 3.94123 52.4966 4.12946C52.9052 4.31522 53.226 4.57404 53.4588 4.90593C53.6916 5.23534 53.8117 5.61429 53.8192 6.04277H52.4929ZM57.7823 11.6638C57.23 11.6638 56.7396 11.5709 56.3111 11.3852C55.8851 11.1994 55.5507 10.9455 55.308 10.6236C55.0678 10.2991 54.9489 9.9313 54.9514 9.52016C54.9489 9.20066 55.0182 8.90716 55.1594 8.63967C55.3006 8.37218 55.4913 8.14927 55.7316 7.97094C55.9743 7.79013 56.2442 7.67496 56.5415 7.62543V7.57342C56.1501 7.48673 55.8331 7.28735 55.5904 6.97527C55.3501 6.66072 55.2312 6.29788 55.2337 5.88673C55.2312 5.4954 55.3402 5.14618 55.5607 4.83906C55.7811 4.53194 56.0833 4.29045 56.4672 4.1146C56.8511 3.93627 57.2894 3.84711 57.7823 3.84711C58.2702 3.84711 58.7049 3.93627 59.0863 4.1146C59.4702 4.29045 59.7724 4.53194 59.9928 4.83906C60.2158 5.14618 60.3272 5.4954 60.3272 5.88673C60.3272 6.29788 60.2046 6.66072 59.9594 6.97527C59.7167 7.28735 59.4034 7.48673 59.0195 7.57342V7.62543C59.3167 7.67496 59.5842 7.79013 59.8219 7.97094C60.0622 8.14927 60.2529 8.37218 60.3941 8.63967C60.5377 8.90716 60.6096 9.20066 60.6096 9.52016C60.6096 9.9313 60.4882 10.2991 60.2455 10.6236C60.0027 10.9455 59.6684 11.1994 59.2424 11.3852C58.8189 11.5709 58.3322 11.6638 57.7823 11.6638ZM57.7823 10.6013C58.0671 10.6013 58.3148 10.553 58.5254 10.4564C58.7359 10.3573 58.8993 10.2186 59.0158 10.0403C59.1322 9.86196 59.1916 9.65638 59.1941 9.42357C59.1916 9.18084 59.1284 8.9666 59.0046 8.78084C58.8832 8.59261 58.7161 8.44524 58.5031 8.33874C58.2925 8.23224 58.0523 8.17899 57.7823 8.17899C57.5099 8.17899 57.2672 8.23224 57.0541 8.33874C56.8411 8.44524 56.6727 8.59261 56.5489 8.78084C56.4275 8.9666 56.3681 9.18084 56.3706 9.42357C56.3681 9.65638 56.425 9.86196 56.5415 10.0403C56.6579 10.2161 56.8213 10.3536 57.0319 10.4527C57.2449 10.5517 57.495 10.6013 57.7823 10.6013ZM57.7823 7.13503C58.0151 7.13503 58.2207 7.08797 58.399 6.99385C58.5798 6.89973 58.7223 6.76846 58.8263 6.60004C58.9303 6.43162 58.9836 6.2372 58.986 6.01676C58.9836 5.79881 58.9315 5.6081 58.83 5.44463C58.7284 5.27868 58.5873 5.15113 58.4065 5.06197C58.2257 4.97033 58.0176 4.92451 57.7823 4.92451C57.5421 4.92451 57.3303 4.97033 57.147 5.06197C56.9662 5.15113 56.825 5.27868 56.7235 5.44463C56.6244 5.6081 56.5761 5.79881 56.5786 6.01676C56.5761 6.2372 56.6257 6.43162 56.7272 6.60004C56.8312 6.76599 56.9737 6.89726 57.1545 6.99385C57.3377 7.08797 57.547 7.13503 57.7823 7.13503ZM64.4761 11.6638C63.9808 11.6638 63.5374 11.5709 63.1461 11.3852C62.7548 11.1969 62.4439 10.9394 62.2136 10.6124C61.9857 10.2855 61.8644 9.91149 61.8495 9.49044H63.187C63.2117 9.80251 63.3467 10.0576 63.5919 10.2558C63.8371 10.4514 64.1318 10.5493 64.4761 10.5493C64.7461 10.5493 64.9863 10.4873 65.1969 10.3635C65.4074 10.2397 65.5733 10.0675 65.6947 9.84709C65.816 9.62666 65.8755 9.37527 65.873 9.09292C65.8755 8.80561 65.8148 8.5505 65.691 8.32759C65.5671 8.10468 65.3975 7.93007 65.182 7.80376C64.9665 7.67496 64.7188 7.61057 64.439 7.61057C64.2111 7.60809 63.9869 7.6502 63.7665 7.73688C63.5461 7.82357 63.3715 7.9375 63.2427 8.07868L61.9981 7.87434L62.3956 3.95113H66.8092V5.10283H63.5362L63.317 7.12017H63.3616C63.5027 6.95422 63.7021 6.81676 63.9597 6.70778C64.2173 6.59633 64.4996 6.5406 64.8068 6.5406C65.2674 6.5406 65.6786 6.64958 66.0402 6.86754C66.4018 7.08301 66.6866 7.38023 66.8947 7.75917C67.1027 8.13812 67.2068 8.57156 67.2068 9.05948C67.2068 9.56227 67.0903 10.0106 66.8575 10.4044C66.6272 10.7957 66.3064 11.1041 65.8953 11.3294C65.4866 11.5524 65.0136 11.6638 64.4761 11.6638Z" fill="#C256C7"/>
<path d="M18.3431 23.8478C18.3431 22.9116 18.4644 22.0509 18.7071 21.2658C18.9524 20.4782 19.3016 19.7537 19.7548 19.0924H20.5276C20.3493 19.3376 20.1821 19.6398 20.026 19.9989C19.8725 20.3556 19.7375 20.7482 19.6211 21.1766C19.5047 21.6026 19.413 22.0435 19.3462 22.4992C19.2818 22.955 19.2496 23.4045 19.2496 23.8478C19.2496 24.4373 19.3065 25.0354 19.4205 25.6423C19.5344 26.2491 19.688 26.8125 19.8811 27.3327C20.0743 27.8528 20.2898 28.2763 20.5276 28.6032H19.7548C19.3016 27.9419 18.9524 27.2187 18.7071 26.4336C18.4644 25.646 18.3431 24.7841 18.3431 23.8478ZM26.1012 21.9457C26.0567 21.5692 25.8759 21.2769 25.5588 21.0689C25.2418 20.8608 24.853 20.7568 24.3923 20.7568C24.0554 20.7568 23.7607 20.8113 23.5081 20.9203C23.2579 21.0293 23.0622 21.1791 22.9211 21.3698C22.7824 21.5605 22.713 21.7773 22.713 22.02C22.713 22.2231 22.7613 22.3977 22.8579 22.5438C22.957 22.6875 23.0833 22.8076 23.2369 22.9042C23.3904 22.9983 23.5514 23.0763 23.7198 23.1382C23.8883 23.1977 24.0431 23.246 24.1842 23.2831L24.957 23.4912C25.1551 23.5432 25.3756 23.615 25.6183 23.7067C25.8635 23.7983 26.0975 23.9234 26.3204 24.0819C26.5458 24.2379 26.7316 24.4385 26.8777 24.6837C27.0238 24.9289 27.0969 25.2299 27.0969 25.5865C27.0969 25.9977 26.9892 26.3692 26.7737 26.7011C26.5607 27.033 26.2486 27.2967 25.8375 27.4924C25.4288 27.6881 24.9322 27.7859 24.3477 27.7859C23.8028 27.7859 23.331 27.698 22.9322 27.5221C22.5359 27.3463 22.2239 27.1011 21.996 26.7865C21.7706 26.472 21.6431 26.1067 21.6133 25.6906H22.5644C22.5892 25.9779 22.6858 26.2156 22.8542 26.4039C23.0251 26.5896 23.2406 26.7283 23.5006 26.82C23.7632 26.9091 24.0455 26.9537 24.3477 26.9537C24.6994 26.9537 25.0152 26.8967 25.2951 26.7828C25.5749 26.6664 25.7966 26.5054 25.9601 26.2998C26.1235 26.0918 26.2053 25.8491 26.2053 25.5717C26.2053 25.319 26.1347 25.1135 25.9935 24.955C25.8523 24.7964 25.6666 24.6676 25.4362 24.5686C25.2059 24.4695 24.957 24.3828 24.6895 24.3085L23.7533 24.041C23.1588 23.8701 22.6883 23.6262 22.3415 23.3091C21.9948 22.9921 21.8214 22.5773 21.8214 22.0646C21.8214 21.6386 21.9366 21.267 22.1669 20.95C22.3997 20.6305 22.7118 20.3828 23.1031 20.207C23.4969 20.0286 23.9365 19.9395 24.422 19.9395C24.9124 19.9395 25.3483 20.0274 25.7297 20.2033C26.1112 20.3766 26.4133 20.6144 26.6362 20.9166C26.8616 21.2187 26.9805 21.5618 26.9929 21.9457H26.1012ZM30.8854 27.771C30.3356 27.771 29.8613 27.6497 29.4625 27.407C29.0663 27.1618 28.7604 26.82 28.5449 26.3816C28.3319 25.9407 28.2254 25.428 28.2254 24.8435C28.2254 24.259 28.3319 23.7438 28.5449 23.298C28.7604 22.8497 29.0601 22.5005 29.444 22.2503C29.8303 21.9977 30.2811 21.8714 30.7963 21.8714C31.0935 21.8714 31.387 21.9209 31.6768 22.02C31.9666 22.119 32.2303 22.28 32.4681 22.5029C32.7059 22.7234 32.8954 23.0156 33.0365 23.3797C33.1777 23.7438 33.2483 24.1921 33.2483 24.7246V25.0961H28.8495V24.3382H32.3567C32.3567 24.0163 32.2923 23.729 32.1635 23.4763C32.0371 23.2237 31.8563 23.0243 31.6211 22.8782C31.3882 22.732 31.1133 22.659 30.7963 22.659C30.4471 22.659 30.1449 22.7457 29.8898 22.919C29.6372 23.0899 29.4427 23.3129 29.3065 23.5878C29.1703 23.8627 29.1022 24.1574 29.1022 24.472V24.9772C29.1022 25.4082 29.1765 25.7735 29.3251 26.0732C29.4762 26.3704 29.6855 26.5971 29.9529 26.7531C30.2204 26.9067 30.5313 26.9834 30.8854 26.9834C31.1158 26.9834 31.3238 26.9512 31.5096 26.8868C31.6978 26.82 31.8601 26.7209 31.9963 26.5896C32.1325 26.4559 32.2378 26.2899 32.3121 26.0918L33.1591 26.3296C33.07 26.6169 32.9201 26.8695 32.7096 27.0875C32.4991 27.3029 32.239 27.4714 31.9294 27.5927C31.6198 27.7116 31.2718 27.771 30.8854 27.771ZM36.2613 27.7859C35.8997 27.7859 35.5715 27.7178 35.2768 27.5816C34.982 27.4429 34.748 27.2435 34.5746 26.9834C34.4012 26.7209 34.3145 26.4039 34.3145 26.0324C34.3145 25.7054 34.3789 25.4404 34.5077 25.2373C34.6365 25.0317 34.8087 24.8707 35.0241 24.7543C35.2396 24.6379 35.4774 24.5512 35.7375 24.4943C36 24.4348 36.2638 24.3878 36.5288 24.3531C36.8755 24.3085 37.1566 24.2751 37.3721 24.2528C37.5901 24.228 37.7486 24.1872 37.8477 24.1302C37.9492 24.0732 38 23.9742 38 23.833V23.8033C38 23.4367 37.8997 23.1519 37.6991 22.9488C37.5009 22.7457 37.2 22.6441 36.7963 22.6441C36.3777 22.6441 36.0495 22.7358 35.8118 22.919C35.574 23.1023 35.4068 23.298 35.3102 23.506L34.478 23.2088C34.6266 22.8621 34.8248 22.5921 35.0724 22.3989C35.3226 22.2033 35.595 22.067 35.8898 21.9903C36.187 21.911 36.4792 21.8714 36.7665 21.8714C36.9498 21.8714 37.1604 21.8937 37.3981 21.9382C37.6384 21.9803 37.87 22.0683 38.0929 22.202C38.3182 22.3358 38.5052 22.5376 38.6539 22.8076C38.8025 23.0776 38.8768 23.4392 38.8768 23.8924V27.6522H38V26.8794H37.9554C37.896 27.0032 37.7969 27.1358 37.6582 27.2769C37.5195 27.4181 37.335 27.5382 37.1046 27.6373C36.8743 27.7364 36.5932 27.7859 36.2613 27.7859ZM36.395 26.9983C36.7418 26.9983 37.034 26.9302 37.2718 26.794C37.5121 26.6577 37.6929 26.4819 37.8142 26.2664C37.9381 26.0509 38 25.8243 38 25.5865V24.7841C37.9628 24.8286 37.8811 24.8695 37.7548 24.9067C37.6309 24.9413 37.4873 24.9723 37.3238 24.9995C37.1628 25.0243 37.0056 25.0466 36.852 25.0664C36.7009 25.0837 36.5783 25.0986 36.4842 25.111C36.2563 25.1407 36.0433 25.189 35.8452 25.2559C35.6495 25.3203 35.491 25.4181 35.3696 25.5494C35.2508 25.6782 35.1913 25.854 35.1913 26.0769C35.1913 26.3816 35.304 26.6119 35.5294 26.768C35.7573 26.9215 36.0458 26.9983 36.395 26.9983ZM42.9588 21.9457V22.6887H40.0015V21.9457H42.9588ZM40.8634 20.5785H41.7402V26.0175C41.7402 26.2652 41.7761 26.4509 41.848 26.5748C41.9223 26.6961 42.0164 26.7779 42.1303 26.82C42.2467 26.8596 42.3693 26.8794 42.4981 26.8794C42.5947 26.8794 42.674 26.8745 42.7359 26.8645C42.7978 26.8522 42.8473 26.8423 42.8845 26.8348L43.0628 27.6224C43.0034 27.6447 42.9204 27.667 42.8139 27.6893C42.7074 27.7141 42.5724 27.7265 42.4089 27.7265C42.1613 27.7265 41.9185 27.6732 41.6808 27.5667C41.4455 27.4602 41.2498 27.298 41.0938 27.08C40.9402 26.8621 40.8634 26.5871 40.8634 26.2553V20.5785ZM44.2777 27.6522V21.9457H45.1545V27.6522H44.2777ZM44.7235 20.9946C44.5526 20.9946 44.4052 20.9364 44.2814 20.82C44.16 20.7036 44.0993 20.5636 44.0993 20.4002C44.0993 20.2367 44.16 20.0968 44.2814 19.9804C44.4052 19.8639 44.5526 19.8057 44.7235 19.8057C44.8944 19.8057 45.0405 19.8639 45.1619 19.9804C45.2857 20.0968 45.3476 20.2367 45.3476 20.4002C45.3476 20.5636 45.2857 20.7036 45.1619 20.82C45.0405 20.9364 44.8944 20.9946 44.7235 20.9946ZM47.6371 24.2194V27.6522H46.7603V21.9457H47.6074V22.8373H47.6817C47.8154 22.5475 48.0185 22.3147 48.291 22.1389C48.5634 21.9605 48.9151 21.8714 49.3461 21.8714C49.7325 21.8714 50.0705 21.9506 50.3603 22.1091C50.6501 22.2652 50.8755 22.5029 51.0365 22.8225C51.1975 23.1395 51.278 23.5407 51.278 24.0262V27.6522H50.4012V24.0856C50.4012 23.6373 50.2848 23.2881 50.052 23.0379C49.8191 22.7853 49.4996 22.659 49.0935 22.659C48.8136 22.659 48.5634 22.7197 48.343 22.841C48.125 22.9624 47.9529 23.1395 47.8266 23.3723C47.7003 23.6051 47.6371 23.8875 47.6371 24.2194ZM55.1835 29.911C54.76 29.911 54.3959 29.8565 54.0913 29.7475C53.7866 29.641 53.5328 29.4998 53.3297 29.324C53.129 29.1506 52.9693 28.9649 52.8504 28.7667L53.5489 28.2763C53.6281 28.3803 53.7284 28.4992 53.8498 28.633C53.9711 28.7692 54.1371 28.8868 54.3476 28.9859C54.5606 29.0875 54.8393 29.1382 55.1835 29.1382C55.6442 29.1382 56.0244 29.0268 56.3241 28.8039C56.6238 28.581 56.7736 28.2317 56.7736 27.7562V26.5971H56.6993C56.6349 26.7011 56.5433 26.8299 56.4244 26.9834C56.308 27.1345 56.1396 27.2695 55.9191 27.3884C55.7012 27.5048 55.4064 27.563 55.0349 27.563C54.5742 27.563 54.1606 27.454 53.7941 27.2361C53.43 27.0181 53.1414 26.7011 52.9284 26.285C52.7179 25.8689 52.6126 25.3636 52.6126 24.7692C52.6126 24.1847 52.7154 23.6757 52.921 23.2423C53.1266 22.8064 53.4126 22.4695 53.7792 22.2317C54.1458 21.9915 54.5693 21.8714 55.0498 21.8714C55.4213 21.8714 55.716 21.9333 55.934 22.0571C56.1544 22.1785 56.3228 22.3172 56.4393 22.4732C56.5581 22.6268 56.6498 22.7531 56.7142 22.8522H56.8033V21.9457H57.6504V27.8156C57.6504 28.306 57.5389 28.7048 57.316 29.0119C57.0956 29.3215 56.7984 29.5481 56.4244 29.6918C56.0529 29.8379 55.6393 29.911 55.1835 29.911ZM55.1538 26.7754C55.5055 26.7754 55.8027 26.6949 56.0454 26.5339C56.2882 26.3729 56.4727 26.1413 56.599 25.8392C56.7253 25.537 56.7885 25.1754 56.7885 24.7543C56.7885 24.3432 56.7266 23.9803 56.6027 23.6658C56.4789 23.3512 56.2956 23.1048 56.0529 22.9265C55.8102 22.7481 55.5105 22.659 55.1538 22.659C54.7823 22.659 54.4727 22.7531 54.225 22.9413C53.9798 23.1296 53.7953 23.3822 53.6715 23.6992C53.5501 24.0163 53.4894 24.368 53.4894 24.7543C53.4894 25.1506 53.5513 25.5011 53.6752 25.8057C53.8015 26.1079 53.9872 26.3457 54.2324 26.519C54.4801 26.6899 54.7872 26.7754 55.1538 26.7754ZM61.1278 24.4423C61.1278 25.3785 61.0052 26.2404 60.76 27.028C60.5173 27.8132 60.1693 28.5364 59.716 29.1977H58.9433C59.1216 28.9525 59.2875 28.6503 59.4411 28.2912C59.5971 27.9345 59.7334 27.5432 59.8498 27.1172C59.9662 26.6887 60.0566 26.2466 60.121 25.7909C60.1879 25.3327 60.2213 24.8831 60.2213 24.4423C60.2213 23.8528 60.1643 23.2546 60.0504 22.6478C59.9365 22.041 59.7829 21.4776 59.5897 20.9574C59.3965 20.4373 59.181 20.0138 58.9433 19.6869H59.716C60.1693 20.3482 60.5173 21.0726 60.76 21.8602C61.0052 22.6454 61.1278 23.506 61.1278 24.4423Z" fill="#777779"/>
</svg>
