<svg width="173" height="35" viewBox="0 0 173 35" fill="none" xmlns="http://www.w3.org/2000/svg">
<rect width="172.062" height="33.6714" transform="translate(0.199219 0.518921)" fill="white"/>
<rect x="0.199219" y="0.518921" width="10.4619" height="13.6005" rx="2.18902" fill="#FCE2FE"/>
<path d="M18.242 11.5189V3.14941H21.07C21.7266 3.14941 22.2633 3.26792 22.6801 3.50495C23.0997 3.73925 23.4103 4.05665 23.6119 4.45714C23.8135 4.85764 23.9143 5.30445 23.9143 5.79757C23.9143 6.2907 23.8135 6.73887 23.6119 7.14209C23.413 7.54531 23.1052 7.86679 22.6883 8.10655C22.2715 8.34357 21.7375 8.46209 21.0863 8.46209H19.0593V7.56302H21.0536C21.5032 7.56302 21.8642 7.48537 22.1366 7.33008C22.4091 7.17478 22.6066 6.965 22.7292 6.70073C22.8545 6.43373 22.9172 6.13268 22.9172 5.79757C22.9172 5.46247 22.8545 5.16278 22.7292 4.8985C22.6066 4.63423 22.4077 4.42717 22.1325 4.27733C21.8574 4.12476 21.4923 4.04847 21.0373 4.04847H19.2555V11.5189H18.242ZM26.3806 3.14941V11.5189H25.4162V3.14941H26.3806ZM29.9943 11.666C29.5965 11.666 29.2355 11.5911 28.9113 11.4413C28.5871 11.2887 28.3296 11.0694 28.1389 10.7833C27.9482 10.4945 27.8529 10.1458 27.8529 9.73713C27.8529 9.3775 27.9237 9.08599 28.0654 8.86258C28.207 8.63645 28.3964 8.45936 28.6334 8.33131C28.8704 8.20326 29.132 8.10791 29.4181 8.04525C29.7068 7.97986 29.997 7.92809 30.2885 7.88995C30.6699 7.84091 30.9792 7.80413 31.2162 7.77961C31.4559 7.75237 31.6303 7.70741 31.7393 7.64475C31.851 7.58209 31.9068 7.47311 31.9068 7.31782V7.28512C31.9068 6.8819 31.7965 6.56859 31.5758 6.34519C31.3579 6.12178 31.0268 6.01008 30.5828 6.01008C30.1223 6.01008 29.7613 6.11088 29.4998 6.31249C29.2382 6.5141 29.0543 6.72933 28.9481 6.95819L28.0327 6.63125C28.1961 6.24983 28.4141 5.95287 28.6865 5.74036C28.9617 5.52513 29.2614 5.37528 29.5856 5.29082C29.9125 5.20364 30.234 5.16005 30.5501 5.16005C30.7517 5.16005 30.9833 5.18457 31.2448 5.23361C31.5091 5.27993 31.7638 5.37664 32.009 5.52376C32.2569 5.67089 32.4626 5.89293 32.6261 6.18989C32.7896 6.48686 32.8713 6.88463 32.8713 7.3832V11.5189H31.9068V10.6689H31.8578C31.7924 10.8051 31.6834 10.9509 31.5309 11.1062C31.3783 11.2615 31.1753 11.3936 30.922 11.5026C30.6686 11.6116 30.3594 11.666 29.9943 11.666ZM30.1414 10.7997C30.5228 10.7997 30.8443 10.7247 31.1059 10.5749C31.3701 10.4251 31.569 10.2316 31.7025 9.99459C31.8387 9.75756 31.9068 9.50828 31.9068 9.24673V8.36401C31.866 8.41305 31.7761 8.458 31.6371 8.49887C31.5009 8.53701 31.3429 8.57106 31.1631 8.60103C30.986 8.62828 30.813 8.6528 30.6441 8.67459C30.4779 8.69366 30.343 8.71001 30.2395 8.72363C29.9888 8.75633 29.7545 8.80945 29.5366 8.88301C29.3213 8.95385 29.147 9.06147 29.0135 9.20586C28.8827 9.34753 28.8173 9.54097 28.8173 9.78617C28.8173 10.1213 28.9413 10.3747 29.1892 10.5463C29.4398 10.7152 29.7572 10.7997 30.1414 10.7997ZM37.3615 5.24178V6.05912H34.1085V5.24178H37.3615ZM35.0566 3.73789H36.0211V9.72078C36.0211 9.99323 36.0606 10.1976 36.1396 10.3338C36.2213 10.4673 36.3249 10.5572 36.4502 10.6035C36.5783 10.6471 36.7131 10.6689 36.8548 10.6689C36.961 10.6689 37.0482 10.6634 37.1163 10.6525C37.1844 10.6389 37.2389 10.628 37.2798 10.6199L37.476 11.4862C37.4106 11.5107 37.3193 11.5353 37.2022 11.5598C37.085 11.587 36.9365 11.6007 36.7567 11.6007C36.4843 11.6007 36.2173 11.5421 35.9557 11.4249C35.6969 11.3078 35.4817 11.1293 35.31 10.8896C35.1411 10.6498 35.0566 10.3474 35.0566 9.98233V3.73789ZM38.8123 11.5189V5.24178H39.7768V11.5189H38.8123ZM39.3027 4.1956C39.1147 4.1956 38.9526 4.13157 38.8164 4.00352C38.6829 3.87547 38.6161 3.72154 38.6161 3.54173C38.6161 3.36191 38.6829 3.20798 38.8164 3.07993C38.9526 2.95188 39.1147 2.88786 39.3027 2.88786C39.4907 2.88786 39.6514 2.95188 39.7849 3.07993C39.9212 3.20798 39.9893 3.36191 39.9893 3.54173C39.9893 3.72154 39.9212 3.87547 39.7849 4.00352C39.6514 4.13157 39.4907 4.1956 39.3027 4.1956ZM42.5077 7.74283V11.5189H41.5432V5.24178H42.475V6.22259H42.5567C42.7038 5.90383 42.9272 5.64773 43.2269 5.45429C43.5266 5.25813 43.9135 5.16005 44.3876 5.16005C44.8126 5.16005 45.1845 5.24723 45.5032 5.4216C45.822 5.59324 46.0699 5.85479 46.247 6.20624C46.4241 6.55497 46.5126 6.99633 46.5126 7.53032V11.5189H45.5482V7.59571C45.5482 7.10258 45.4201 6.71844 45.164 6.44327C44.9079 6.16537 44.5565 6.02643 44.1097 6.02643C43.8018 6.02643 43.5266 6.09318 43.2841 6.22667C43.0444 6.36017 42.855 6.55497 42.7161 6.81107C42.5772 7.06717 42.5077 7.37775 42.5077 7.74283ZM52.2309 8.95249V5.24178H53.1954V11.5189H52.2309V10.4564H52.1655C52.0184 10.7751 51.7895 11.0462 51.479 11.2696C51.1684 11.4903 50.776 11.6007 50.302 11.6007C49.9097 11.6007 49.5609 11.5148 49.2558 11.3432C48.9507 11.1688 48.7109 10.9073 48.5366 10.5586C48.3622 10.2071 48.275 9.76437 48.275 9.23038V5.24178H49.2395V9.16499C49.2395 9.6227 49.3675 9.98778 49.6236 10.2602C49.8824 10.5327 50.2121 10.6689 50.6126 10.6689C50.8523 10.6689 51.0962 10.6076 51.3441 10.485C51.5947 10.3624 51.8045 10.1744 51.9734 9.92103C52.1451 9.66766 52.2309 9.34481 52.2309 8.95249ZM54.9618 11.5189V5.24178H55.8936V6.22259H55.9753C56.1061 5.88748 56.3172 5.62729 56.6088 5.44203C56.9003 5.25404 57.2504 5.16005 57.659 5.16005C58.0732 5.16005 58.4178 5.25404 58.693 5.44203C58.9709 5.62729 59.1875 5.88748 59.3427 6.22259H59.4081C59.5689 5.89838 59.81 5.64092 60.1315 5.45021C60.453 5.25677 60.8385 5.16005 61.288 5.16005C61.8492 5.16005 62.3083 5.33578 62.6652 5.68723C63.0221 6.03596 63.2006 6.57949 63.2006 7.31782V11.5189H62.2361V7.31782C62.2361 6.85466 62.1094 6.52364 61.8561 6.32475C61.6027 6.12587 61.3044 6.02643 60.9611 6.02643C60.5197 6.02643 60.1778 6.15992 59.9353 6.42692C59.6928 6.69119 59.5716 7.0263 59.5716 7.43224V11.5189H58.5908V7.21974C58.5908 6.86283 58.475 6.5754 58.2434 6.35745C58.0119 6.13677 57.7135 6.02643 57.3484 6.02643C57.0978 6.02643 56.8635 6.09318 56.6455 6.22667C56.4303 6.36017 56.2559 6.54543 56.1224 6.78246C55.9917 7.01676 55.9263 7.28785 55.9263 7.59571V11.5189H54.9618Z" fill="#1E1E20"/>
<path d="M71.7356 12.47V2.95919H72.3449V12.47H71.7356ZM73.4929 6.00191C73.4582 5.67745 73.3121 5.42482 73.0545 5.24401C72.7994 5.06321 72.4675 4.97281 72.0588 4.97281C71.7715 4.97281 71.5251 5.01615 71.3195 5.10284C71.1139 5.18952 70.9566 5.30717 70.8477 5.45578C70.7387 5.60438 70.683 5.77404 70.6805 5.96475C70.6805 6.12327 70.7164 6.26073 70.7882 6.37714C70.8625 6.49355 70.9628 6.59262 71.0891 6.67435C71.2155 6.75361 71.3554 6.82048 71.509 6.87497C71.6625 6.92946 71.8173 6.97528 71.9734 7.01243L72.6867 7.19076C72.974 7.25763 73.2501 7.34803 73.5151 7.46196C73.7826 7.5759 74.0217 7.71955 74.2322 7.89292C74.4452 8.0663 74.6136 8.27558 74.7374 8.52079C74.8613 8.76599 74.9232 9.05329 74.9232 9.3827C74.9232 9.82852 74.8093 10.2211 74.5814 10.5604C74.3535 10.8973 74.0241 11.161 73.5932 11.3517C73.1647 11.54 72.6458 11.6341 72.0365 11.6341C71.4446 11.6341 70.9306 11.5425 70.4947 11.3592C70.0613 11.1759 69.722 10.9084 69.4768 10.5567C69.234 10.205 69.1028 9.77651 69.083 9.27125H70.439C70.4588 9.53626 70.5405 9.7567 70.6842 9.93255C70.8279 10.1084 71.0148 10.2397 71.2452 10.3264C71.478 10.413 71.7381 10.4564 72.0254 10.4564C72.3251 10.4564 72.5876 10.4118 72.813 10.3226C73.0408 10.231 73.2192 10.1047 73.348 9.94369C73.4768 9.78023 73.5424 9.58951 73.5449 9.37156C73.5424 9.17342 73.4842 9.00995 73.3703 8.88116C73.2563 8.74989 73.0966 8.64091 72.891 8.55422C72.6879 8.46506 72.4501 8.3858 72.1777 8.31645L71.3121 8.09354C70.6854 7.93255 70.1901 7.68859 69.826 7.36166C69.4644 7.03224 69.2836 6.59509 69.2836 6.0502C69.2836 5.60191 69.4049 5.20934 69.6477 4.8725C69.8929 4.53566 70.226 4.27436 70.647 4.0886C71.0681 3.90036 71.5449 3.80625 72.0774 3.80625C72.6173 3.80625 73.0904 3.90036 73.4966 4.0886C73.9052 4.27436 74.226 4.53318 74.4588 4.86507C74.6916 5.19448 74.8117 5.57342 74.8192 6.00191H73.4929ZM79.1724 3.91027V11.5189H77.7941V5.25144H77.7495L75.9699 6.38828V5.12513L77.861 3.91027H79.1724ZM83.9167 11.6638C83.3049 11.6638 82.7798 11.509 82.3414 11.1994C81.9055 10.8873 81.5699 10.4378 81.3346 9.85081C81.1018 9.26134 80.9854 8.55175 80.9854 7.72203C80.9879 6.89231 81.1055 6.18643 81.3384 5.60438C81.5736 5.01987 81.9092 4.57405 82.3452 4.26693C82.7835 3.95981 83.3074 3.80625 83.9167 3.80625C84.526 3.80625 85.0498 3.95981 85.4882 4.26693C85.9266 4.57405 86.2622 5.01987 86.495 5.60438C86.7303 6.1889 86.8479 6.89478 86.8479 7.72203C86.8479 8.55422 86.7303 9.26506 86.495 9.85453C86.2622 10.4415 85.9266 10.8898 85.4882 11.1994C85.0523 11.509 84.5284 11.6638 83.9167 11.6638ZM83.9167 10.501C84.3922 10.501 84.7674 10.2669 85.0424 9.7988C85.3198 9.32821 85.4585 8.63596 85.4585 7.72203C85.4585 7.11769 85.3953 6.60995 85.269 6.19881C85.1427 5.78767 84.9643 5.47807 84.734 5.27002C84.5037 5.05949 84.2312 4.95423 83.9167 4.95423C83.4436 4.95423 83.0696 5.18952 82.7947 5.66011C82.5198 6.12822 82.3811 6.81553 82.3786 7.72203C82.3761 8.32884 82.4368 8.83905 82.5606 9.25267C82.687 9.66629 82.8653 9.97837 83.0956 10.1889C83.326 10.3969 83.5996 10.501 83.9167 10.501ZM90.8947 11.6638C90.2829 11.6638 89.7578 11.509 89.3194 11.1994C88.8835 10.8873 88.5479 10.4378 88.3126 9.85081C88.0798 9.26134 87.9634 8.55175 87.9634 7.72203C87.9659 6.89231 88.0835 6.18643 88.3164 5.60438C88.5516 5.01987 88.8872 4.57405 89.3232 4.26693C89.7615 3.95981 90.2854 3.80625 90.8947 3.80625C91.504 3.80625 92.0278 3.95981 92.4662 4.26693C92.9046 4.57405 93.2402 5.01987 93.473 5.60438C93.7083 6.1889 93.8259 6.89478 93.8259 7.72203C93.8259 8.55422 93.7083 9.26506 93.473 9.85453C93.2402 10.4415 92.9046 10.8898 92.4662 11.1994C92.0303 11.509 91.5064 11.6638 90.8947 11.6638ZM90.8947 10.501C91.3702 10.501 91.7454 10.2669 92.0204 9.7988C92.2978 9.32821 92.4365 8.63596 92.4365 7.72203C92.4365 7.11769 92.3733 6.60995 92.247 6.19881C92.1207 5.78767 91.9423 5.47807 91.712 5.27002C91.4817 5.05949 91.2092 4.95423 90.8947 4.95423C90.4216 4.95423 90.0476 5.18952 89.7727 5.66011C89.4978 6.12822 89.3591 6.81553 89.3566 7.72203C89.3541 8.32884 89.4148 8.83905 89.5386 9.25267C89.665 9.66629 89.8433 9.97837 90.0736 10.1889C90.304 10.3969 90.5776 10.501 90.8947 10.501Z" fill="#C256C7"/>
<path d="M18.3431 23.807C18.3431 22.8708 18.4644 22.0101 18.7071 21.2249C18.9524 20.4373 19.3016 19.7129 19.7548 19.0516H20.5276C20.3493 19.2968 20.1821 19.5989 20.026 19.9581C19.8725 20.3147 19.7375 20.7073 19.6211 21.1358C19.5047 21.5618 19.413 22.0026 19.3462 22.4584C19.2818 22.9141 19.2496 23.3636 19.2496 23.807C19.2496 24.3964 19.3065 24.9946 19.4205 25.6014C19.5344 26.2082 19.688 26.7717 19.8811 27.2918C20.0743 27.8119 20.2898 28.2354 20.5276 28.5624H19.7548C19.3016 27.9011 18.9524 27.1779 18.7071 26.3927C18.4644 25.6051 18.3431 24.7432 18.3431 23.807ZM26.1012 21.9048C26.0567 21.5283 25.8759 21.2361 25.5588 21.028C25.2418 20.82 24.853 20.716 24.3923 20.716C24.0554 20.716 23.7607 20.7704 23.5081 20.8794C23.2579 20.9884 23.0622 21.1382 22.9211 21.329C22.7824 21.5197 22.713 21.7364 22.713 21.9791C22.713 22.1822 22.7613 22.3568 22.8579 22.503C22.957 22.6466 23.0833 22.7667 23.2369 22.8633C23.3904 22.9574 23.5514 23.0355 23.7198 23.0974C23.8883 23.1568 24.0431 23.2051 24.1842 23.2423L24.957 23.4503C25.1551 23.5023 25.3756 23.5742 25.6183 23.6658C25.8635 23.7574 26.0975 23.8825 26.3204 24.041C26.5458 24.1971 26.7316 24.3977 26.8777 24.6429C27.0238 24.8881 27.0969 25.189 27.0969 25.5457C27.0969 25.9568 26.9892 26.3283 26.7737 26.6602C26.5607 26.9921 26.2486 27.2559 25.8375 27.4515C25.4288 27.6472 24.9322 27.745 24.3477 27.745C23.8028 27.745 23.331 27.6571 22.9322 27.4813C22.5359 27.3054 22.2239 27.0602 21.996 26.7457C21.7706 26.4311 21.6431 26.0658 21.6133 25.6497H22.5644C22.5892 25.937 22.6858 26.1748 22.8542 26.363C23.0251 26.5488 23.2406 26.6875 23.5006 26.7791C23.7632 26.8683 24.0455 26.9128 24.3477 26.9128C24.6994 26.9128 25.0152 26.8559 25.2951 26.7419C25.5749 26.6255 25.7966 26.4646 25.9601 26.259C26.1235 26.0509 26.2053 25.8082 26.2053 25.5308C26.2053 25.2782 26.1347 25.0726 25.9935 24.9141C25.8523 24.7556 25.6666 24.6268 25.4362 24.5277C25.2059 24.4286 24.957 24.342 24.6895 24.2677L23.7533 24.0002C23.1588 23.8293 22.6883 23.5853 22.3415 23.2683C21.9948 22.9512 21.8214 22.5364 21.8214 22.0237C21.8214 21.5977 21.9366 21.2262 22.1669 20.9091C22.3997 20.5896 22.7118 20.342 23.1031 20.1661C23.4969 19.9878 23.9365 19.8986 24.422 19.8986C24.9124 19.8986 25.3483 19.9865 25.7297 20.1624C26.1112 20.3358 26.4133 20.5735 26.6362 20.8757C26.8616 21.1779 26.9805 21.5209 26.9929 21.9048H26.1012ZM30.8854 27.7302C30.3356 27.7302 29.8613 27.6088 29.4625 27.3661C29.0663 27.1209 28.7604 26.7791 28.5449 26.3407C28.3319 25.8998 28.2254 25.3872 28.2254 24.8026C28.2254 24.2181 28.3319 23.7029 28.5449 23.2571C28.7604 22.8088 29.0601 22.4596 29.444 22.2095C29.8303 21.9568 30.2811 21.8305 30.7963 21.8305C31.0935 21.8305 31.387 21.88 31.6768 21.9791C31.9666 22.0782 32.2303 22.2392 32.4681 22.4621C32.7059 22.6825 32.8954 22.9748 33.0365 23.3389C33.1777 23.7029 33.2483 24.1512 33.2483 24.6838V25.0553H28.8495V24.2974H32.3567C32.3567 23.9754 32.2923 23.6881 32.1635 23.4355C32.0371 23.1828 31.8563 22.9834 31.6211 22.8373C31.3882 22.6912 31.1133 22.6181 30.7963 22.6181C30.4471 22.6181 30.1449 22.7048 29.8898 22.8782C29.6372 23.0491 29.4427 23.272 29.3065 23.5469C29.1703 23.8218 29.1022 24.1166 29.1022 24.4311V24.9364C29.1022 25.3673 29.1765 25.7327 29.3251 26.0324C29.4762 26.3296 29.6855 26.5562 29.9529 26.7122C30.2204 26.8658 30.5313 26.9426 30.8854 26.9426C31.1158 26.9426 31.3238 26.9104 31.5096 26.846C31.6978 26.7791 31.8601 26.68 31.9963 26.5488C32.1325 26.415 32.2378 26.2491 32.3121 26.0509L33.1591 26.2887C33.07 26.576 32.9201 26.8286 32.7096 27.0466C32.4991 27.2621 32.239 27.4305 31.9294 27.5519C31.6198 27.6707 31.2718 27.7302 30.8854 27.7302ZM36.2613 27.745C35.8997 27.745 35.5715 27.6769 35.2768 27.5407C34.982 27.402 34.748 27.2026 34.5746 26.9426C34.4012 26.68 34.3145 26.363 34.3145 25.9915C34.3145 25.6646 34.3789 25.3995 34.5077 25.1964C34.6365 24.9909 34.8087 24.8299 35.0241 24.7135C35.2396 24.5971 35.4774 24.5104 35.7375 24.4534C36 24.394 36.2638 24.3469 36.5288 24.3122C36.8755 24.2677 37.1566 24.2342 37.3721 24.2119C37.5901 24.1872 37.7486 24.1463 37.8477 24.0893C37.9492 24.0324 38 23.9333 38 23.7921V23.7624C38 23.3958 37.8997 23.111 37.6991 22.9079C37.5009 22.7048 37.2 22.6033 36.7963 22.6033C36.3777 22.6033 36.0495 22.6949 35.8118 22.8782C35.574 23.0615 35.4068 23.2571 35.3102 23.4652L34.478 23.168C34.6266 22.8212 34.8248 22.5512 35.0724 22.3581C35.3226 22.1624 35.595 22.0262 35.8898 21.9494C36.187 21.8701 36.4792 21.8305 36.7665 21.8305C36.9498 21.8305 37.1604 21.8528 37.3981 21.8974C37.6384 21.9395 37.87 22.0274 38.0929 22.1612C38.3182 22.2949 38.5052 22.4968 38.6539 22.7667C38.8025 23.0367 38.8768 23.3983 38.8768 23.8516V27.6113H38V26.8385H37.9554C37.896 26.9624 37.7969 27.0949 37.6582 27.2361C37.5195 27.3772 37.335 27.4974 37.1046 27.5964C36.8743 27.6955 36.5932 27.745 36.2613 27.745ZM36.395 26.9574C36.7418 26.9574 37.034 26.8893 37.2718 26.7531C37.5121 26.6169 37.6929 26.441 37.8142 26.2255C37.9381 26.0101 38 25.7834 38 25.5457V24.7432C37.9628 24.7878 37.8811 24.8286 37.7548 24.8658C37.6309 24.9005 37.4873 24.9314 37.3238 24.9587C37.1628 24.9834 37.0056 25.0057 36.852 25.0255C36.7009 25.0429 36.5783 25.0577 36.4842 25.0701C36.2563 25.0998 36.0433 25.1481 35.8452 25.215C35.6495 25.2794 35.491 25.3772 35.3696 25.5085C35.2508 25.6373 35.1913 25.8132 35.1913 26.0361C35.1913 26.3407 35.304 26.5711 35.5294 26.7271C35.7573 26.8806 36.0458 26.9574 36.395 26.9574ZM42.9588 21.9048V22.6478H40.0015V21.9048H42.9588ZM40.8634 20.5376H41.7402V25.9766C41.7402 26.2243 41.7761 26.4101 41.848 26.5339C41.9223 26.6553 42.0164 26.737 42.1303 26.7791C42.2467 26.8187 42.3693 26.8385 42.4981 26.8385C42.5947 26.8385 42.674 26.8336 42.7359 26.8237C42.7978 26.8113 42.8473 26.8014 42.8845 26.794L43.0628 27.5816C43.0034 27.6039 42.9204 27.6262 42.8139 27.6484C42.7074 27.6732 42.5724 27.6856 42.4089 27.6856C42.1613 27.6856 41.9185 27.6324 41.6808 27.5258C41.4455 27.4193 41.2498 27.2571 41.0938 27.0392C40.9402 26.8212 40.8634 26.5463 40.8634 26.2144V20.5376ZM44.2777 27.6113V21.9048H45.1545V27.6113H44.2777ZM44.7235 20.9537C44.5526 20.9537 44.4052 20.8955 44.2814 20.7791C44.16 20.6627 44.0993 20.5228 44.0993 20.3593C44.0993 20.1958 44.16 20.0559 44.2814 19.9395C44.4052 19.8231 44.5526 19.7649 44.7235 19.7649C44.8944 19.7649 45.0405 19.8231 45.1619 19.9395C45.2857 20.0559 45.3476 20.1958 45.3476 20.3593C45.3476 20.5228 45.2857 20.6627 45.1619 20.7791C45.0405 20.8955 44.8944 20.9537 44.7235 20.9537ZM47.6371 24.1785V27.6113H46.7603V21.9048H47.6074V22.7964H47.6817C47.8154 22.5067 48.0185 22.2738 48.291 22.098C48.5634 21.9197 48.9151 21.8305 49.3461 21.8305C49.7325 21.8305 50.0705 21.9098 50.3603 22.0683C50.6501 22.2243 50.8755 22.4621 51.0365 22.7816C51.1975 23.0986 51.278 23.4999 51.278 23.9853V27.6113H50.4012V24.0447C50.4012 23.5964 50.2848 23.2472 50.052 22.9971C49.8191 22.7444 49.4996 22.6181 49.0935 22.6181C48.8136 22.6181 48.5634 22.6788 48.343 22.8002C48.125 22.9215 47.9529 23.0986 47.8266 23.3314C47.7003 23.5642 47.6371 23.8466 47.6371 24.1785ZM55.1835 29.8701C54.76 29.8701 54.3959 29.8156 54.0913 29.7066C53.7866 29.6001 53.5328 29.459 53.3297 29.2831C53.129 29.1097 52.9693 28.924 52.8504 28.7258L53.5489 28.2354C53.6281 28.3395 53.7284 28.4584 53.8498 28.5921C53.9711 28.7283 54.1371 28.846 54.3476 28.945C54.5606 29.0466 54.8393 29.0974 55.1835 29.0974C55.6442 29.0974 56.0244 28.9859 56.3241 28.763C56.6238 28.5401 56.7736 28.1909 56.7736 27.7153V26.5562H56.6993C56.6349 26.6602 56.5433 26.789 56.4244 26.9426C56.308 27.0937 56.1396 27.2286 55.9191 27.3475C55.7012 27.4639 55.4064 27.5221 55.0349 27.5221C54.5742 27.5221 54.1606 27.4132 53.7941 27.1952C53.43 26.9772 53.1414 26.6602 52.9284 26.2441C52.7179 25.828 52.6126 25.3228 52.6126 24.7283C52.6126 24.1438 52.7154 23.6348 52.921 23.2014C53.1266 22.7655 53.4126 22.4286 53.7792 22.1909C54.1458 21.9506 54.5693 21.8305 55.0498 21.8305C55.4213 21.8305 55.716 21.8924 55.934 22.0163C56.1544 22.1376 56.3228 22.2763 56.4393 22.4324C56.5581 22.5859 56.6498 22.7122 56.7142 22.8113H56.8033V21.9048H57.6504V27.7748C57.6504 28.2652 57.5389 28.6639 57.316 28.971C57.0956 29.2806 56.7984 29.5073 56.4244 29.6509C56.0529 29.7971 55.6393 29.8701 55.1835 29.8701ZM55.1538 26.7345C55.5055 26.7345 55.8027 26.654 56.0454 26.493C56.2882 26.332 56.4727 26.1005 56.599 25.7983C56.7253 25.4961 56.7885 25.1345 56.7885 24.7135C56.7885 24.3023 56.7266 23.9395 56.6027 23.6249C56.4789 23.3104 56.2956 23.0639 56.0529 22.8856C55.8102 22.7073 55.5105 22.6181 55.1538 22.6181C54.7823 22.6181 54.4727 22.7122 54.225 22.9005C53.9798 23.0887 53.7953 23.3413 53.6715 23.6584C53.5501 23.9754 53.4894 24.3271 53.4894 24.7135C53.4894 25.1098 53.5513 25.4602 53.6752 25.7649C53.8015 26.067 53.9872 26.3048 54.2324 26.4782C54.4801 26.6491 54.7872 26.7345 55.1538 26.7345ZM61.1278 24.4014C61.1278 25.3376 61.0052 26.1995 60.76 26.9872C60.5173 27.7723 60.1693 28.4955 59.716 29.1568H58.9433C59.1216 28.9116 59.2875 28.6094 59.4411 28.2503C59.5971 27.8936 59.7334 27.5023 59.8498 27.0763C59.9662 26.6478 60.0566 26.2057 60.121 25.75C60.1879 25.2918 60.2213 24.8423 60.2213 24.4014C60.2213 23.8119 60.1643 23.2138 60.0504 22.607C59.9365 22.0002 59.7829 21.4367 59.5897 20.9166C59.3965 20.3965 59.181 19.9729 58.9433 19.646H59.716C60.1693 20.3073 60.5173 21.0317 60.76 21.8194C61.0052 22.6045 61.1278 23.4652 61.1278 24.4014Z" fill="#777779"/>
</svg>
