<svg width="173" height="35" viewBox="0 0 173 35" fill="none" xmlns="http://www.w3.org/2000/svg">
<rect width="172.062" height="33.6714" transform="translate(0.199219 0.600647)" fill="white"/>
<rect x="0.199219" y="0.600647" width="10.4619" height="13.6005" rx="2.18902" fill="#ABB4DD"/>
<path d="M22.8191 5.32351C22.7701 4.90939 22.5712 4.58791 22.2224 4.35905C21.8737 4.1302 21.446 4.01577 20.9392 4.01577C20.5687 4.01577 20.2445 4.07571 19.9666 4.19559C19.6914 4.31546 19.4762 4.48029 19.3209 4.69008C19.1683 4.89986 19.092 5.13825 19.092 5.40524C19.092 5.62865 19.1452 5.82072 19.2514 5.98147C19.3604 6.13948 19.4993 6.27162 19.6683 6.37787C19.8372 6.4814 20.0143 6.56722 20.1995 6.63533C20.3848 6.70072 20.5551 6.75385 20.7104 6.79471L21.5604 7.02357C21.7783 7.08078 22.0208 7.15979 22.2878 7.2606C22.5575 7.3614 22.815 7.49898 23.0602 7.67335C23.3081 7.84499 23.5125 8.06567 23.6732 8.33539C23.8339 8.60511 23.9143 8.93613 23.9143 9.32845C23.9143 9.78071 23.7958 10.1894 23.5588 10.5545C23.3245 10.9195 22.9812 11.2097 22.5289 11.4249C22.0794 11.6402 21.5331 11.7478 20.8902 11.7478C20.2908 11.7478 19.7718 11.651 19.3332 11.4576C18.8972 11.2642 18.554 10.9945 18.3033 10.6485C18.0554 10.3024 17.9151 9.90059 17.8824 9.44288H18.9286C18.9558 9.75892 19.0621 10.0205 19.2473 10.2275C19.4353 10.4319 19.6723 10.5844 19.9584 10.6852C20.2472 10.7833 20.5578 10.8324 20.8902 10.8324C21.2771 10.8324 21.6244 10.7697 21.9323 10.6444C22.2401 10.5163 22.484 10.3392 22.6638 10.1131C22.8436 9.88424 22.9335 9.61725 22.9335 9.31211C22.9335 9.03421 22.8559 8.80808 22.7006 8.63372C22.5453 8.45935 22.3409 8.31768 22.0876 8.2087C21.8342 8.09973 21.5604 8.00437 21.2662 7.92264L20.2363 7.6284C19.5824 7.44041 19.0648 7.17205 18.6834 6.82332C18.3019 6.47459 18.1112 6.01825 18.1112 5.45428C18.1112 4.98568 18.2379 4.57701 18.4913 4.22828C18.7474 3.87683 19.0907 3.60438 19.5211 3.41095C19.9543 3.21478 20.4379 3.1167 20.9719 3.1167C21.5114 3.1167 21.9909 3.21342 22.4104 3.40686C22.83 3.59757 23.1624 3.85912 23.4076 4.1915C23.6555 4.52388 23.7863 4.90122 23.7999 5.32351H22.8191ZM25.4499 11.6006V5.32351H26.4143V11.6006H25.4499ZM25.9403 4.27732C25.7523 4.27732 25.5902 4.2133 25.454 4.08525C25.3205 3.9572 25.2537 3.80327 25.2537 3.62345C25.2537 3.44364 25.3205 3.28971 25.454 3.16166C25.5902 3.03361 25.7523 2.96958 25.9403 2.96958C26.1283 2.96958 26.289 3.03361 26.4225 3.16166C26.5587 3.28971 26.6269 3.44364 26.6269 3.62345C26.6269 3.80327 26.5587 3.9572 26.4225 4.08525C26.289 4.2133 26.1283 4.27732 25.9403 4.27732ZM29.1453 3.23113V11.6006H28.1808V3.23113H29.1453ZM36.0446 5.32351L33.7234 11.6006H32.7426L30.4213 5.32351H31.4675L33.2003 10.3256H33.2657L34.9984 5.32351H36.0446ZM39.7247 11.7314C39.1198 11.7314 38.5981 11.5979 38.1595 11.3309C37.7235 11.0612 37.3871 10.6852 37.15 10.203C36.9157 9.71805 36.7986 9.15409 36.7986 8.51112C36.7986 7.86815 36.9157 7.30146 37.15 6.81106C37.3871 6.31794 37.7167 5.93379 38.139 5.65862C38.564 5.38072 39.0599 5.24178 39.6266 5.24178C39.9535 5.24178 40.2764 5.29627 40.5951 5.40524C40.9139 5.51422 41.204 5.69131 41.4656 5.93651C41.7271 6.17899 41.9355 6.50047 42.0908 6.90097C42.2461 7.30146 42.3238 7.79459 42.3238 8.38035V8.78901H37.4852V7.95533H41.343C41.343 7.60115 41.2721 7.28512 41.1305 7.00722C40.9915 6.72933 40.7926 6.51001 40.5338 6.34927C40.2777 6.18852 39.9753 6.10815 39.6266 6.10815C39.2424 6.10815 38.91 6.20351 38.6294 6.39422C38.3515 6.58221 38.1377 6.82741 37.9878 7.12982C37.838 7.43224 37.763 7.75645 37.763 8.10245V8.65824C37.763 9.13229 37.8448 9.53415 38.0082 9.86381C38.1744 10.1907 38.4047 10.44 38.6989 10.6117C38.9931 10.7806 39.3351 10.865 39.7247 10.865C39.978 10.865 40.2069 10.8296 40.4112 10.7588C40.6183 10.6852 40.7967 10.5763 40.9466 10.4319C41.0964 10.2847 41.2122 10.1022 41.2939 9.88424L42.2257 10.1458C42.1276 10.4618 41.9628 10.7397 41.7312 10.9795C41.4996 11.2165 41.2136 11.4018 40.873 11.5353C40.5325 11.666 40.1497 11.7314 39.7247 11.7314ZM43.7909 11.6006V5.32351H44.7227V6.27162H44.788C44.9025 5.96103 45.1095 5.70902 45.4092 5.51558C45.7089 5.32215 46.0467 5.22543 46.4227 5.22543C46.4936 5.22543 46.5821 5.22679 46.6884 5.22952C46.7946 5.23224 46.875 5.23633 46.9295 5.24178V6.22258C46.8968 6.21441 46.8218 6.20215 46.7047 6.1858C46.5903 6.16673 46.469 6.15719 46.341 6.15719C46.0358 6.15719 45.7634 6.22122 45.5236 6.34927C45.2866 6.47459 45.0986 6.64896 44.9597 6.87236C44.8235 7.09304 44.7554 7.34505 44.7554 7.6284V11.6006H43.7909Z" fill="#1E1E20"/>
<path d="M54.7356 12.5517V3.04091H55.3449V12.5517H54.7356ZM56.4929 6.08363C56.4582 5.75918 56.3121 5.50654 56.0545 5.32574C55.7994 5.14493 55.4675 5.05453 55.0588 5.05453C54.7715 5.05453 54.5251 5.09788 54.3195 5.18456C54.1139 5.27125 53.9566 5.3889 53.8477 5.5375C53.7387 5.68611 53.683 5.85577 53.6805 6.04648C53.6805 6.20499 53.7164 6.34246 53.7882 6.45886C53.8625 6.57527 53.9628 6.67434 54.0891 6.75608C54.2155 6.83533 54.3554 6.90221 54.509 6.9567C54.6625 7.01118 54.8173 7.057 54.9734 7.09416L55.6867 7.27248C55.974 7.33936 56.2501 7.42976 56.5151 7.54369C56.7826 7.65762 57.0217 7.80128 57.2322 7.97465C57.4452 8.14802 57.6136 8.35731 57.7374 8.60251C57.8613 8.84771 57.9232 9.13502 57.9232 9.46443C57.9232 9.91025 57.8093 10.3028 57.5814 10.6421C57.3535 10.979 57.0241 11.2428 56.5932 11.4335C56.1647 11.6217 55.6458 11.7158 55.0365 11.7158C54.4446 11.7158 53.9306 11.6242 53.4947 11.4409C53.0613 11.2576 52.722 10.9901 52.4768 10.6384C52.234 10.2867 52.1028 9.85824 52.083 9.35297H53.439C53.4588 9.61799 53.5405 9.83842 53.6842 10.0143C53.8279 10.1901 54.0148 10.3214 54.2452 10.4081C54.478 10.4948 54.7381 10.5381 55.0254 10.5381C55.3251 10.5381 55.5876 10.4935 55.813 10.4044C56.0408 10.3127 56.2192 10.1864 56.348 10.0254C56.4768 9.86195 56.5424 9.67124 56.5449 9.45328C56.5424 9.25514 56.4842 9.09167 56.3703 8.96288C56.2563 8.83161 56.0966 8.72264 55.891 8.63595C55.6879 8.54678 55.4501 8.46753 55.1777 8.39818L54.3121 8.17527C53.6854 8.01428 53.1901 7.77032 52.826 7.44338C52.4644 7.11397 52.2836 6.67682 52.2836 6.13193C52.2836 5.68363 52.4049 5.29106 52.6477 4.95422C52.8929 4.61738 53.226 4.35608 53.647 4.17032C54.0681 3.98209 54.5449 3.88797 55.0774 3.88797C55.6173 3.88797 56.0904 3.98209 56.4966 4.17032C56.9052 4.35608 57.226 4.61491 57.4588 4.94679C57.6916 5.2762 57.8117 5.65515 57.8192 6.08363H56.4929ZM59.3563 11.6006L62.5922 5.19571V5.1437H58.8362V3.992H64.0188V5.1697L60.7867 11.6006H59.3563ZM67.8668 11.7455C67.2551 11.7455 66.73 11.5907 66.2916 11.2811C65.8557 10.9691 65.5201 10.5195 65.2848 9.93254C65.052 9.34307 64.9356 8.63347 64.9356 7.80375C64.938 6.97403 65.0557 6.26815 65.2885 5.68611C65.5238 5.10159 65.8594 4.65577 66.2953 4.34865C66.7337 4.04153 67.2575 3.88797 67.8668 3.88797C68.4761 3.88797 68.9999 4.04153 69.4383 4.34865C69.8767 4.65577 70.2123 5.10159 70.4451 5.68611C70.6804 6.27063 70.7981 6.97651 70.7981 7.80375C70.7981 8.63595 70.6804 9.34678 70.4451 9.93625C70.2123 10.5233 69.8767 10.9715 69.4383 11.2811C69.0024 11.5907 68.4786 11.7455 67.8668 11.7455ZM67.8668 10.5827C68.3424 10.5827 68.7176 10.3486 68.9925 9.88053C69.2699 9.40994 69.4086 8.71768 69.4086 7.80375C69.4086 7.19942 69.3455 6.69168 69.2191 6.28054C69.0928 5.86939 68.9145 5.55979 68.6842 5.35175C68.4538 5.14122 68.1814 5.03596 67.8668 5.03596C67.3938 5.03596 67.0198 5.27125 66.7448 5.74184C66.4699 6.20995 66.3312 6.89725 66.3287 7.80375C66.3263 8.41056 66.387 8.92078 66.5108 9.3344C66.6371 9.74802 66.8154 10.0601 67.0458 10.2706C67.2761 10.4787 67.5498 10.5827 67.8668 10.5827Z" fill="#C256C7"/>
<path d="M18.3431 23.8887C18.3431 22.9525 18.4644 22.0918 18.7071 21.3067C18.9524 20.519 19.3016 19.7946 19.7548 19.1333H20.5276C20.3493 19.3785 20.1821 19.6807 20.026 20.0398C19.8725 20.3964 19.7375 20.789 19.6211 21.2175C19.5047 21.6435 19.413 22.0844 19.3462 22.5401C19.2818 22.9958 19.2496 23.4454 19.2496 23.8887C19.2496 24.4782 19.3065 25.0763 19.4205 25.6831C19.5344 26.2899 19.688 26.8534 19.8811 27.3735C20.0743 27.8936 20.2898 28.3172 20.5276 28.6441H19.7548C19.3016 27.9828 18.9524 27.2596 18.7071 26.4745C18.4644 25.6868 18.3431 24.8249 18.3431 23.8887ZM26.1012 21.9865C26.0567 21.6101 25.8759 21.3178 25.5588 21.1098C25.2418 20.9017 24.853 20.7977 24.3923 20.7977C24.0554 20.7977 23.7607 20.8522 23.5081 20.9612C23.2579 21.0701 23.0622 21.22 22.9211 21.4107C22.7824 21.6014 22.713 21.8181 22.713 22.0608C22.713 22.2639 22.7613 22.4385 22.8579 22.5847C22.957 22.7283 23.0833 22.8485 23.2369 22.945C23.3904 23.0392 23.5514 23.1172 23.7198 23.1791C23.8883 23.2385 24.0431 23.2868 24.1842 23.324L24.957 23.532C25.1551 23.5841 25.3756 23.6559 25.6183 23.7475C25.8635 23.8392 26.0975 23.9642 26.3204 24.1228C26.5458 24.2788 26.7316 24.4794 26.8777 24.7246C27.0238 24.9698 27.0969 25.2707 27.0969 25.6274C27.0969 26.0385 26.9892 26.4101 26.7737 26.7419C26.5607 27.0738 26.2486 27.3376 25.8375 27.5333C25.4288 27.7289 24.9322 27.8268 24.3477 27.8268C23.8028 27.8268 23.331 27.7388 22.9322 27.563C22.5359 27.3871 22.2239 27.1419 21.996 26.8274C21.7706 26.5128 21.6431 26.1475 21.6133 25.7314H22.5644C22.5892 26.0187 22.6858 26.2565 22.8542 26.4447C23.0251 26.6305 23.2406 26.7692 23.5006 26.8608C23.7632 26.95 24.0455 26.9946 24.3477 26.9946C24.6994 26.9946 25.0152 26.9376 25.2951 26.8237C25.5749 26.7073 25.7966 26.5463 25.9601 26.3407C26.1235 26.1327 26.2053 25.8899 26.2053 25.6125C26.2053 25.3599 26.1347 25.1543 25.9935 24.9958C25.8523 24.8373 25.6666 24.7085 25.4362 24.6094C25.2059 24.5104 24.957 24.4237 24.6895 24.3494L23.7533 24.0819C23.1588 23.911 22.6883 23.667 22.3415 23.35C21.9948 23.033 21.8214 22.6181 21.8214 22.1054C21.8214 21.6794 21.9366 21.3079 22.1669 20.9909C22.3997 20.6714 22.7118 20.4237 23.1031 20.2478C23.4969 20.0695 23.9365 19.9803 24.422 19.9803C24.9124 19.9803 25.3483 20.0683 25.7297 20.2441C26.1112 20.4175 26.4133 20.6553 26.6362 20.9574C26.8616 21.2596 26.9805 21.6026 26.9929 21.9865H26.1012ZM30.8854 27.8119C30.3356 27.8119 29.8613 27.6905 29.4625 27.4478C29.0663 27.2026 28.7604 26.8608 28.5449 26.4224C28.3319 25.9816 28.2254 25.4689 28.2254 24.8844C28.2254 24.2998 28.3319 23.7847 28.5449 23.3389C28.7604 22.8906 29.0601 22.5413 29.444 22.2912C29.8303 22.0385 30.2811 21.9122 30.7963 21.9122C31.0935 21.9122 31.387 21.9618 31.6768 22.0608C31.9666 22.1599 32.2303 22.3209 32.4681 22.5438C32.7059 22.7642 32.8954 23.0565 33.0365 23.4206C33.1777 23.7847 33.2483 24.233 33.2483 24.7655V25.137H28.8495V24.3791H32.3567C32.3567 24.0571 32.2923 23.7698 32.1635 23.5172C32.0371 23.2646 31.8563 23.0652 31.6211 22.919C31.3882 22.7729 31.1133 22.6998 30.7963 22.6998C30.4471 22.6998 30.1449 22.7865 29.8898 22.9599C29.6372 23.1308 29.4427 23.3537 29.3065 23.6286C29.1703 23.9036 29.1022 24.1983 29.1022 24.5128V25.0181C29.1022 25.4491 29.1765 25.8144 29.3251 26.1141C29.4762 26.4113 29.6855 26.6379 29.9529 26.794C30.2204 26.9475 30.5313 27.0243 30.8854 27.0243C31.1158 27.0243 31.3238 26.9921 31.5096 26.9277C31.6978 26.8608 31.8601 26.7618 31.9963 26.6305C32.1325 26.4967 32.2378 26.3308 32.3121 26.1327L33.1591 26.3704C33.07 26.6577 32.9201 26.9104 32.7096 27.1283C32.4991 27.3438 32.239 27.5122 31.9294 27.6336C31.6198 27.7525 31.2718 27.8119 30.8854 27.8119ZM36.2613 27.8268C35.8997 27.8268 35.5715 27.7587 35.2768 27.6224C34.982 27.4837 34.748 27.2844 34.5746 27.0243C34.4012 26.7618 34.3145 26.4447 34.3145 26.0732C34.3145 25.7463 34.3789 25.4813 34.5077 25.2782C34.6365 25.0726 34.8087 24.9116 35.0241 24.7952C35.2396 24.6788 35.4774 24.5921 35.7375 24.5351C36 24.4757 36.2638 24.4286 36.5288 24.394C36.8755 24.3494 37.1566 24.3159 37.3721 24.2937C37.5901 24.2689 37.7486 24.228 37.8477 24.1711C37.9492 24.1141 38 24.015 38 23.8738V23.8441C38 23.4776 37.8997 23.1927 37.6991 22.9896C37.5009 22.7865 37.2 22.685 36.7963 22.685C36.3777 22.685 36.0495 22.7766 35.8118 22.9599C35.574 23.1432 35.4068 23.3389 35.3102 23.5469L34.478 23.2497C34.6266 22.9029 34.8248 22.633 35.0724 22.4398C35.3226 22.2441 35.595 22.1079 35.8898 22.0311C36.187 21.9519 36.4792 21.9122 36.7665 21.9122C36.9498 21.9122 37.1604 21.9345 37.3981 21.9791C37.6384 22.0212 37.87 22.1091 38.0929 22.2429C38.3182 22.3766 38.5052 22.5785 38.6539 22.8485C38.8025 23.1184 38.8768 23.48 38.8768 23.9333V27.693H38V26.9203H37.9554C37.896 27.0441 37.7969 27.1766 37.6582 27.3178C37.5195 27.459 37.335 27.5791 37.1046 27.6782C36.8743 27.7772 36.5932 27.8268 36.2613 27.8268ZM36.395 27.0392C36.7418 27.0392 37.034 26.971 37.2718 26.8348C37.5121 26.6986 37.6929 26.5227 37.8142 26.3073C37.9381 26.0918 38 25.8652 38 25.6274V24.8249C37.9628 24.8695 37.8811 24.9104 37.7548 24.9475C37.6309 24.9822 37.4873 25.0132 37.3238 25.0404C37.1628 25.0652 37.0056 25.0875 36.852 25.1073C36.7009 25.1246 36.5783 25.1395 36.4842 25.1519C36.2563 25.1816 36.0433 25.2299 35.8452 25.2967C35.6495 25.3611 35.491 25.459 35.3696 25.5902C35.2508 25.719 35.1913 25.8949 35.1913 26.1178C35.1913 26.4224 35.304 26.6528 35.5294 26.8088C35.7573 26.9624 36.0458 27.0392 36.395 27.0392ZM42.9588 21.9865V22.7296H40.0015V21.9865H42.9588ZM40.8634 20.6194H41.7402V26.0584C41.7402 26.306 41.7761 26.4918 41.848 26.6156C41.9223 26.737 42.0164 26.8187 42.1303 26.8608C42.2467 26.9005 42.3693 26.9203 42.4981 26.9203C42.5947 26.9203 42.674 26.9153 42.7359 26.9054C42.7978 26.893 42.8473 26.8831 42.8845 26.8757L43.0628 27.6633C43.0034 27.6856 42.9204 27.7079 42.8139 27.7302C42.7074 27.7549 42.5724 27.7673 42.4089 27.7673C42.1613 27.7673 41.9185 27.7141 41.6808 27.6076C41.4455 27.5011 41.2498 27.3388 41.0938 27.1209C40.9402 26.9029 40.8634 26.628 40.8634 26.2961V20.6194ZM44.2777 27.693V21.9865H45.1545V27.693H44.2777ZM44.7235 21.0355C44.5526 21.0355 44.4052 20.9773 44.2814 20.8608C44.16 20.7444 44.0993 20.6045 44.0993 20.441C44.0993 20.2776 44.16 20.1376 44.2814 20.0212C44.4052 19.9048 44.5526 19.8466 44.7235 19.8466C44.8944 19.8466 45.0405 19.9048 45.1619 20.0212C45.2857 20.1376 45.3476 20.2776 45.3476 20.441C45.3476 20.6045 45.2857 20.7444 45.1619 20.8608C45.0405 20.9773 44.8944 21.0355 44.7235 21.0355ZM47.6371 24.2602V27.693H46.7603V21.9865H47.6074V22.8782H47.6817C47.8154 22.5884 48.0185 22.3556 48.291 22.1797C48.5634 22.0014 48.9151 21.9122 49.3461 21.9122C49.7325 21.9122 50.0705 21.9915 50.3603 22.15C50.6501 22.306 50.8755 22.5438 51.0365 22.8633C51.1975 23.1803 51.278 23.5816 51.278 24.067V27.693H50.4012V24.1265C50.4012 23.6782 50.2848 23.3289 50.052 23.0788C49.8191 22.8262 49.4996 22.6998 49.0935 22.6998C48.8136 22.6998 48.5634 22.7605 48.343 22.8819C48.125 23.0033 47.9529 23.1803 47.8266 23.4132C47.7003 23.646 47.6371 23.9283 47.6371 24.2602ZM55.1835 29.9518C54.76 29.9518 54.3959 29.8974 54.0913 29.7884C53.7866 29.6819 53.5328 29.5407 53.3297 29.3648C53.129 29.1915 52.9693 29.0057 52.8504 28.8076L53.5489 28.3172C53.6281 28.4212 53.7284 28.5401 53.8498 28.6738C53.9711 28.81 54.1371 28.9277 54.3476 29.0268C54.5606 29.1283 54.8393 29.1791 55.1835 29.1791C55.6442 29.1791 56.0244 29.0676 56.3241 28.8447C56.6238 28.6218 56.7736 28.2726 56.7736 27.797V26.6379H56.6993C56.6349 26.7419 56.5433 26.8707 56.4244 27.0243C56.308 27.1754 56.1396 27.3104 55.9191 27.4292C55.7012 27.5457 55.4064 27.6039 55.0349 27.6039C54.5742 27.6039 54.1606 27.4949 53.7941 27.2769C53.43 27.059 53.1414 26.7419 52.9284 26.3258C52.7179 25.9097 52.6126 25.4045 52.6126 24.8101C52.6126 24.2255 52.7154 23.7166 52.921 23.2831C53.1266 22.8472 53.4126 22.5104 53.7792 22.2726C54.1458 22.0324 54.5693 21.9122 55.0498 21.9122C55.4213 21.9122 55.716 21.9742 55.934 22.098C56.1544 22.2194 56.3228 22.3581 56.4393 22.5141C56.5581 22.6676 56.6498 22.794 56.7142 22.893H56.8033V21.9865H57.6504V27.8565C57.6504 28.3469 57.5389 28.7457 57.316 29.0528C57.0956 29.3624 56.7984 29.589 56.4244 29.7326C56.0529 29.8788 55.6393 29.9518 55.1835 29.9518ZM55.1538 26.8162C55.5055 26.8162 55.8027 26.7358 56.0454 26.5748C56.2882 26.4138 56.4727 26.1822 56.599 25.88C56.7253 25.5779 56.7885 25.2162 56.7885 24.7952C56.7885 24.3841 56.7266 24.0212 56.6027 23.7067C56.4789 23.3921 56.2956 23.1457 56.0529 22.9673C55.8102 22.789 55.5105 22.6998 55.1538 22.6998C54.7823 22.6998 54.4727 22.794 54.225 22.9822C53.9798 23.1704 53.7953 23.4231 53.6715 23.7401C53.5501 24.0571 53.4894 24.4088 53.4894 24.7952C53.4894 25.1915 53.5513 25.5419 53.6752 25.8466C53.8015 26.1488 53.9872 26.3865 54.2324 26.5599C54.4801 26.7308 54.7872 26.8162 55.1538 26.8162ZM61.1278 24.4831C61.1278 25.4193 61.0052 26.2813 60.76 27.0689C60.5173 27.854 60.1693 28.5772 59.716 29.2385H58.9433C59.1216 28.9933 59.2875 28.6912 59.4411 28.332C59.5971 27.9754 59.7334 27.584 59.8498 27.158C59.9662 26.7296 60.0566 26.2875 60.121 25.8317C60.1879 25.3735 60.2213 24.924 60.2213 24.4831C60.2213 23.8937 60.1643 23.2955 60.0504 22.6887C59.9365 22.0819 59.7829 21.5184 59.5897 20.9983C59.3965 20.4782 59.181 20.0547 58.9433 19.7277H59.716C60.1693 20.389 60.5173 21.1135 60.76 21.9011C61.0052 22.6862 61.1278 23.5469 61.1278 24.4831Z" fill="#777779"/>
</svg>
