<svg width="222" height="314" viewBox="0 0 222 314" fill="none" xmlns="http://www.w3.org/2000/svg">
<path d="M7.00027 1.09303L214.479 91.192L201.743 313.103H6.99997L7 91.192L7.00027 1.09303Z" fill="#F7F7F7"/>
<rect x="62.7461" y="273.394" width="89.1763" height="35.6705" fill="#5562A2"/>
<path d="M100.335 290.363C100.318 290.208 100.248 290.087 100.125 290.001C100.003 289.915 99.8448 289.871 99.6495 289.871C99.5122 289.871 99.3944 289.892 99.2962 289.934C99.1979 289.975 99.1228 290.031 99.0707 290.102C99.0186 290.173 98.992 290.254 98.9908 290.346C98.9908 290.421 99.0079 290.487 99.0423 290.543C99.0778 290.598 99.1257 290.646 99.1861 290.685C99.2464 290.723 99.3133 290.754 99.3867 290.781C99.4601 290.807 99.5341 290.828 99.6087 290.846L99.9496 290.931C100.087 290.963 100.219 291.007 100.346 291.061C100.473 291.116 100.588 291.184 100.688 291.267C100.79 291.35 100.871 291.45 100.93 291.567C100.989 291.684 101.018 291.822 101.018 291.979C101.018 292.192 100.964 292.38 100.855 292.542C100.746 292.703 100.589 292.829 100.383 292.92C100.178 293.01 99.93 293.055 99.6388 293.055C99.3559 293.055 99.1103 293.011 98.902 292.924C98.6948 292.836 98.5327 292.708 98.4155 292.54C98.2995 292.372 98.2367 292.167 98.2273 291.926H98.8754C98.8848 292.052 98.9239 292.158 98.9925 292.242C99.0612 292.326 99.1506 292.389 99.2607 292.43C99.3719 292.471 99.4962 292.492 99.6335 292.492C99.7768 292.492 99.9022 292.471 100.01 292.428C100.119 292.384 100.204 292.324 100.266 292.247C100.327 292.169 100.359 292.078 100.36 291.974C100.359 291.879 100.331 291.801 100.276 291.739C100.222 291.677 100.145 291.625 100.047 291.583C99.9502 291.54 99.8365 291.503 99.7063 291.469L99.2926 291.363C98.9931 291.286 98.7564 291.169 98.5824 291.013C98.4096 290.856 98.3232 290.647 98.3232 290.386C98.3232 290.172 98.3812 289.984 98.4972 289.824C98.6143 289.663 98.7736 289.538 98.9748 289.449C99.176 289.359 99.4039 289.314 99.6584 289.314C99.9164 289.314 100.143 289.359 100.337 289.449C100.532 289.538 100.685 289.661 100.797 289.82C100.908 289.977 100.965 290.158 100.969 290.363H100.335ZM101.446 289.916V289.364H104.347V289.916H103.223V293H102.57V289.916H101.446ZM104.934 293H104.231L105.511 289.364H106.324L107.606 293H106.903L105.932 290.109H105.903L104.934 293ZM104.957 291.574H106.875V292.103H104.957V291.574ZM110.35 290.525C110.321 290.429 110.28 290.343 110.228 290.267C110.177 290.19 110.115 290.125 110.043 290.07C109.972 290.016 109.891 289.975 109.798 289.948C109.706 289.919 109.605 289.905 109.496 289.905C109.301 289.905 109.127 289.954 108.974 290.053C108.822 290.151 108.701 290.295 108.614 290.486C108.527 290.675 108.484 290.906 108.484 291.178C108.484 291.453 108.527 291.685 108.614 291.876C108.7 292.067 108.82 292.212 108.974 292.311C109.128 292.409 109.307 292.458 109.511 292.458C109.695 292.458 109.855 292.423 109.99 292.352C110.126 292.281 110.231 292.18 110.304 292.05C110.378 291.919 110.414 291.765 110.414 291.588L110.563 291.612H109.576V291.097H111.052V291.533C111.052 291.845 110.985 292.114 110.853 292.341C110.72 292.569 110.538 292.744 110.306 292.867C110.074 292.989 109.808 293.05 109.507 293.05C109.172 293.05 108.878 292.975 108.625 292.824C108.372 292.673 108.175 292.458 108.033 292.18C107.892 291.9 107.822 291.569 107.822 291.185C107.822 290.892 107.863 290.63 107.946 290.399C108.03 290.168 108.148 289.972 108.298 289.811C108.448 289.649 108.625 289.526 108.827 289.442C109.029 289.357 109.25 289.314 109.487 289.314C109.689 289.314 109.876 289.344 110.05 289.403C110.224 289.461 110.379 289.544 110.514 289.651C110.65 289.759 110.762 289.887 110.849 290.035C110.937 290.183 110.994 290.346 111.022 290.525H110.35ZM111.689 293V289.364H114.054V289.916H112.347V290.903H113.931V291.455H112.347V292.448H114.068V293H111.689Z" fill="white"/>
<rect x="47.8828" y="172.328" width="118.902" height="44.5881" fill="#FFEFC3"/>
<rect x="47.8828" y="145.575" width="118.902" height="23.7803" fill="#F26CF9"/>
<rect x="47.8828" y="108.418" width="118.902" height="34.1842" fill="#FCD3FE"/>
<path d="M47.2891 70.6896L165.139 79.3104L166.191 104.874H47.2891V70.6896Z" fill="#FDEDFE"/>
<path d="M47.8825 34.1048L141.939 70.2457L47.8711 66.2928L47.8825 34.1048Z" fill="#D1D2E0"/>
<rect x="15.1855" y="219.889" width="29.7254" height="50.5332" fill="#707DBF"/>
<rect x="15.1855" y="166.383" width="29.7254" height="50.5332" fill="#ABB4DD"/>
<path d="M169.758 166.383H200.969L197.997 216.916H169.758V166.383Z" fill="#ABB4DD"/>
<path d="M15.1855 80.1791L43.7678 70.7382L44.911 163.41H15.1855L15.1855 80.1791Z" fill="#D3DAF9"/>
<path d="M169.758 80.1792L204.685 95.0419L200.969 163.41H169.758V80.1792Z" fill="#D3DAF9"/>
<path d="M169.758 219.889H197.997L195.024 270.422H169.758V219.889Z" fill="#707DBF"/>
<rect x="59.7734" y="239.21" width="40.1293" height="31.2117" fill="#FFCA39"/>
<rect x="47.8828" y="239.21" width="11.8902" height="69.8547" fill="#FFCA39"/>
<rect x="47.8828" y="219.889" width="40.1293" height="28.2391" fill="#FFCA39"/>
<rect width="40.1293" height="31.2117" transform="matrix(-1 0 0 1 154.895 239.21)" fill="#FFCA39"/>
<rect width="11.8902" height="69.8547" transform="matrix(-1 0 0 1 166.785 239.21)" fill="#FFCA39"/>
<rect width="40.1293" height="28.2391" transform="matrix(-1 0 0 1 166.785 219.889)" fill="#FFCA39"/>
<rect x="90.9844" y="219.889" width="32.698" height="16.349" fill="#5562A2"/>
<rect x="102.875" y="234.751" width="8.91763" height="38.643" fill="#5562A2"/>
<path d="M103.241 155.364L104.188 158.226H104.225L105.169 155.364H105.894L104.612 159H103.799L102.519 155.364H103.241ZM107.032 155.364V159H106.373V155.364H107.032ZM107.745 159V155.364H109.109C109.388 155.364 109.622 155.416 109.812 155.52C110.002 155.624 110.146 155.767 110.243 155.95C110.341 156.131 110.39 156.337 110.39 156.567C110.39 156.801 110.341 157.008 110.243 157.189C110.145 157.37 110 157.513 109.808 157.617C109.616 157.72 109.38 157.771 109.1 157.771H108.196V157.23H109.011C109.174 157.23 109.308 157.201 109.412 157.145C109.516 157.088 109.593 157.01 109.643 156.91C109.694 156.811 109.719 156.696 109.719 156.567C109.719 156.438 109.694 156.325 109.643 156.227C109.593 156.128 109.516 156.052 109.41 155.998C109.306 155.942 109.172 155.914 109.007 155.914H108.404V159H107.745Z" fill="white"/>
<path d="M19.7603 119V115.364H21.092C21.3501 115.364 21.5637 115.406 21.733 115.491C21.9023 115.576 22.0289 115.69 22.113 115.834C22.197 115.977 22.239 116.139 22.239 116.319C22.239 116.47 22.2112 116.598 22.1556 116.702C22.0999 116.805 22.0254 116.888 21.9319 116.951C21.8395 117.013 21.7377 117.058 21.6265 117.086V117.121C21.7472 117.127 21.865 117.166 21.9798 117.239C22.0958 117.31 22.1917 117.411 22.2674 117.542C22.3432 117.674 22.3811 117.833 22.3811 118.022C22.3811 118.208 22.3373 118.374 22.2497 118.522C22.1633 118.669 22.0295 118.786 21.8484 118.872C21.6673 118.957 21.4359 119 21.1542 119H19.7603ZM20.309 118.529H21.1009C21.3637 118.529 21.5519 118.479 21.6655 118.377C21.7792 118.275 21.836 118.148 21.836 117.995C21.836 117.88 21.807 117.775 21.749 117.679C21.691 117.583 21.6081 117.507 21.5004 117.45C21.3939 117.393 21.2672 117.365 21.1204 117.365H20.309V118.529ZM20.309 116.937H21.0441C21.1672 116.937 21.2779 116.913 21.3761 116.866C21.4755 116.818 21.5543 116.752 21.6123 116.667C21.6714 116.58 21.701 116.479 21.701 116.362C21.701 116.211 21.6484 116.085 21.543 115.983C21.4377 115.882 21.2761 115.831 21.0583 115.831H20.309V116.937ZM23.0318 119V115.364H24.328C24.6097 115.364 24.8435 115.412 25.0293 115.509C25.2164 115.606 25.356 115.741 25.4484 115.912C25.5407 116.083 25.5869 116.28 25.5869 116.504C25.5869 116.726 25.5401 116.922 25.4466 117.091C25.3543 117.259 25.2146 117.39 25.0276 117.484C24.8417 117.577 24.6079 117.624 24.3262 117.624H23.3443V117.152H24.2765C24.4541 117.152 24.5985 117.126 24.7097 117.075C24.8222 117.024 24.9045 116.95 24.9565 116.853C25.0086 116.756 25.0347 116.64 25.0347 116.504C25.0347 116.366 25.008 116.247 24.9548 116.147C24.9027 116.046 24.8204 115.969 24.708 115.916C24.5967 115.861 24.4505 115.834 24.2694 115.834H23.5805V119H23.0318ZM24.8269 117.359L25.7254 119H25.1004L24.2197 117.359H24.8269ZM29.4132 117.182C29.4132 117.57 29.3422 117.904 29.2002 118.183C29.0581 118.461 28.8634 118.676 28.616 118.826C28.3698 118.975 28.0898 119.05 27.7761 119.05C27.4613 119.05 27.1801 118.975 26.9328 118.826C26.6865 118.676 26.4924 118.461 26.3504 118.181C26.2083 117.902 26.1373 117.569 26.1373 117.182C26.1373 116.794 26.2083 116.46 26.3504 116.182C26.4924 115.903 26.6865 115.689 26.9328 115.539C27.1801 115.389 27.4613 115.314 27.7761 115.314C28.0898 115.314 28.3698 115.389 28.616 115.539C28.8634 115.689 29.0581 115.903 29.2002 116.182C29.3422 116.46 29.4132 116.794 29.4132 117.182ZM28.8699 117.182C28.8699 116.886 28.822 116.637 28.7261 116.434C28.6314 116.231 28.5012 116.077 28.3354 115.973C28.1709 115.867 27.9845 115.815 27.7761 115.815C27.5666 115.815 27.3796 115.867 27.2151 115.973C27.0505 116.077 26.9203 116.231 26.8244 116.434C26.7297 116.637 26.6824 116.886 26.6824 117.182C26.6824 117.478 26.7297 117.728 26.8244 117.931C26.9203 118.134 27.0505 118.287 27.2151 118.393C27.3796 118.497 27.5666 118.549 27.7761 118.549C27.9845 118.549 28.1709 118.497 28.3354 118.393C28.5012 118.287 28.6314 118.134 28.7261 117.931C28.822 117.728 28.8699 117.478 28.8699 117.182ZM33.0323 115.364V119H32.528L30.6796 116.333H30.6459V119H30.0973V115.364H30.6051L32.4552 118.034H32.4889V115.364H33.0323ZM33.7385 119V118.634L35.6508 115.836H33.7225V115.364H36.322V115.729L34.4097 118.528H36.3379V119H33.7385ZM37.026 119V115.364H39.3058V115.836H37.5746V116.944H39.1868V117.414H37.5746V118.528H39.3271V119H37.026Z" fill="#1E1E20"/>
<path d="M23.499 191.319C23.4801 191.151 23.402 191.021 23.2646 190.928C23.1273 190.835 22.9545 190.788 22.7462 190.788C22.597 190.788 22.468 190.812 22.3591 190.859C22.2502 190.905 22.1656 190.969 22.1052 191.051C22.046 191.131 22.0164 191.223 22.0164 191.326C22.0164 191.412 22.0365 191.487 22.0768 191.55C22.1182 191.612 22.1721 191.665 22.2384 191.708C22.3058 191.749 22.378 191.784 22.455 191.812C22.5319 191.84 22.6059 191.862 22.6769 191.88L23.032 191.972C23.1481 192.001 23.267 192.039 23.3889 192.088C23.5109 192.136 23.6239 192.2 23.7281 192.279C23.8322 192.359 23.9163 192.457 23.9802 192.574C24.0453 192.691 24.0779 192.832 24.0779 192.995C24.0779 193.201 24.0246 193.384 23.9181 193.544C23.8127 193.703 23.6594 193.83 23.4582 193.922C23.2581 194.014 23.0161 194.06 22.732 194.06C22.4597 194.06 22.2242 194.017 22.0253 193.931C21.8264 193.844 21.6708 193.722 21.5583 193.563C21.4459 193.403 21.3837 193.214 21.3719 192.995H21.9223C21.933 193.126 21.9756 193.236 22.0502 193.324C22.1259 193.41 22.2224 193.474 22.3396 193.517C22.4579 193.558 22.5876 193.579 22.7284 193.579C22.8835 193.579 23.0214 193.555 23.1421 193.506C23.2641 193.457 23.3599 193.388 23.4298 193.3C23.4996 193.212 23.5345 193.108 23.5345 192.99C23.5345 192.882 23.5038 192.794 23.4422 192.725C23.3818 192.656 23.2996 192.6 23.1954 192.555C23.0924 192.51 22.9758 192.47 22.8456 192.436L22.4159 192.319C22.1247 192.239 21.8939 192.123 21.7235 191.969C21.5542 191.815 21.4695 191.611 21.4695 191.358C21.4695 191.148 21.5264 190.966 21.64 190.809C21.7536 190.653 21.9075 190.532 22.1017 190.445C22.2958 190.358 22.5148 190.314 22.7586 190.314C23.0048 190.314 23.222 190.357 23.4102 190.444C23.5996 190.53 23.7488 190.649 23.8577 190.8C23.9666 190.951 24.0234 191.124 24.0281 191.319H23.499ZM25.2821 190.364V194H24.7335V190.364H25.2821ZM26.0811 194V190.364H26.6298V193.528H28.2775V194H26.0811ZM28.8648 190.364L29.8769 193.325H29.9177L30.9298 190.364H31.5228L30.2142 194H29.5803L28.2718 190.364H28.8648ZM32.0479 194V190.364H34.3278V190.836H32.5966V191.944H34.2088V192.414H32.5966V193.528H34.3491V194H32.0479ZM35.0606 194V190.364H36.3568C36.6385 190.364 36.8723 190.412 37.0581 190.509C37.2452 190.606 37.3849 190.741 37.4772 190.912C37.5695 191.083 37.6157 191.28 37.6157 191.504C37.6157 191.726 37.5689 191.922 37.4754 192.091C37.3831 192.259 37.2434 192.39 37.0564 192.484C36.8705 192.577 36.6367 192.624 36.355 192.624H35.3731V192.152H36.3053C36.4829 192.152 36.6273 192.126 36.7385 192.075C36.851 192.024 36.9333 191.95 36.9854 191.853C37.0374 191.756 37.0635 191.64 37.0635 191.504C37.0635 191.366 37.0368 191.247 36.9836 191.147C36.9315 191.046 36.8492 190.969 36.7368 190.916C36.6255 190.861 36.4793 190.834 36.2982 190.834H35.6093V194H35.0606ZM36.8557 192.359L37.7542 194H37.1292L36.2485 192.359H36.8557Z" fill="#1E1E20"/>
<path d="M58.877 252V248.364H60.2087C60.4668 248.364 60.6804 248.406 60.8497 248.491C61.019 248.576 61.1456 248.69 61.2297 248.834C61.3137 248.977 61.3557 249.139 61.3557 249.319C61.3557 249.47 61.3279 249.598 61.2723 249.702C61.2166 249.805 61.1421 249.888 61.0486 249.951C60.9562 250.013 60.8544 250.058 60.7432 250.086V250.121C60.8639 250.127 60.9817 250.166 61.0965 250.239C61.2125 250.31 61.3084 250.411 61.3841 250.542C61.4599 250.674 61.4978 250.833 61.4978 251.022C61.4978 251.208 61.454 251.374 61.3664 251.522C61.28 251.669 61.1462 251.786 60.9651 251.872C60.784 251.957 60.5526 252 60.2709 252H58.877ZM59.4257 251.529H60.2176C60.4804 251.529 60.6686 251.479 60.7822 251.377C60.8959 251.275 60.9527 251.148 60.9527 250.995C60.9527 250.88 60.9237 250.775 60.8657 250.679C60.8077 250.583 60.7248 250.507 60.6171 250.45C60.5106 250.393 60.3839 250.365 60.2371 250.365H59.4257V251.529ZM59.4257 249.937H60.1608C60.2839 249.937 60.3946 249.913 60.4928 249.866C60.5922 249.818 60.671 249.752 60.729 249.667C60.7881 249.58 60.8177 249.479 60.8177 249.362C60.8177 249.211 60.7651 249.085 60.6597 248.983C60.5544 248.882 60.3928 248.831 60.175 248.831H59.4257V249.937ZM62.4557 252H61.8733L63.1819 248.364H63.8158L65.1244 252H64.542L63.5139 249.024H63.4855L62.4557 252ZM62.5534 250.576H64.4426V251.038H62.5534V250.576ZM68.4988 249.546H67.9449C67.9236 249.428 67.8839 249.324 67.8259 249.234C67.7679 249.144 67.6969 249.067 67.6128 249.005C67.5288 248.942 67.4347 248.895 67.3305 248.863C67.2275 248.831 67.118 248.815 67.002 248.815C66.7925 248.815 66.6049 248.867 66.4392 248.973C66.2747 249.078 66.1444 249.232 66.0486 249.436C65.9539 249.64 65.9065 249.888 65.9065 250.182C65.9065 250.478 65.9539 250.728 66.0486 250.931C66.1444 251.135 66.2752 251.289 66.441 251.393C66.6067 251.497 66.7931 251.549 67.0003 251.549C67.1151 251.549 67.224 251.534 67.327 251.503C67.4311 251.471 67.5252 251.424 67.6093 251.363C67.6933 251.301 67.7644 251.226 67.8224 251.137C67.8815 251.047 67.9224 250.944 67.9449 250.828L68.4988 250.83C68.4693 251.009 68.4118 251.173 68.3266 251.324C68.2426 251.473 68.1343 251.602 68.0017 251.711C67.8703 251.818 67.72 251.902 67.5507 251.961C67.3814 252.02 67.1968 252.05 66.9967 252.05C66.6818 252.05 66.4013 251.975 66.1551 251.826C65.9089 251.676 65.7148 251.461 65.5727 251.181C65.4318 250.902 65.3614 250.569 65.3614 250.182C65.3614 249.794 65.4324 249.46 65.5745 249.182C65.7165 248.903 65.9107 248.689 66.1569 248.539C66.4031 248.389 66.683 248.314 66.9967 248.314C67.1897 248.314 67.3696 248.342 67.5365 248.397C67.7046 248.452 67.8555 248.532 67.9893 248.639C68.123 248.744 68.2337 248.873 68.3213 249.026C68.4089 249.177 68.4681 249.351 68.4988 249.546ZM69.1554 252V248.364H69.704V250.1H69.7484L71.2736 248.364H71.9643L70.4977 250.001L71.9696 252H71.3091L70.1337 250.375L69.704 250.869V252H69.1554ZM74.4492 249.319C74.4303 249.151 74.3522 249.021 74.2148 248.928C74.0775 248.835 73.9047 248.788 73.6964 248.788C73.5472 248.788 73.4182 248.812 73.3093 248.859C73.2004 248.905 73.1158 248.969 73.0554 249.051C72.9962 249.131 72.9666 249.223 72.9666 249.326C72.9666 249.412 72.9867 249.487 73.027 249.55C73.0684 249.612 73.1223 249.665 73.1886 249.708C73.256 249.749 73.3282 249.784 73.4052 249.812C73.4821 249.84 73.5561 249.862 73.6271 249.88L73.9822 249.972C74.0982 250.001 74.2172 250.039 74.3391 250.088C74.4611 250.136 74.5741 250.2 74.6783 250.279C74.7824 250.359 74.8665 250.457 74.9304 250.574C74.9955 250.691 75.0281 250.832 75.0281 250.995C75.0281 251.201 74.9748 251.384 74.8683 251.544C74.7629 251.703 74.6096 251.83 74.4084 251.922C74.2083 252.014 73.9663 252.06 73.6822 252.06C73.4099 252.06 73.1744 252.017 72.9755 251.931C72.7766 251.844 72.621 251.722 72.5085 251.563C72.3961 251.403 72.3339 251.214 72.3221 250.995H72.8725C72.8832 251.126 72.9258 251.236 73.0004 251.324C73.0761 251.41 73.1726 251.474 73.2898 251.517C73.4081 251.558 73.5378 251.579 73.6786 251.579C73.8337 251.579 73.9716 251.555 74.0923 251.506C74.2143 251.457 74.3101 251.388 74.38 251.3C74.4498 251.212 74.4847 251.108 74.4847 250.99C74.4847 250.882 74.454 250.794 74.3924 250.725C74.332 250.656 74.2498 250.6 74.1456 250.555C74.0426 250.51 73.926 250.47 73.7958 250.436L73.3661 250.319C73.0749 250.239 72.8441 250.123 72.6737 249.969C72.5044 249.815 72.4197 249.611 72.4197 249.358C72.4197 249.148 72.4766 248.966 72.5902 248.809C72.7038 248.653 72.8577 248.532 73.0518 248.445C73.246 248.358 73.465 248.314 73.7088 248.314C73.955 248.314 74.1722 248.357 74.3604 248.444C74.5498 248.53 74.699 248.649 74.8079 248.8C74.9168 248.951 74.9736 249.124 74.9783 249.319H74.4492ZM75.5044 248.836V248.364H78.3186V248.836H77.184V252H76.6372V248.836H75.5044ZM78.818 252H78.2356L79.5442 248.364H80.1781L81.4867 252H80.9043L79.8762 249.024H79.8478L78.818 252ZM78.9157 250.576H80.8049V251.038H78.9157V250.576ZM84.3018 249.512C84.2675 249.405 84.2214 249.308 84.1634 249.223C84.1065 249.137 84.0385 249.063 83.9592 249.003C83.8799 248.941 83.7893 248.895 83.6875 248.863C83.5869 248.831 83.4762 248.815 83.3555 248.815C83.1507 248.815 82.966 248.867 82.8015 248.973C82.637 249.078 82.5067 249.232 82.4109 249.436C82.3162 249.638 82.2688 249.886 82.2688 250.18C82.2688 250.475 82.3168 250.724 82.4126 250.928C82.5085 251.131 82.6399 251.286 82.8068 251.391C82.9737 251.496 83.1637 251.549 83.3768 251.549C83.5745 251.549 83.7467 251.509 83.8935 251.428C84.0414 251.348 84.1557 251.234 84.2362 251.087C84.3178 250.939 84.3587 250.765 84.3587 250.565L84.5007 250.592H83.4602V250.139H84.8896V250.553C84.8896 250.858 84.8245 251.123 84.6942 251.348C84.5652 251.572 84.3865 251.745 84.158 251.867C83.9308 251.989 83.6703 252.05 83.3768 252.05C83.0477 252.05 82.7589 251.974 82.5103 251.822C82.2629 251.671 82.07 251.456 81.9315 251.178C81.793 250.899 81.7237 250.567 81.7237 250.184C81.7237 249.894 81.764 249.633 81.8445 249.402C81.925 249.172 82.038 248.976 82.1836 248.815C82.3304 248.652 82.5026 248.529 82.7003 248.444C82.8991 248.357 83.1164 248.314 83.3519 248.314C83.5484 248.314 83.7313 248.343 83.9006 248.401C84.071 248.459 84.2225 248.541 84.3551 248.648C84.4889 248.754 84.5996 248.881 84.6871 249.028C84.7747 249.173 84.8339 249.335 84.8647 249.512H84.3018ZM85.586 252V248.364H87.8659V248.836H86.1347V249.944H87.7469V250.414H86.1347V251.528H87.8872V252H85.586ZM64.6408 258H64.0584L65.367 254.364H66.0008L67.3094 258H66.7271L65.699 255.024H65.6706L64.6408 258ZM64.7384 256.576H66.6276V257.038H64.7384V256.576ZM70.6839 255.546H70.1299C70.1086 255.428 70.069 255.324 70.011 255.234C69.953 255.144 69.8819 255.067 69.7979 255.005C69.7139 254.942 69.6197 254.895 69.5156 254.863C69.4126 254.831 69.3031 254.815 69.1871 254.815C68.9776 254.815 68.79 254.867 68.6242 254.973C68.4597 255.078 68.3295 255.232 68.2336 255.436C68.1389 255.64 68.0916 255.888 68.0916 256.182C68.0916 256.478 68.1389 256.728 68.2336 256.931C68.3295 257.135 68.4603 257.289 68.626 257.393C68.7917 257.497 68.9782 257.549 69.1853 257.549C69.3001 257.549 69.409 257.534 69.512 257.503C69.6162 257.471 69.7103 257.424 69.7943 257.363C69.8784 257.301 69.9494 257.226 70.0074 257.137C70.0666 257.047 70.1074 256.944 70.1299 256.828L70.6839 256.83C70.6543 257.009 70.5969 257.173 70.5117 257.324C70.4276 257.473 70.3193 257.602 70.1867 257.711C70.0554 257.818 69.905 257.902 69.7358 257.961C69.5665 258.02 69.3818 258.05 69.1818 258.05C68.8669 258.05 68.5864 257.975 68.3402 257.826C68.0939 257.676 67.8998 257.461 67.7578 257.181C67.6169 256.902 67.5465 256.569 67.5465 256.182C67.5465 255.794 67.6175 255.46 67.7595 255.182C67.9016 254.903 68.0957 254.689 68.3419 254.539C68.5881 254.389 68.8681 254.314 69.1818 254.314C69.3747 254.314 69.5546 254.342 69.7215 254.397C69.8896 254.452 70.0406 254.532 70.1743 254.639C70.3081 254.744 70.4188 254.873 70.5063 255.026C70.5939 255.177 70.6531 255.351 70.6839 255.546ZM74.3607 255.546H73.8067C73.7854 255.428 73.7457 255.324 73.6877 255.234C73.6297 255.144 73.5587 255.067 73.4747 255.005C73.3906 254.942 73.2965 254.895 73.1923 254.863C73.0894 254.831 72.9799 254.815 72.8639 254.815C72.6543 254.815 72.4667 254.867 72.301 254.973C72.1365 255.078 72.0063 255.232 71.9104 255.436C71.8157 255.64 71.7683 255.888 71.7683 256.182C71.7683 256.478 71.8157 256.728 71.9104 256.931C72.0063 257.135 72.1371 257.289 72.3028 257.393C72.4685 257.497 72.6549 257.549 72.8621 257.549C72.9769 257.549 73.0858 257.534 73.1888 257.503C73.293 257.471 73.3871 257.424 73.4711 257.363C73.5551 257.301 73.6262 257.226 73.6842 257.137C73.7434 257.047 73.7842 256.944 73.8067 256.828L74.3607 256.83C74.3311 257.009 74.2737 257.173 74.1884 257.324C74.1044 257.473 73.9961 257.602 73.8635 257.711C73.7321 257.818 73.5818 257.902 73.4125 257.961C73.2432 258.02 73.0586 258.05 72.8585 258.05C72.5437 258.05 72.2631 257.975 72.0169 257.826C71.7707 257.676 71.5766 257.461 71.4345 257.181C71.2937 256.902 71.2232 256.569 71.2232 256.182C71.2232 255.794 71.2943 255.46 71.4363 255.182C71.5783 254.903 71.7725 254.689 72.0187 254.539C72.2649 254.389 72.5448 254.314 72.8585 254.314C73.0515 254.314 73.2314 254.342 73.3983 254.397C73.5664 254.452 73.7173 254.532 73.8511 254.639C73.9848 254.744 74.0955 254.873 74.1831 255.026C74.2707 255.177 74.3299 255.351 74.3607 255.546ZM75.0172 258V254.364H77.297V254.836H75.5658V255.944H77.178V256.414H75.5658V257.528H77.3183V258H75.0172ZM80.0132 255.319C79.9942 255.151 79.9161 255.021 79.7788 254.928C79.6415 254.835 79.4687 254.788 79.2603 254.788C79.1112 254.788 78.9822 254.812 78.8733 254.859C78.7644 254.905 78.6797 254.969 78.6194 255.051C78.5602 255.131 78.5306 255.223 78.5306 255.326C78.5306 255.412 78.5507 255.487 78.591 255.55C78.6324 255.612 78.6862 255.665 78.7525 255.708C78.82 255.749 78.8922 255.784 78.9691 255.812C79.0461 255.84 79.1201 255.862 79.1911 255.88L79.5462 255.972C79.6622 256.001 79.7812 256.039 79.9031 256.088C80.025 256.136 80.1381 256.2 80.2422 256.279C80.3464 256.359 80.4304 256.457 80.4944 256.574C80.5595 256.691 80.592 256.832 80.592 256.995C80.592 257.201 80.5388 257.384 80.4322 257.544C80.3269 257.703 80.1736 257.83 79.9723 257.922C79.7723 258.014 79.5302 258.06 79.2461 258.06C78.9739 258.06 78.7383 258.017 78.5395 257.931C78.3406 257.844 78.1849 257.722 78.0725 257.563C77.96 257.403 77.8979 257.214 77.8861 256.995H78.4365C78.4471 257.126 78.4897 257.236 78.5643 257.324C78.6401 257.41 78.7366 257.474 78.8537 257.517C78.9721 257.558 79.1017 257.579 79.2426 257.579C79.3977 257.579 79.5356 257.555 79.6563 257.506C79.7782 257.457 79.8741 257.388 79.9439 257.3C80.0138 257.212 80.0487 257.108 80.0487 256.99C80.0487 256.882 80.0179 256.794 79.9564 256.725C79.896 256.656 79.8137 256.6 79.7096 256.555C79.6066 256.51 79.49 256.47 79.3598 256.436L78.9301 256.319C78.6389 256.239 78.4081 256.123 78.2376 255.969C78.0683 255.815 77.9837 255.611 77.9837 255.358C77.9837 255.148 78.0405 254.966 78.1542 254.809C78.2678 254.653 78.4217 254.532 78.6158 254.445C78.8099 254.358 79.0289 254.314 79.2728 254.314C79.519 254.314 79.7362 254.357 79.9244 254.444C80.1138 254.53 80.2629 254.649 80.3718 254.8C80.4808 254.951 80.5376 255.124 80.5423 255.319H80.0132ZM83.231 255.319C83.212 255.151 83.1339 255.021 82.9966 254.928C82.8593 254.835 82.6864 254.788 82.4781 254.788C82.329 254.788 82.1999 254.812 82.091 254.859C81.9821 254.905 81.8975 254.969 81.8371 255.051C81.778 255.131 81.7484 255.223 81.7484 255.326C81.7484 255.412 81.7685 255.487 81.8087 255.55C81.8502 255.612 81.904 255.665 81.9703 255.708C82.0378 255.749 82.11 255.784 82.1869 255.812C82.2639 255.84 82.3378 255.862 82.4089 255.88L82.764 255.972C82.88 256.001 82.9989 256.039 83.1209 256.088C83.2428 256.136 83.3558 256.2 83.46 256.279C83.5642 256.359 83.6482 256.457 83.7121 256.574C83.7772 256.691 83.8098 256.832 83.8098 256.995C83.8098 257.201 83.7565 257.384 83.65 257.544C83.5446 257.703 83.3914 257.83 83.1901 257.922C82.9901 258.014 82.748 258.06 82.4639 258.06C82.1917 258.06 81.9561 258.017 81.7572 257.931C81.5584 257.844 81.4027 257.722 81.2903 257.563C81.1778 257.403 81.1157 257.214 81.1038 256.995H81.6543C81.6649 257.126 81.7075 257.236 81.7821 257.324C81.8579 257.41 81.9543 257.474 82.0715 257.517C82.1899 257.558 82.3195 257.579 82.4604 257.579C82.6154 257.579 82.7533 257.555 82.8741 257.506C82.996 257.457 83.0919 257.388 83.1617 257.3C83.2315 257.212 83.2665 257.108 83.2665 256.99C83.2665 256.882 83.2357 256.794 83.1741 256.725C83.1138 256.656 83.0315 256.6 82.9273 256.555C82.8244 256.51 82.7078 256.47 82.5775 256.436L82.1479 256.319C81.8567 256.239 81.6258 256.123 81.4554 255.969C81.2861 255.815 81.2015 255.611 81.2015 255.358C81.2015 255.148 81.2583 254.966 81.3719 254.809C81.4856 254.653 81.6395 254.532 81.8336 254.445C82.0277 254.358 82.2467 254.314 82.4905 254.314C82.7368 254.314 82.954 254.357 83.1422 254.444C83.3316 254.53 83.4807 254.649 83.5896 254.8C83.6985 254.951 83.7553 255.124 83.7601 255.319H83.231Z" fill="#1E1E20"/>
<path d="M97.8346 192.512C97.8002 192.405 97.7541 192.308 97.6961 192.223C97.6392 192.137 97.5712 192.063 97.4919 192.003C97.4126 191.941 97.322 191.895 97.2202 191.863C97.1196 191.831 97.0089 191.815 96.8882 191.815C96.6834 191.815 96.4987 191.867 96.3342 191.973C96.1697 192.078 96.0395 192.232 95.9436 192.436C95.8489 192.638 95.8015 192.886 95.8015 193.18C95.8015 193.475 95.8495 193.724 95.9454 193.928C96.0412 194.131 96.1726 194.286 96.3395 194.391C96.5064 194.496 96.6964 194.549 96.9095 194.549C97.1072 194.549 97.2794 194.509 97.4262 194.428C97.5741 194.348 97.6884 194.234 97.7689 194.087C97.8505 193.939 97.8914 193.765 97.8914 193.565L98.0334 193.592H96.9929V193.139H98.4223V193.553C98.4223 193.858 98.3572 194.123 98.227 194.348C98.0979 194.572 97.9192 194.745 97.6907 194.867C97.4635 194.989 97.2031 195.05 96.9095 195.05C96.5804 195.05 96.2916 194.974 96.043 194.822C95.7956 194.671 95.6027 194.456 95.4642 194.178C95.3257 193.899 95.2564 193.567 95.2564 193.184C95.2564 192.894 95.2967 192.633 95.3772 192.402C95.4577 192.172 95.5707 191.976 95.7163 191.815C95.8631 191.652 96.0353 191.529 96.233 191.444C96.4319 191.357 96.6491 191.314 96.8846 191.314C97.0811 191.314 97.264 191.343 97.4333 191.401C97.6037 191.459 97.7553 191.541 97.8878 191.648C98.0216 191.754 98.1323 191.881 98.2199 192.028C98.3075 192.173 98.3666 192.335 98.3974 192.512H97.8346ZM99.1187 195V191.364H101.399V191.836H99.6674V192.944H101.28V193.414H99.6674V194.528H101.42V195H99.1187ZM105.066 191.364V195H104.562L102.714 192.333H102.68V195H102.131V191.364H102.639L104.489 194.034H104.523V191.364H105.066ZM105.867 195V191.364H108.147V191.836H106.415V192.944H108.028V193.414H106.415V194.528H108.168V195H105.867ZM108.879 195V191.364H110.176C110.457 191.364 110.691 191.412 110.877 191.509C111.064 191.606 111.204 191.741 111.296 191.912C111.388 192.083 111.435 192.28 111.435 192.504C111.435 192.726 111.388 192.922 111.294 193.091C111.202 193.259 111.062 193.39 110.875 193.484C110.689 193.577 110.456 193.624 110.174 193.624H109.192V193.152H110.124C110.302 193.152 110.446 193.126 110.557 193.075C110.67 193.024 110.752 192.95 110.804 192.853C110.856 192.756 110.882 192.64 110.882 192.504C110.882 192.366 110.856 192.247 110.802 192.147C110.75 192.046 110.668 191.969 110.556 191.916C110.444 191.861 110.298 191.834 110.117 191.834H109.428V195H108.879ZM110.675 193.359L111.573 195H110.948L110.067 193.359H110.675ZM112.409 195H111.827L113.136 191.364H113.769L115.078 195H114.496L113.468 192.024H113.439L112.409 195ZM112.507 193.576H114.396V194.038H112.507V193.576ZM115.603 195V191.364H116.152V194.528H117.799V195H115.603ZM93.0538 201H92.4715L93.7801 197.364H94.4139L95.7225 201H95.1401L94.1121 198.024H94.0837L93.0538 201ZM93.1515 199.576H95.0407V200.038H93.1515V199.576ZM97.4248 201H96.2476V197.364H97.4621C97.8184 197.364 98.1244 197.436 98.3801 197.582C98.6358 197.726 98.8317 197.934 98.9678 198.205C99.1051 198.475 99.1738 198.799 99.1738 199.176C99.1738 199.555 99.1045 199.881 98.966 200.153C98.8287 200.425 98.6299 200.635 98.3695 200.782C98.109 200.927 97.7942 201 97.4248 201ZM96.7963 200.521H97.3947C97.6717 200.521 97.9019 200.469 98.0854 200.364C98.2688 200.259 98.4061 200.107 98.4973 199.908C98.5884 199.708 98.634 199.464 98.634 199.176C98.634 198.891 98.5884 198.649 98.4973 198.45C98.4073 198.251 98.273 198.1 98.0942 197.998C97.9155 197.895 97.6936 197.843 97.4284 197.843H96.7963V200.521ZM99.856 197.364H100.522L101.68 200.19H101.722L102.88 197.364H103.546V201H103.024V198.369H102.99L101.917 200.995H101.484L100.412 198.367H100.378V201H99.856V197.364ZM104.892 197.364V201H104.343V197.364H104.892ZM107.674 198.319C107.655 198.151 107.577 198.021 107.44 197.928C107.303 197.835 107.13 197.788 106.921 197.788C106.772 197.788 106.643 197.812 106.534 197.859C106.426 197.905 106.341 197.969 106.28 198.051C106.221 198.131 106.192 198.223 106.192 198.326C106.192 198.412 106.212 198.487 106.252 198.55C106.294 198.612 106.347 198.665 106.414 198.708C106.481 198.749 106.553 198.784 106.63 198.812C106.707 198.84 106.781 198.862 106.852 198.88L107.207 198.972C107.323 199.001 107.442 199.039 107.564 199.088C107.686 199.136 107.799 199.2 107.903 199.279C108.008 199.359 108.092 199.457 108.155 199.574C108.221 199.691 108.253 199.832 108.253 199.995C108.253 200.201 108.2 200.384 108.093 200.544C107.988 200.703 107.835 200.83 107.633 200.922C107.433 201.014 107.191 201.06 106.907 201.06C106.635 201.06 106.399 201.017 106.201 200.931C106.002 200.844 105.846 200.722 105.734 200.563C105.621 200.403 105.559 200.214 105.547 199.995H106.098C106.108 200.126 106.151 200.236 106.225 200.324C106.301 200.41 106.398 200.474 106.515 200.517C106.633 200.558 106.763 200.579 106.904 200.579C107.059 200.579 107.197 200.555 107.317 200.506C107.439 200.457 107.535 200.388 107.605 200.3C107.675 200.212 107.71 200.108 107.71 199.99C107.71 199.882 107.679 199.794 107.617 199.725C107.557 199.656 107.475 199.6 107.371 199.555C107.268 199.51 107.151 199.47 107.021 199.436L106.591 199.319C106.3 199.239 106.069 199.123 105.899 198.969C105.729 198.815 105.645 198.611 105.645 198.358C105.645 198.148 105.702 197.966 105.815 197.809C105.929 197.653 106.083 197.532 106.277 197.445C106.471 197.358 106.69 197.314 106.934 197.314C107.18 197.314 107.397 197.357 107.586 197.444C107.775 197.53 107.924 197.649 108.033 197.8C108.142 197.951 108.199 198.124 108.203 198.319H107.674ZM110.892 198.319C110.873 198.151 110.795 198.021 110.658 197.928C110.52 197.835 110.348 197.788 110.139 197.788C109.99 197.788 109.861 197.812 109.752 197.859C109.643 197.905 109.559 197.969 109.498 198.051C109.439 198.131 109.409 198.223 109.409 198.326C109.409 198.412 109.43 198.487 109.47 198.55C109.511 198.612 109.565 198.665 109.631 198.708C109.699 198.749 109.771 198.784 109.848 198.812C109.925 198.84 109.999 198.862 110.07 198.88L110.425 198.972C110.541 199.001 110.66 199.039 110.782 199.088C110.904 199.136 111.017 199.2 111.121 199.279C111.225 199.359 111.309 199.457 111.373 199.574C111.438 199.691 111.471 199.832 111.471 199.995C111.471 200.201 111.418 200.384 111.311 200.544C111.206 200.703 111.052 200.83 110.851 200.922C110.651 201.014 110.409 201.06 110.125 201.06C109.853 201.06 109.617 201.017 109.418 200.931C109.22 200.844 109.064 200.722 108.951 200.563C108.839 200.403 108.777 200.214 108.765 199.995H109.315C109.326 200.126 109.369 200.236 109.443 200.324C109.519 200.41 109.615 200.474 109.733 200.517C109.851 200.558 109.981 200.579 110.121 200.579C110.277 200.579 110.414 200.555 110.535 200.506C110.657 200.457 110.753 200.388 110.823 200.3C110.893 200.212 110.928 200.108 110.928 199.99C110.928 199.882 110.897 199.794 110.835 199.725C110.775 199.656 110.693 199.6 110.588 199.555C110.485 199.51 110.369 199.47 110.239 199.436L109.809 199.319C109.518 199.239 109.287 199.123 109.117 198.969C108.947 198.815 108.863 198.611 108.863 198.358C108.863 198.148 108.919 197.966 109.033 197.809C109.147 197.653 109.301 197.532 109.495 197.445C109.689 197.358 109.908 197.314 110.152 197.314C110.398 197.314 110.615 197.357 110.803 197.444C110.993 197.53 111.142 197.649 111.251 197.8C111.36 197.951 111.416 198.124 111.421 198.319H110.892ZM112.675 197.364V201H112.127V197.364H112.675ZM116.633 199.182C116.633 199.57 116.562 199.904 116.42 200.183C116.278 200.461 116.083 200.676 115.836 200.826C115.59 200.975 115.31 201.05 114.996 201.05C114.681 201.05 114.4 200.975 114.152 200.826C113.906 200.676 113.712 200.461 113.57 200.181C113.428 199.902 113.357 199.569 113.357 199.182C113.357 198.794 113.428 198.46 113.57 198.182C113.712 197.903 113.906 197.689 114.152 197.539C114.4 197.389 114.681 197.314 114.996 197.314C115.31 197.314 115.59 197.389 115.836 197.539C116.083 197.689 116.278 197.903 116.42 198.182C116.562 198.46 116.633 198.794 116.633 199.182ZM116.09 199.182C116.09 198.886 116.042 198.637 115.946 198.434C115.851 198.231 115.721 198.077 115.555 197.973C115.391 197.867 115.204 197.815 114.996 197.815C114.786 197.815 114.599 197.867 114.435 197.973C114.27 198.077 114.14 198.231 114.044 198.434C113.949 198.637 113.902 198.886 113.902 199.182C113.902 199.478 113.949 199.728 114.044 199.931C114.14 200.134 114.27 200.287 114.435 200.393C114.599 200.497 114.786 200.549 114.996 200.549C115.204 200.549 115.391 200.497 115.555 200.393C115.721 200.287 115.851 200.134 115.946 199.931C116.042 199.728 116.09 199.478 116.09 199.182ZM120.252 197.364V201H119.748L117.899 198.333H117.866V201H117.317V197.364H117.825L119.675 200.034H119.709V197.364H120.252Z" fill="#1E1E20"/>
<path d="M127.539 252V248.364H128.87C129.128 248.364 129.342 248.406 129.511 248.491C129.681 248.576 129.807 248.69 129.891 248.834C129.975 248.977 130.017 249.139 130.017 249.319C130.017 249.47 129.99 249.598 129.934 249.702C129.878 249.805 129.804 249.888 129.71 249.951C129.618 250.013 129.516 250.058 129.405 250.086V250.121C129.526 250.127 129.643 250.166 129.758 250.239C129.874 250.31 129.97 250.411 130.046 250.542C130.122 250.674 130.159 250.833 130.159 251.022C130.159 251.208 130.116 251.374 130.028 251.522C129.942 251.669 129.808 251.786 129.627 251.872C129.446 251.957 129.214 252 128.932 252H127.539ZM128.087 251.529H128.879C129.142 251.529 129.33 251.479 129.444 251.377C129.557 251.275 129.614 251.148 129.614 250.995C129.614 250.88 129.585 250.775 129.527 250.679C129.469 250.583 129.386 250.507 129.279 250.45C129.172 250.393 129.046 250.365 128.899 250.365H128.087V251.529ZM128.087 249.937H128.822C128.946 249.937 129.056 249.913 129.154 249.866C129.254 249.818 129.333 249.752 129.391 249.667C129.45 249.58 129.479 249.479 129.479 249.362C129.479 249.211 129.427 249.085 129.321 248.983C129.216 248.882 129.054 248.831 128.837 248.831H128.087V249.937ZM131.117 252H130.535L131.844 248.364H132.477L133.786 252H133.204L132.176 249.024H132.147L131.117 252ZM131.215 250.576H133.104V251.038H131.215V250.576ZM137.16 249.546H136.606C136.585 249.428 136.546 249.324 136.488 249.234C136.43 249.144 136.359 249.067 136.274 249.005C136.19 248.942 136.096 248.895 135.992 248.863C135.889 248.831 135.78 248.815 135.664 248.815C135.454 248.815 135.267 248.867 135.101 248.973C134.936 249.078 134.806 249.232 134.71 249.436C134.615 249.64 134.568 249.888 134.568 250.182C134.568 250.478 134.615 250.728 134.71 250.931C134.806 251.135 134.937 251.289 135.103 251.393C135.268 251.497 135.455 251.549 135.662 251.549C135.777 251.549 135.886 251.534 135.989 251.503C136.093 251.471 136.187 251.424 136.271 251.363C136.355 251.301 136.426 251.226 136.484 251.137C136.543 251.047 136.584 250.944 136.606 250.828L137.16 250.83C137.131 251.009 137.073 251.173 136.988 251.324C136.904 251.473 136.796 251.602 136.663 251.711C136.532 251.818 136.382 251.902 136.212 251.961C136.043 252.02 135.858 252.05 135.658 252.05C135.343 252.05 135.063 251.975 134.817 251.826C134.571 251.676 134.376 251.461 134.234 251.181C134.093 250.902 134.023 250.569 134.023 250.182C134.023 249.794 134.094 249.46 134.236 249.182C134.378 248.903 134.572 248.689 134.818 248.539C135.065 248.389 135.345 248.314 135.658 248.314C135.851 248.314 136.031 248.342 136.198 248.397C136.366 248.452 136.517 248.532 136.651 248.639C136.785 248.744 136.895 248.873 136.983 249.026C137.071 249.177 137.13 249.351 137.16 249.546ZM137.817 252V248.364H138.366V250.1H138.41L139.935 248.364H140.626L139.159 250.001L140.631 252H139.971L138.795 250.375L138.366 250.869V252H137.817ZM143.111 249.319C143.092 249.151 143.014 249.021 142.876 248.928C142.739 248.835 142.566 248.788 142.358 248.788C142.209 248.788 142.08 248.812 141.971 248.859C141.862 248.905 141.777 248.969 141.717 249.051C141.658 249.131 141.628 249.223 141.628 249.326C141.628 249.412 141.648 249.487 141.689 249.55C141.73 249.612 141.784 249.665 141.85 249.708C141.918 249.749 141.99 249.784 142.067 249.812C142.144 249.84 142.218 249.862 142.289 249.88L142.644 249.972C142.76 250.001 142.879 250.039 143.001 250.088C143.123 250.136 143.236 250.2 143.34 250.279C143.444 250.359 143.528 250.457 143.592 250.574C143.657 250.691 143.69 250.832 143.69 250.995C143.69 251.201 143.636 251.384 143.53 251.544C143.425 251.703 143.271 251.83 143.07 251.922C142.87 252.014 142.628 252.06 142.344 252.06C142.072 252.06 141.836 252.017 141.637 251.931C141.438 251.844 141.283 251.722 141.17 251.563C141.058 251.403 140.996 251.214 140.984 250.995H141.534C141.545 251.126 141.587 251.236 141.662 251.324C141.738 251.41 141.834 251.474 141.951 251.517C142.07 251.558 142.199 251.579 142.34 251.579C142.495 251.579 142.633 251.555 142.754 251.506C142.876 251.457 142.972 251.388 143.042 251.3C143.111 251.212 143.146 251.108 143.146 250.99C143.146 250.882 143.116 250.794 143.054 250.725C142.994 250.656 142.911 250.6 142.807 250.555C142.704 250.51 142.588 250.47 142.457 250.436L142.028 250.319C141.737 250.239 141.506 250.123 141.335 249.969C141.166 249.815 141.081 249.611 141.081 249.358C141.081 249.148 141.138 248.966 141.252 248.809C141.365 248.653 141.519 248.532 141.713 248.445C141.908 248.358 142.127 248.314 142.37 248.314C142.617 248.314 142.834 248.357 143.022 248.444C143.211 248.53 143.361 248.649 143.47 248.8C143.578 248.951 143.635 249.124 143.64 249.319H143.111ZM144.166 248.836V248.364H146.98V248.836H145.846V252H145.299V248.836H144.166ZM147.48 252H146.897L148.206 248.364H148.84L150.148 252H149.566L148.538 249.024H148.509L147.48 252ZM147.577 250.576H149.466V251.038H147.577V250.576ZM152.963 249.512C152.929 249.405 152.883 249.308 152.825 249.223C152.768 249.137 152.7 249.063 152.621 249.003C152.541 248.941 152.451 248.895 152.349 248.863C152.249 248.831 152.138 248.815 152.017 248.815C151.812 248.815 151.628 248.867 151.463 248.973C151.299 249.078 151.168 249.232 151.072 249.436C150.978 249.638 150.93 249.886 150.93 250.18C150.93 250.475 150.978 250.724 151.074 250.928C151.17 251.131 151.302 251.286 151.468 251.391C151.635 251.496 151.825 251.549 152.038 251.549C152.236 251.549 152.408 251.509 152.555 251.428C152.703 251.348 152.817 251.234 152.898 251.087C152.979 250.939 153.02 250.765 153.02 250.565L153.162 250.592H152.122V250.139H153.551V250.553C153.551 250.858 153.486 251.123 153.356 251.348C153.227 251.572 153.048 251.745 152.82 251.867C152.592 251.989 152.332 252.05 152.038 252.05C151.709 252.05 151.42 251.974 151.172 251.822C150.925 251.671 150.732 251.456 150.593 251.178C150.455 250.899 150.385 250.567 150.385 250.184C150.385 249.894 150.426 249.633 150.506 249.402C150.587 249.172 150.7 248.976 150.845 248.815C150.992 248.652 151.164 248.529 151.362 248.444C151.561 248.357 151.778 248.314 152.014 248.314C152.21 248.314 152.393 248.343 152.562 248.401C152.733 248.459 152.884 248.541 153.017 248.648C153.15 248.754 153.261 248.881 153.349 249.028C153.436 249.173 153.496 249.335 153.526 249.512H152.963ZM154.248 252V248.364H156.527V248.836H154.796V249.944H156.409V250.414H154.796V251.528H156.549V252H154.248ZM132.641 258H132.058L133.367 254.364H134.001L135.309 258H134.727L133.699 255.024H133.671L132.641 258ZM132.738 256.576H134.628V257.038H132.738V256.576ZM138.684 255.546H138.13C138.109 255.428 138.069 255.324 138.011 255.234C137.953 255.144 137.882 255.067 137.798 255.005C137.714 254.942 137.62 254.895 137.516 254.863C137.413 254.831 137.303 254.815 137.187 254.815C136.978 254.815 136.79 254.867 136.624 254.973C136.46 255.078 136.33 255.232 136.234 255.436C136.139 255.64 136.092 255.888 136.092 256.182C136.092 256.478 136.139 256.728 136.234 256.931C136.33 257.135 136.46 257.289 136.626 257.393C136.792 257.497 136.978 257.549 137.185 257.549C137.3 257.549 137.409 257.534 137.512 257.503C137.616 257.471 137.71 257.424 137.794 257.363C137.878 257.301 137.949 257.226 138.007 257.137C138.067 257.047 138.107 256.944 138.13 256.828L138.684 256.83C138.654 257.009 138.597 257.173 138.512 257.324C138.428 257.473 138.319 257.602 138.187 257.711C138.055 257.818 137.905 257.902 137.736 257.961C137.566 258.02 137.382 258.05 137.182 258.05C136.867 258.05 136.586 257.975 136.34 257.826C136.094 257.676 135.9 257.461 135.758 257.181C135.617 256.902 135.546 256.569 135.546 256.182C135.546 255.794 135.617 255.46 135.76 255.182C135.902 254.903 136.096 254.689 136.342 254.539C136.588 254.389 136.868 254.314 137.182 254.314C137.375 254.314 137.555 254.342 137.722 254.397C137.89 254.452 138.041 254.532 138.174 254.639C138.308 254.744 138.419 254.873 138.506 255.026C138.594 255.177 138.653 255.351 138.684 255.546ZM142.361 255.546H141.807C141.785 255.428 141.746 255.324 141.688 255.234C141.63 255.144 141.559 255.067 141.475 255.005C141.391 254.942 141.297 254.895 141.192 254.863C141.089 254.831 140.98 254.815 140.864 254.815C140.654 254.815 140.467 254.867 140.301 254.973C140.136 255.078 140.006 255.232 139.91 255.436C139.816 255.64 139.768 255.888 139.768 256.182C139.768 256.478 139.816 256.728 139.91 256.931C140.006 257.135 140.137 257.289 140.303 257.393C140.468 257.497 140.655 257.549 140.862 257.549C140.977 257.549 141.086 257.534 141.189 257.503C141.293 257.471 141.387 257.424 141.471 257.363C141.555 257.301 141.626 257.226 141.684 257.137C141.743 257.047 141.784 256.944 141.807 256.828L142.361 256.83C142.331 257.009 142.274 257.173 142.188 257.324C142.104 257.473 141.996 257.602 141.864 257.711C141.732 257.818 141.582 257.902 141.413 257.961C141.243 258.02 141.059 258.05 140.859 258.05C140.544 258.05 140.263 257.975 140.017 257.826C139.771 257.676 139.577 257.461 139.435 257.181C139.294 256.902 139.223 256.569 139.223 256.182C139.223 255.794 139.294 255.46 139.436 255.182C139.578 254.903 139.772 254.689 140.019 254.539C140.265 254.389 140.545 254.314 140.859 254.314C141.051 254.314 141.231 254.342 141.398 254.397C141.566 254.452 141.717 254.532 141.851 254.639C141.985 254.744 142.096 254.873 142.183 255.026C142.271 255.177 142.33 255.351 142.361 255.546ZM143.017 258V254.364H145.297V254.836H143.566V255.944H145.178V256.414H143.566V257.528H145.318V258H143.017ZM148.013 255.319C147.994 255.151 147.916 255.021 147.779 254.928C147.641 254.835 147.469 254.788 147.26 254.788C147.111 254.788 146.982 254.812 146.873 254.859C146.764 254.905 146.68 254.969 146.619 255.051C146.56 255.131 146.531 255.223 146.531 255.326C146.531 255.412 146.551 255.487 146.591 255.55C146.632 255.612 146.686 255.665 146.753 255.708C146.82 255.749 146.892 255.784 146.969 255.812C147.046 255.84 147.12 255.862 147.191 255.88L147.546 255.972C147.662 256.001 147.781 256.039 147.903 256.088C148.025 256.136 148.138 256.2 148.242 256.279C148.346 256.359 148.43 256.457 148.494 256.574C148.559 256.691 148.592 256.832 148.592 256.995C148.592 257.201 148.539 257.384 148.432 257.544C148.327 257.703 148.174 257.83 147.972 257.922C147.772 258.014 147.53 258.06 147.246 258.06C146.974 258.06 146.738 258.017 146.539 257.931C146.341 257.844 146.185 257.722 146.072 257.563C145.96 257.403 145.898 257.214 145.886 256.995H146.436C146.447 257.126 146.49 257.236 146.564 257.324C146.64 257.41 146.737 257.474 146.854 257.517C146.972 257.558 147.102 257.579 147.243 257.579C147.398 257.579 147.536 257.555 147.656 257.506C147.778 257.457 147.874 257.388 147.944 257.3C148.014 257.212 148.049 257.108 148.049 256.99C148.049 256.882 148.018 256.794 147.956 256.725C147.896 256.656 147.814 256.6 147.71 256.555C147.607 256.51 147.49 256.47 147.36 256.436L146.93 256.319C146.639 256.239 146.408 256.123 146.238 255.969C146.068 255.815 145.984 255.611 145.984 255.358C145.984 255.148 146.041 254.966 146.154 254.809C146.268 254.653 146.422 254.532 146.616 254.445C146.81 254.358 147.029 254.314 147.273 254.314C147.519 254.314 147.736 254.357 147.924 254.444C148.114 254.53 148.263 254.649 148.372 254.8C148.481 254.951 148.538 255.124 148.542 255.319H148.013ZM151.231 255.319C151.212 255.151 151.134 255.021 150.997 254.928C150.859 254.835 150.686 254.788 150.478 254.788C150.329 254.788 150.2 254.812 150.091 254.859C149.982 254.905 149.898 254.969 149.837 255.051C149.778 255.131 149.748 255.223 149.748 255.326C149.748 255.412 149.768 255.487 149.809 255.55C149.85 255.612 149.904 255.665 149.97 255.708C150.038 255.749 150.11 255.784 150.187 255.812C150.264 255.84 150.338 255.862 150.409 255.88L150.764 255.972C150.88 256.001 150.999 256.039 151.121 256.088C151.243 256.136 151.356 256.2 151.46 256.279C151.564 256.359 151.648 256.457 151.712 256.574C151.777 256.691 151.81 256.832 151.81 256.995C151.81 257.201 151.757 257.384 151.65 257.544C151.545 257.703 151.391 257.83 151.19 257.922C150.99 258.014 150.748 258.06 150.464 258.06C150.192 258.06 149.956 258.017 149.757 257.931C149.558 257.844 149.403 257.722 149.29 257.563C149.178 257.403 149.116 257.214 149.104 256.995H149.654C149.665 257.126 149.708 257.236 149.782 257.324C149.858 257.41 149.954 257.474 150.072 257.517C150.19 257.558 150.319 257.579 150.46 257.579C150.615 257.579 150.753 257.555 150.874 257.506C150.996 257.457 151.092 257.388 151.162 257.3C151.232 257.212 151.266 257.108 151.266 256.99C151.266 256.882 151.236 256.794 151.174 256.725C151.114 256.656 151.032 256.6 150.927 256.555C150.824 256.51 150.708 256.47 150.578 256.436L150.148 256.319C149.857 256.239 149.626 256.123 149.455 255.969C149.286 255.815 149.201 255.611 149.201 255.358C149.201 255.148 149.258 254.966 149.372 254.809C149.486 254.653 149.639 254.532 149.834 254.445C150.028 254.358 150.247 254.314 150.491 254.314C150.737 254.314 150.954 254.357 151.142 254.444C151.332 254.53 151.481 254.649 151.59 254.8C151.699 254.951 151.755 255.124 151.76 255.319H151.231Z" fill="#1E1E20"/>
<path d="M178.499 191.319C178.48 191.151 178.402 191.021 178.265 190.928C178.127 190.835 177.955 190.788 177.746 190.788C177.597 190.788 177.468 190.812 177.359 190.859C177.25 190.905 177.166 190.969 177.105 191.051C177.046 191.131 177.016 191.223 177.016 191.326C177.016 191.412 177.037 191.487 177.077 191.55C177.118 191.612 177.172 191.665 177.238 191.708C177.306 191.749 177.378 191.784 177.455 191.812C177.532 191.84 177.606 191.862 177.677 191.88L178.032 191.972C178.148 192.001 178.267 192.039 178.389 192.088C178.511 192.136 178.624 192.2 178.728 192.279C178.832 192.359 178.916 192.457 178.98 192.574C179.045 192.691 179.078 192.832 179.078 192.995C179.078 193.201 179.025 193.384 178.918 193.544C178.813 193.703 178.659 193.83 178.458 193.922C178.258 194.014 178.016 194.06 177.732 194.06C177.46 194.06 177.224 194.017 177.025 193.931C176.826 193.844 176.671 193.722 176.558 193.563C176.446 193.403 176.384 193.214 176.372 192.995H176.922C176.933 193.126 176.976 193.236 177.05 193.324C177.126 193.41 177.222 193.474 177.34 193.517C177.458 193.558 177.588 193.579 177.728 193.579C177.883 193.579 178.021 193.555 178.142 193.506C178.264 193.457 178.36 193.388 178.43 193.3C178.5 193.212 178.535 193.108 178.535 192.99C178.535 192.882 178.504 192.794 178.442 192.725C178.382 192.656 178.3 192.6 178.195 192.555C178.092 192.51 177.976 192.47 177.846 192.436L177.416 192.319C177.125 192.239 176.894 192.123 176.723 191.969C176.554 191.815 176.47 191.611 176.47 191.358C176.47 191.148 176.526 190.966 176.64 190.809C176.754 190.653 176.908 190.532 177.102 190.445C177.296 190.358 177.515 190.314 177.759 190.314C178.005 190.314 178.222 190.357 178.41 190.444C178.6 190.53 178.749 190.649 178.858 190.8C178.967 190.951 179.023 191.124 179.028 191.319H178.499ZM180.282 190.364V194H179.733V190.364H180.282ZM181.081 194V190.364H181.63V193.528H183.278V194H181.081ZM183.865 190.364L184.877 193.325H184.918L185.93 190.364H186.523L185.214 194H184.58L183.272 190.364H183.865ZM187.048 194V190.364H189.328V190.836H187.597V191.944H189.209V192.414H187.597V193.528H189.349V194H187.048ZM190.061 194V190.364H191.357C191.639 190.364 191.872 190.412 192.058 190.509C192.245 190.606 192.385 190.741 192.477 190.912C192.57 191.083 192.616 191.28 192.616 191.504C192.616 191.726 192.569 191.922 192.475 192.091C192.383 192.259 192.243 192.39 192.056 192.484C191.871 192.577 191.637 192.624 191.355 192.624H190.373V192.152H191.305C191.483 192.152 191.627 192.126 191.739 192.075C191.851 192.024 191.933 191.95 191.985 191.853C192.037 191.756 192.063 191.64 192.063 191.504C192.063 191.366 192.037 191.247 191.984 191.147C191.931 191.046 191.849 190.969 191.737 190.916C191.626 190.861 191.479 190.834 191.298 190.834H190.609V194H190.061ZM191.856 192.359L192.754 194H192.129L191.248 192.359H191.856Z" fill="#1E1E20"/>
<path d="M25.3512 244.512C25.3168 244.405 25.2707 244.308 25.2127 244.223C25.1559 244.137 25.0878 244.063 25.0085 244.003C24.9292 243.941 24.8386 243.895 24.7368 243.863C24.6362 243.831 24.5255 243.815 24.4048 243.815C24.2 243.815 24.0153 243.867 23.8508 243.973C23.6863 244.078 23.5561 244.232 23.4602 244.436C23.3655 244.638 23.3181 244.886 23.3181 245.18C23.3181 245.475 23.3661 245.724 23.462 245.928C23.5578 246.131 23.6892 246.286 23.8561 246.391C24.023 246.496 24.213 246.549 24.4261 246.549C24.6238 246.549 24.796 246.509 24.9428 246.428C25.0907 246.348 25.205 246.234 25.2855 246.087C25.3671 245.939 25.408 245.765 25.408 245.565L25.55 245.592H24.5095V245.139H25.9389V245.553C25.9389 245.858 25.8738 246.123 25.7436 246.348C25.6145 246.572 25.4358 246.745 25.2073 246.867C24.9801 246.989 24.7197 247.05 24.4261 247.05C24.097 247.05 23.8082 246.974 23.5596 246.822C23.3122 246.671 23.1193 246.456 22.9808 246.178C22.8423 245.899 22.773 245.567 22.773 245.184C22.773 244.894 22.8133 244.633 22.8938 244.402C22.9743 244.172 23.0873 243.976 23.2329 243.815C23.3797 243.652 23.5519 243.529 23.7496 243.444C23.9485 243.357 24.1657 243.314 24.4012 243.314C24.5977 243.314 24.7806 243.343 24.9499 243.401C25.1203 243.459 25.2719 243.541 25.4044 243.648C25.5382 243.754 25.6489 243.881 25.7365 244.028C25.8241 244.173 25.8832 244.335 25.914 244.512H25.3512ZM29.7941 245.182C29.7941 245.57 29.7231 245.904 29.581 246.183C29.439 246.461 29.2442 246.676 28.9968 246.826C28.7506 246.975 28.4707 247.05 28.157 247.05C27.8421 247.05 27.561 246.975 27.3136 246.826C27.0674 246.676 26.8733 246.461 26.7312 246.181C26.5892 245.902 26.5182 245.569 26.5182 245.182C26.5182 244.794 26.5892 244.46 26.7312 244.182C26.8733 243.903 27.0674 243.689 27.3136 243.539C27.561 243.389 27.8421 243.314 28.157 243.314C28.4707 243.314 28.7506 243.389 28.9968 243.539C29.2442 243.689 29.439 243.903 29.581 244.182C29.7231 244.46 29.7941 244.794 29.7941 245.182ZM29.2508 245.182C29.2508 244.886 29.2028 244.637 29.1069 244.434C29.0122 244.231 28.882 244.077 28.7163 243.973C28.5518 243.867 28.3653 243.815 28.157 243.815C27.9475 243.815 27.7605 243.867 27.5959 243.973C27.4314 244.077 27.3012 244.231 27.2053 244.434C27.1106 244.637 27.0633 244.886 27.0633 245.182C27.0633 245.478 27.1106 245.728 27.2053 245.931C27.3012 246.134 27.4314 246.287 27.5959 246.393C27.7605 246.497 27.9475 246.549 28.157 246.549C28.3653 246.549 28.5518 246.497 28.7163 246.393C28.882 246.287 29.0122 246.134 29.1069 245.931C29.2028 245.728 29.2508 245.478 29.2508 245.182ZM30.4781 247V243.364H31.0268V246.528H32.6745V247H30.4781ZM34.4776 247H33.3004V243.364H34.5149C34.8712 243.364 35.1772 243.436 35.4328 243.582C35.6885 243.726 35.8844 243.934 36.0206 244.205C36.1579 244.475 36.2265 244.799 36.2265 245.176C36.2265 245.555 36.1573 245.881 36.0188 246.153C35.8815 246.425 35.6826 246.635 35.4222 246.782C35.1618 246.927 34.8469 247 34.4776 247ZM33.849 246.521H34.4474C34.7244 246.521 34.9546 246.469 35.1381 246.364C35.3216 246.259 35.4589 246.107 35.55 245.908C35.6412 245.708 35.6867 245.464 35.6867 245.176C35.6867 244.891 35.6412 244.649 35.55 244.45C35.4601 244.251 35.3257 244.1 35.147 243.998C34.9682 243.895 34.7463 243.843 34.4811 243.843H33.849V246.521Z" fill="white"/>
<path d="M179.351 244.512C179.317 244.405 179.271 244.308 179.213 244.223C179.156 244.137 179.088 244.063 179.008 244.003C178.929 243.941 178.839 243.895 178.737 243.863C178.636 243.831 178.526 243.815 178.405 243.815C178.2 243.815 178.015 243.867 177.851 243.973C177.686 244.078 177.556 244.232 177.46 244.436C177.365 244.638 177.318 244.886 177.318 245.18C177.318 245.475 177.366 245.724 177.462 245.928C177.558 246.131 177.689 246.286 177.856 246.391C178.023 246.496 178.213 246.549 178.426 246.549C178.624 246.549 178.796 246.509 178.943 246.428C179.091 246.348 179.205 246.234 179.285 246.087C179.367 245.939 179.408 245.765 179.408 245.565L179.55 245.592H178.51V245.139H179.939V245.553C179.939 245.858 179.874 246.123 179.744 246.348C179.615 246.572 179.436 246.745 179.207 246.867C178.98 246.989 178.72 247.05 178.426 247.05C178.097 247.05 177.808 246.974 177.56 246.822C177.312 246.671 177.119 246.456 176.981 246.178C176.842 245.899 176.773 245.567 176.773 245.184C176.773 244.894 176.813 244.633 176.894 244.402C176.974 244.172 177.087 243.976 177.233 243.815C177.38 243.652 177.552 243.529 177.75 243.444C177.948 243.357 178.166 243.314 178.401 243.314C178.598 243.314 178.781 243.343 178.95 243.401C179.12 243.459 179.272 243.541 179.404 243.648C179.538 243.754 179.649 243.881 179.736 244.028C179.824 244.173 179.883 244.335 179.914 244.512H179.351ZM183.794 245.182C183.794 245.57 183.723 245.904 183.581 246.183C183.439 246.461 183.244 246.676 182.997 246.826C182.751 246.975 182.471 247.05 182.157 247.05C181.842 247.05 181.561 246.975 181.314 246.826C181.067 246.676 180.873 246.461 180.731 246.181C180.589 245.902 180.518 245.569 180.518 245.182C180.518 244.794 180.589 244.46 180.731 244.182C180.873 243.903 181.067 243.689 181.314 243.539C181.561 243.389 181.842 243.314 182.157 243.314C182.471 243.314 182.751 243.389 182.997 243.539C183.244 243.689 183.439 243.903 183.581 244.182C183.723 244.46 183.794 244.794 183.794 245.182ZM183.251 245.182C183.251 244.886 183.203 244.637 183.107 244.434C183.012 244.231 182.882 244.077 182.716 243.973C182.552 243.867 182.365 243.815 182.157 243.815C181.947 243.815 181.76 243.867 181.596 243.973C181.431 244.077 181.301 244.231 181.205 244.434C181.111 244.637 181.063 244.886 181.063 245.182C181.063 245.478 181.111 245.728 181.205 245.931C181.301 246.134 181.431 246.287 181.596 246.393C181.76 246.497 181.947 246.549 182.157 246.549C182.365 246.549 182.552 246.497 182.716 246.393C182.882 246.287 183.012 246.134 183.107 245.931C183.203 245.728 183.251 245.478 183.251 245.182ZM184.478 247V243.364H185.027V246.528H186.674V247H184.478ZM188.478 247H187.3V243.364H188.515C188.871 243.364 189.177 243.436 189.433 243.582C189.689 243.726 189.884 243.934 190.021 244.205C190.158 244.475 190.227 244.799 190.227 245.176C190.227 245.555 190.157 245.881 190.019 246.153C189.881 246.425 189.683 246.635 189.422 246.782C189.162 246.927 188.847 247 188.478 247ZM187.849 246.521H188.447C188.724 246.521 188.955 246.469 189.138 246.364C189.322 246.259 189.459 246.107 189.55 245.908C189.641 245.708 189.687 245.464 189.687 245.176C189.687 244.891 189.641 244.649 189.55 244.45C189.46 244.251 189.326 244.1 189.147 243.998C188.968 243.895 188.746 243.843 188.481 243.843H187.849V246.521Z" fill="white"/>
<path d="M176.76 119V115.364H178.092C178.35 115.364 178.564 115.406 178.733 115.491C178.902 115.576 179.029 115.69 179.113 115.834C179.197 115.977 179.239 116.139 179.239 116.319C179.239 116.47 179.211 116.598 179.156 116.702C179.1 116.805 179.025 116.888 178.932 116.951C178.84 117.013 178.738 117.058 178.626 117.086V117.121C178.747 117.127 178.865 117.166 178.98 117.239C179.096 117.31 179.192 117.411 179.267 117.542C179.343 117.674 179.381 117.833 179.381 118.022C179.381 118.208 179.337 118.374 179.25 118.522C179.163 118.669 179.03 118.786 178.848 118.872C178.667 118.957 178.436 119 178.154 119H176.76ZM177.309 118.529H178.101C178.364 118.529 178.552 118.479 178.666 118.377C178.779 118.275 178.836 118.148 178.836 117.995C178.836 117.88 178.807 117.775 178.749 117.679C178.691 117.583 178.608 117.507 178.5 117.45C178.394 117.393 178.267 117.365 178.12 117.365H177.309V118.529ZM177.309 116.937H178.044C178.167 116.937 178.278 116.913 178.376 116.866C178.476 116.818 178.554 116.752 178.612 116.667C178.671 116.58 178.701 116.479 178.701 116.362C178.701 116.211 178.648 116.085 178.543 115.983C178.438 115.882 178.276 115.831 178.058 115.831H177.309V116.937ZM180.032 119V115.364H181.328C181.61 115.364 181.843 115.412 182.029 115.509C182.216 115.606 182.356 115.741 182.448 115.912C182.541 116.083 182.587 116.28 182.587 116.504C182.587 116.726 182.54 116.922 182.447 117.091C182.354 117.259 182.215 117.39 182.028 117.484C181.842 117.577 181.608 117.624 181.326 117.624H180.344V117.152H181.277C181.454 117.152 181.598 117.126 181.71 117.075C181.822 117.024 181.904 116.95 181.957 116.853C182.009 116.756 182.035 116.64 182.035 116.504C182.035 116.366 182.008 116.247 181.955 116.147C181.903 116.046 181.82 115.969 181.708 115.916C181.597 115.861 181.451 115.834 181.269 115.834H180.58V119H180.032ZM181.827 117.359L182.725 119H182.1L181.22 117.359H181.827ZM186.413 117.182C186.413 117.57 186.342 117.904 186.2 118.183C186.058 118.461 185.863 118.676 185.616 118.826C185.37 118.975 185.09 119.05 184.776 119.05C184.461 119.05 184.18 118.975 183.933 118.826C183.687 118.676 183.492 118.461 183.35 118.181C183.208 117.902 183.137 117.569 183.137 117.182C183.137 116.794 183.208 116.46 183.35 116.182C183.492 115.903 183.687 115.689 183.933 115.539C184.18 115.389 184.461 115.314 184.776 115.314C185.09 115.314 185.37 115.389 185.616 115.539C185.863 115.689 186.058 115.903 186.2 116.182C186.342 116.46 186.413 116.794 186.413 117.182ZM185.87 117.182C185.87 116.886 185.822 116.637 185.726 116.434C185.631 116.231 185.501 116.077 185.335 115.973C185.171 115.867 184.984 115.815 184.776 115.815C184.567 115.815 184.38 115.867 184.215 115.973C184.051 116.077 183.92 116.231 183.824 116.434C183.73 116.637 183.682 116.886 183.682 117.182C183.682 117.478 183.73 117.728 183.824 117.931C183.92 118.134 184.051 118.287 184.215 118.393C184.38 118.497 184.567 118.549 184.776 118.549C184.984 118.549 185.171 118.497 185.335 118.393C185.501 118.287 185.631 118.134 185.726 117.931C185.822 117.728 185.87 117.478 185.87 117.182ZM190.032 115.364V119H189.528L187.68 116.333H187.646V119H187.097V115.364H187.605L189.455 118.034H189.489V115.364H190.032ZM190.739 119V118.634L192.651 115.836H190.723V115.364H193.322V115.729L191.41 118.528H193.338V119H190.739ZM194.026 119V115.364H196.306V115.836H194.575V116.944H196.187V117.414H194.575V118.528H196.327V119H194.026Z" fill="#1E1E20"/>
<path d="M96.0113 128H94.8341V124.364H96.0486C96.4049 124.364 96.7108 124.436 96.9665 124.582C97.2222 124.726 97.4181 124.934 97.5542 125.205C97.6916 125.475 97.7602 125.799 97.7602 126.176C97.7602 126.555 97.691 126.881 97.5525 127.153C97.4152 127.425 97.2163 127.635 96.9559 127.782C96.6955 127.927 96.3806 128 96.0113 128ZM95.3827 127.521H95.9811C96.2581 127.521 96.4883 127.469 96.6718 127.364C96.8553 127.259 96.9926 127.107 97.0837 126.908C97.1749 126.708 97.2204 126.464 97.2204 126.176C97.2204 125.891 97.1749 125.649 97.0837 125.45C96.9938 125.251 96.8594 125.1 96.6807 124.998C96.5019 124.895 96.28 124.843 96.0148 124.843H95.3827V127.521ZM98.9911 124.364V128H98.4425V124.364H98.9911ZM100.097 128H99.5149L100.824 124.364H101.457L102.766 128H102.184L101.156 125.024H101.127L100.097 128ZM100.195 126.576H102.084V127.038H100.195V126.576ZM103.291 124.364H103.957L105.115 127.19H105.157L106.315 124.364H106.981V128H106.459V125.369H106.425L105.353 127.995H104.919L103.847 125.367H103.813V128H103.291V124.364ZM110.937 126.182C110.937 126.57 110.866 126.904 110.724 127.183C110.582 127.461 110.387 127.676 110.14 127.826C109.894 127.975 109.614 128.05 109.3 128.05C108.985 128.05 108.704 127.975 108.457 127.826C108.21 127.676 108.016 127.461 107.874 127.181C107.732 126.902 107.661 126.569 107.661 126.182C107.661 125.794 107.732 125.46 107.874 125.182C108.016 124.903 108.21 124.689 108.457 124.539C108.704 124.389 108.985 124.314 109.3 124.314C109.614 124.314 109.894 124.389 110.14 124.539C110.387 124.689 110.582 124.903 110.724 125.182C110.866 125.46 110.937 125.794 110.937 126.182ZM110.394 126.182C110.394 125.886 110.346 125.637 110.25 125.434C110.155 125.231 110.025 125.077 109.859 124.973C109.695 124.867 109.508 124.815 109.3 124.815C109.091 124.815 108.904 124.867 108.739 124.973C108.574 125.077 108.444 125.231 108.348 125.434C108.254 125.637 108.206 125.886 108.206 126.182C108.206 126.478 108.254 126.728 108.348 126.931C108.444 127.134 108.574 127.287 108.739 127.393C108.904 127.497 109.091 127.549 109.3 127.549C109.508 127.549 109.695 127.497 109.859 127.393C110.025 127.287 110.155 127.134 110.25 126.931C110.346 126.728 110.394 126.478 110.394 126.182ZM114.556 124.364V128H114.052L112.204 125.333H112.17V128H111.621V124.364H112.129L113.979 127.034H114.013V124.364H114.556ZM116.534 128H115.357V124.364H116.571C116.927 124.364 117.233 124.436 117.489 124.582C117.745 124.726 117.941 124.934 118.077 125.205C118.214 125.475 118.283 125.799 118.283 126.176C118.283 126.555 118.213 126.881 118.075 127.153C117.938 127.425 117.739 127.635 117.478 127.782C117.218 127.927 116.903 128 116.534 128ZM115.905 127.521H116.504C116.781 127.521 117.011 127.469 117.194 127.364C117.378 127.259 117.515 127.107 117.606 126.908C117.697 126.708 117.743 126.464 117.743 126.176C117.743 125.891 117.697 125.649 117.606 125.45C117.516 125.251 117.382 125.1 117.203 124.998C117.024 124.895 116.802 124.843 116.537 124.843H115.905V127.521Z" fill="#1E1E20"/>
<path d="M94.504 92V88.3636H95.8002C96.0831 88.3636 96.3174 88.4151 96.5033 88.5181C96.6891 88.6211 96.8282 88.762 96.9205 88.9407C97.0129 89.1183 97.059 89.3183 97.059 89.5408C97.059 89.7646 97.0123 89.9658 96.9188 90.1445C96.8264 90.3221 96.6868 90.4629 96.4997 90.5671C96.3139 90.6701 96.0801 90.7216 95.7984 90.7216H94.907V90.2564H95.7487C95.9274 90.2564 96.0724 90.2256 96.1837 90.1641C96.295 90.1013 96.3766 90.0161 96.4287 89.9084C96.4808 89.8007 96.5068 89.6781 96.5068 89.5408C96.5068 89.4035 96.4808 89.2816 96.4287 89.1751C96.3766 89.0685 96.2944 88.9851 96.1819 88.9247C96.0706 88.8643 95.9239 88.8342 95.7416 88.8342H95.0526V92H94.504ZM97.7022 92V88.3636H98.2509V91.5277H99.8986V92H97.7022ZM101.017 92H100.435L101.743 88.3636H102.377L103.686 92H103.104L102.075 89.0241H102.047L101.017 92ZM101.115 90.576H103.004V91.0376H101.115V90.576ZM103.602 88.8359V88.3636H106.416V88.8359H105.282V92H104.735V88.8359H103.602ZM107.587 88.3636V92H107.038V88.3636H107.587ZM111.321 88.3636V92H110.817L108.968 89.3331H108.934V92H108.386V88.3636H108.894L110.744 91.0341H110.778V88.3636H111.321ZM114.46 88.3636H115.01V90.7553C115.01 91.0098 114.95 91.2353 114.831 91.4318C114.711 91.6271 114.543 91.781 114.326 91.8935C114.11 92.0047 113.856 92.0604 113.565 92.0604C113.275 92.0604 113.021 92.0047 112.805 91.8935C112.588 91.781 112.42 91.6271 112.301 91.4318C112.181 91.2353 112.121 91.0098 112.121 90.7553V88.3636H112.67V90.7109C112.67 90.8755 112.706 91.0217 112.778 91.1495C112.852 91.2773 112.955 91.378 113.089 91.4513C113.223 91.5236 113.381 91.5597 113.565 91.5597C113.749 91.5597 113.909 91.5236 114.042 91.4513C114.177 91.378 114.28 91.2773 114.351 91.1495C114.424 91.0217 114.46 90.8755 114.46 90.7109V88.3636ZM115.808 88.3636H116.474L117.631 91.1903H117.674L118.831 88.3636H119.497V92H118.975V89.3686H118.942L117.869 91.9947H117.436L116.363 89.3668H116.33V92H115.808V88.3636Z" fill="#1E1E20"/>
</svg>
