<svg width="173" height="35" viewBox="0 0 173 35" fill="none" xmlns="http://www.w3.org/2000/svg">
<rect width="172.062" height="33.6714" transform="translate(0.199219 0.76413)" fill="white"/>
<rect x="0.199219" y="0.76413" width="10.4619" height="13.6005" rx="2.18902" fill="#F26CF9"/>
<path d="M18.5853 3.39461L21.07 10.44H21.1681L23.6528 3.39461H24.7153L21.6421 11.7641H20.5959L17.5228 3.39461H18.5853ZM27.0325 3.39461V11.7641H26.019V3.39461H27.0325ZM29.0646 11.7641V3.39461H31.8925C32.5491 3.39461 33.0858 3.51313 33.5027 3.75016C33.9223 3.98446 34.2328 4.30186 34.4344 4.70235C34.6361 5.10285 34.7369 5.54966 34.7369 6.04278C34.7369 6.53591 34.6361 6.98408 34.4344 7.3873C34.2356 7.79052 33.9277 8.112 33.5109 8.35175C33.094 8.58878 32.56 8.7073 31.9089 8.7073H29.8819V7.80823H31.8762C32.3257 7.80823 32.6867 7.73058 32.9592 7.57529C33.2316 7.41999 33.4291 7.21021 33.5517 6.94594C33.6771 6.67894 33.7397 6.37789 33.7397 6.04278C33.7397 5.70767 33.6771 5.40798 33.5517 5.14371C33.4291 4.87944 33.2302 4.67238 32.9551 4.52254C32.6799 4.36997 32.3148 4.29368 31.8598 4.29368H30.0781V11.7641H29.0646ZM39.6061 11.7641V3.39461H40.6196V10.8651H44.5102V11.7641H39.6061ZM48.4987 11.8949C47.9321 11.8949 47.4349 11.76 47.0071 11.4903C46.5821 11.2206 46.2497 10.8433 46.01 10.3583C45.7729 9.87336 45.6544 9.30667 45.6544 8.65825C45.6544 8.00439 45.7729 7.43361 46.01 6.94594C46.2497 6.45826 46.5821 6.07956 47.0071 5.80984C47.4349 5.54012 47.9321 5.40526 48.4987 5.40526C49.0654 5.40526 49.5613 5.54012 49.9863 5.80984C50.414 6.07956 50.7464 6.45826 50.9834 6.94594C51.2232 7.43361 51.3431 8.00439 51.3431 8.65825C51.3431 9.30667 51.2232 9.87336 50.9834 10.3583C50.7464 10.8433 50.414 11.2206 49.9863 11.4903C49.5613 11.76 49.0654 11.8949 48.4987 11.8949ZM48.4987 11.0285C48.9292 11.0285 49.2834 10.9182 49.5613 10.6975C49.8392 10.4768 50.0449 10.1867 50.1784 9.82704C50.3119 9.46742 50.3786 9.07782 50.3786 8.65825C50.3786 8.23869 50.3119 7.84773 50.1784 7.48538C50.0449 7.12303 49.8392 6.83015 49.5613 6.60674C49.2834 6.38334 48.9292 6.27164 48.4987 6.27164C48.0683 6.27164 47.7141 6.38334 47.4362 6.60674C47.1583 6.83015 46.9526 7.12303 46.8191 7.48538C46.6856 7.84773 46.6189 8.23869 46.6189 8.65825C46.6189 9.07782 46.6856 9.46742 46.8191 9.82704C46.9526 10.1867 47.1583 10.4768 47.4362 10.6975C47.7141 10.9182 48.0683 11.0285 48.4987 11.0285ZM56.7712 9.1977V5.48699H57.7357V11.7641H56.7712V10.7016H56.7058C56.5587 11.0204 56.3298 11.2914 56.0193 11.5148C55.7087 11.7355 55.3163 11.8459 54.8423 11.8459C54.45 11.8459 54.1012 11.76 53.7961 11.5884C53.491 11.414 53.2512 11.1525 53.0768 10.8038C52.9025 10.4523 52.8153 10.0096 52.8153 9.47559V5.48699H53.7798V9.4102C53.7798 9.86791 53.9078 10.233 54.1639 10.5054C54.4227 10.7779 54.7524 10.9141 55.1529 10.9141C55.3926 10.9141 55.6365 10.8528 55.8844 10.7302C56.135 10.6076 56.3448 10.4196 56.5137 10.1662C56.6854 9.91286 56.7712 9.59002 56.7712 9.1977ZM60.4666 7.98804V11.7641H59.5021V5.48699H60.4339V6.4678H60.5156C60.6627 6.14904 60.8862 5.89294 61.1858 5.6995C61.4855 5.50334 61.8724 5.40526 62.3465 5.40526C62.7715 5.40526 63.1434 5.49244 63.4621 5.66681C63.7809 5.83845 64.0288 6.09999 64.2059 6.45145C64.383 6.80018 64.4715 7.24154 64.4715 7.77553V11.7641H63.5071V7.84092C63.5071 7.34779 63.379 6.96365 63.1229 6.68848C62.8668 6.41058 62.5154 6.27164 62.0686 6.27164C61.7607 6.27164 61.4855 6.33838 61.2431 6.47188C61.0033 6.60538 60.814 6.80018 60.675 7.05628C60.5361 7.31238 60.4666 7.62296 60.4666 7.98804ZM68.7676 14.2488C68.3018 14.2488 67.9013 14.1889 67.5662 14.069C67.2311 13.9519 66.9518 13.7966 66.7284 13.6031C66.5077 13.4124 66.332 13.2081 66.2012 12.9901L66.9695 12.4507C67.0567 12.5651 67.167 12.6959 67.3005 12.843C67.434 12.9929 67.6166 13.1223 67.8481 13.2312C68.0824 13.3429 68.3889 13.3988 68.7676 13.3988C69.2744 13.3988 69.6926 13.2762 70.0223 13.031C70.3519 12.7858 70.5167 12.4017 70.5167 11.8786V10.6035H70.435C70.3642 10.7179 70.2634 10.8596 70.1326 11.0285C70.0045 11.1947 69.8193 11.3432 69.5768 11.474C69.3371 11.602 69.0128 11.666 68.6042 11.666C68.0974 11.666 67.6424 11.5462 67.2392 11.3064C66.8387 11.0667 66.5213 10.7179 66.287 10.2602C66.0555 9.80252 65.9397 9.24674 65.9397 8.59287C65.9397 7.9499 66.0527 7.39002 66.2789 6.91324C66.505 6.43374 66.8197 6.06321 67.2229 5.80167C67.6261 5.5374 68.092 5.40526 68.6205 5.40526C69.0292 5.40526 69.3534 5.47337 69.5932 5.60959C69.8356 5.74309 70.0209 5.89566 70.1489 6.0673C70.2797 6.23622 70.3805 6.37516 70.4514 6.48414H70.5494V5.48699H71.4812V11.9439C71.4812 12.4834 71.3586 12.922 71.1134 13.2599C70.8709 13.6004 70.544 13.8497 70.1326 14.0077C69.7239 14.1685 69.2689 14.2488 68.7676 14.2488ZM68.735 10.7997C69.1218 10.7997 69.4488 10.7111 69.7158 10.534C69.9828 10.357 70.1857 10.1022 70.3247 9.76983C70.4636 9.43745 70.5331 9.03968 70.5331 8.57652C70.5331 8.12426 70.465 7.72513 70.3288 7.37912C70.1925 7.03312 69.9909 6.76204 69.7239 6.56588C69.4569 6.36972 69.1273 6.27164 68.735 6.27164C68.3263 6.27164 67.9857 6.37516 67.7133 6.58222C67.4436 6.78928 67.2406 7.06718 67.1044 7.4159C66.9709 7.76463 66.9041 8.15151 66.9041 8.57652C66.9041 9.01243 66.9722 9.39794 67.1085 9.73305C67.2474 10.0654 67.4517 10.327 67.7215 10.5177C67.9939 10.7057 68.3317 10.7997 68.735 10.7997ZM75.8785 11.8949C75.2736 11.8949 74.7519 11.7614 74.3133 11.4944C73.8774 11.2247 73.5409 10.8487 73.3039 10.3665C73.0696 9.88153 72.9524 9.31757 72.9524 8.6746C72.9524 8.03163 73.0696 7.46494 73.3039 6.97454C73.5409 6.48142 73.8705 6.09727 74.2928 5.8221C74.7178 5.54421 75.2137 5.40526 75.7804 5.40526C76.1073 5.40526 76.4302 5.45975 76.7489 5.56873C77.0677 5.6777 77.3578 5.85479 77.6194 6.09999C77.8809 6.34247 78.0894 6.66396 78.2447 7.06445C78.3999 7.46494 78.4776 7.95807 78.4776 8.54383V8.9525H73.639V8.11881H77.4968C77.4968 7.76463 77.426 7.4486 77.2843 7.1707C77.1453 6.89281 76.9464 6.67349 76.6876 6.51275C76.4315 6.35201 76.1291 6.27164 75.7804 6.27164C75.3962 6.27164 75.0639 6.36699 74.7832 6.5577C74.5053 6.74569 74.2915 6.99089 74.1416 7.2933C73.9918 7.59572 73.9169 7.91993 73.9169 8.26593V8.82172C73.9169 9.29578 73.9986 9.69763 74.1621 10.0273C74.3283 10.3542 74.5585 10.6035 74.8527 10.7752C75.1469 10.9441 75.4889 11.0285 75.8785 11.0285C76.1318 11.0285 76.3607 10.9931 76.565 10.9223C76.7721 10.8487 76.9505 10.7397 77.1004 10.5953C77.2502 10.4482 77.366 10.2657 77.4477 10.0477L78.3795 10.3093C78.2814 10.6253 78.1166 10.9032 77.885 11.143C77.6534 11.38 77.3674 11.5652 77.0268 11.6987C76.6863 11.8295 76.3035 11.8949 75.8785 11.8949Z" fill="#1E1E20"/>
<path d="M86.7356 12.7152V3.2044H87.3449V12.7152H86.7356ZM88.4929 6.24712C88.4582 5.92266 88.3121 5.67003 88.0545 5.48922C87.7994 5.30842 87.4675 5.21802 87.0588 5.21802C86.7715 5.21802 86.5251 5.26136 86.3195 5.34805C86.1139 5.43473 85.9566 5.55238 85.8477 5.70099C85.7387 5.84959 85.683 6.01925 85.6805 6.20996C85.6805 6.36848 85.7164 6.50594 85.7882 6.62235C85.8625 6.73875 85.9628 6.83783 86.0891 6.91956C86.2155 6.99882 86.3554 7.06569 86.509 7.12018C86.6625 7.17467 86.8173 7.22049 86.9734 7.25764L87.6867 7.43597C87.974 7.50284 88.2501 7.59324 88.5151 7.70717C88.7826 7.82111 89.0217 7.96476 89.2322 8.13813C89.4452 8.31151 89.6136 8.52079 89.7374 8.76599C89.8613 9.0112 89.9232 9.2985 89.9232 9.62791C89.9232 10.0737 89.8093 10.4663 89.5814 10.8056C89.3535 11.1425 89.0241 11.4062 88.5932 11.5969C88.1647 11.7852 87.6458 11.8793 87.0365 11.8793C86.4446 11.8793 85.9306 11.7877 85.4947 11.6044C85.0613 11.4211 84.722 11.1536 84.4768 10.8019C84.234 10.4502 84.1028 10.0217 84.083 9.51646H85.439C85.4588 9.78147 85.5405 10.0019 85.6842 10.1778C85.8279 10.3536 86.0148 10.4849 86.2452 10.5716C86.478 10.6582 86.7381 10.7016 87.0254 10.7016C87.3251 10.7016 87.5876 10.657 87.813 10.5678C88.0408 10.4762 88.2192 10.3499 88.348 10.1889C88.4768 10.0254 88.5424 9.83472 88.5449 9.61677C88.5424 9.41862 88.4842 9.25516 88.3703 9.12637C88.2563 8.9951 88.0966 8.88612 87.891 8.79943C87.6879 8.71027 87.4501 8.63101 87.1777 8.56166L86.3121 8.33875C85.6854 8.17776 85.1901 7.9338 84.826 7.60686C84.4644 7.27745 84.2836 6.8403 84.2836 6.29541C84.2836 5.84712 84.4049 5.45455 84.6477 5.11771C84.8929 4.78086 85.226 4.51957 85.647 4.33381C86.0681 4.14557 86.5449 4.05145 87.0774 4.05145C87.6173 4.05145 88.0904 4.14557 88.4966 4.33381C88.9052 4.51957 89.226 4.77839 89.4588 5.11028C89.6916 5.43969 89.8117 5.81863 89.8192 6.24712H88.4929ZM94.1724 4.15548V11.7641H92.7941V5.49665H92.7495L90.9699 6.63349V5.37034L92.861 4.15548H94.1724ZM98.7495 11.8682C98.2541 11.8682 97.8108 11.7753 97.4195 11.5895C97.0281 11.4013 96.7173 11.1437 96.487 10.8168C96.2591 10.4898 96.1377 10.1158 96.1229 9.69478H97.4603C97.4851 10.0069 97.6201 10.262 97.8653 10.4601C98.1105 10.6558 98.4052 10.7536 98.7495 10.7536C99.0195 10.7536 99.2597 10.6917 99.4702 10.5678C99.6808 10.444 99.8467 10.2719 99.9681 10.0514C100.089 9.83101 100.149 9.57961 100.146 9.29726C100.149 9.00996 100.088 8.75485 99.9643 8.53194C99.8405 8.30903 99.6709 8.13442 99.4554 8.0081C99.2399 7.87931 98.9922 7.81491 98.7123 7.81491C98.4845 7.81244 98.2603 7.85454 98.0399 7.94123C97.8195 8.02792 97.6448 8.14185 97.5161 8.28302L96.2715 8.07869L96.669 4.15548H101.083V5.30718H97.8096L97.5904 7.32451H97.6349C97.7761 7.15857 97.9755 7.02111 98.2331 6.91213C98.4907 6.80067 98.773 6.74495 99.0801 6.74495C99.5408 6.74495 99.952 6.85392 100.314 7.07188C100.675 7.28736 100.96 7.58457 101.168 7.96352C101.376 8.34247 101.48 8.7759 101.48 9.26383C101.48 9.76661 101.364 10.2149 101.131 10.6087C100.901 11 100.58 11.3084 100.169 11.5338C99.76 11.7567 99.287 11.8682 98.7495 11.8682ZM105.537 11.909C104.925 11.909 104.4 11.7542 103.962 11.4446C103.526 11.1326 103.19 10.683 102.955 10.096C102.722 9.50655 102.606 8.79695 102.606 7.96723C102.608 7.13752 102.726 6.43163 102.959 5.84959C103.194 5.26507 103.53 4.81925 103.966 4.51213C104.404 4.20501 104.928 4.05145 105.537 4.05145C106.146 4.05145 106.67 4.20501 107.109 4.51213C107.547 4.81925 107.883 5.26507 108.115 5.84959C108.351 6.43411 108.468 7.13999 108.468 7.96723C108.468 8.79943 108.351 9.51027 108.115 10.0997C107.883 10.6867 107.547 11.135 107.109 11.4446C106.673 11.7542 106.149 11.909 105.537 11.909ZM105.537 10.7462C106.013 10.7462 106.388 10.5121 106.663 10.044C106.94 9.57342 107.079 8.88116 107.079 7.96723C107.079 7.3629 107.016 6.85516 106.889 6.44402C106.763 6.03287 106.585 5.72328 106.354 5.51523C106.124 5.3047 105.852 5.19944 105.537 5.19944C105.064 5.19944 104.69 5.43473 104.415 5.90532C104.14 6.37343 104.001 7.06074 103.999 7.96723C103.997 8.57404 104.057 9.08426 104.181 9.49788C104.307 9.9115 104.486 10.2236 104.716 10.4341C104.946 10.6422 105.22 10.7462 105.537 10.7462Z" fill="#C256C7"/>
<path d="M18.3431 24.0522C18.3431 23.116 18.4644 22.2553 18.7071 21.4701C18.9524 20.6825 19.3016 19.9581 19.7548 19.2968H20.5276C20.3493 19.542 20.1821 19.8441 20.026 20.2033C19.8725 20.5599 19.7375 20.9525 19.6211 21.381C19.5047 21.807 19.413 22.2479 19.3462 22.7036C19.2818 23.1593 19.2496 23.6088 19.2496 24.0522C19.2496 24.6417 19.3065 25.2398 19.4205 25.8466C19.5344 26.4534 19.688 27.0169 19.8811 27.537C20.0743 28.0571 20.2898 28.4807 20.5276 28.8076H19.7548C19.3016 28.1463 18.9524 27.4231 18.7071 26.6379C18.4644 25.8503 18.3431 24.9884 18.3431 24.0522ZM26.1012 22.15C26.0567 21.7735 25.8759 21.4813 25.5588 21.2732C25.2418 21.0652 24.853 20.9612 24.3923 20.9612C24.0554 20.9612 23.7607 21.0157 23.5081 21.1246C23.2579 21.2336 23.0622 21.3835 22.9211 21.5742C22.7824 21.7649 22.713 21.9816 22.713 22.2243C22.713 22.4274 22.7613 22.602 22.8579 22.7482C22.957 22.8918 23.0833 23.0119 23.2369 23.1085C23.3904 23.2026 23.5514 23.2807 23.7198 23.3426C23.8883 23.402 24.0431 23.4503 24.1842 23.4875L24.957 23.6955C25.1551 23.7475 25.3756 23.8194 25.6183 23.911C25.8635 24.0026 26.0975 24.1277 26.3204 24.2862C26.5458 24.4423 26.7316 24.6429 26.8777 24.8881C27.0238 25.1333 27.0969 25.4342 27.0969 25.7909C27.0969 26.202 26.9892 26.5735 26.7737 26.9054C26.5607 27.2373 26.2486 27.5011 25.8375 27.6968C25.4288 27.8924 24.9322 27.9903 24.3477 27.9903C23.8028 27.9903 23.331 27.9023 22.9322 27.7265C22.5359 27.5506 22.2239 27.3054 21.996 26.9909C21.7706 26.6763 21.6431 26.311 21.6133 25.8949H22.5644C22.5892 26.1822 22.6858 26.42 22.8542 26.6082C23.0251 26.794 23.2406 26.9327 23.5006 27.0243C23.7632 27.1135 24.0455 27.1581 24.3477 27.1581C24.6994 27.1581 25.0152 27.1011 25.2951 26.9872C25.5749 26.8708 25.7966 26.7098 25.9601 26.5042C26.1235 26.2961 26.2053 26.0534 26.2053 25.776C26.2053 25.5234 26.1347 25.3178 25.9935 25.1593C25.8523 25.0008 25.6666 24.872 25.4362 24.7729C25.2059 24.6739 24.957 24.5872 24.6895 24.5129L23.7533 24.2454C23.1588 24.0745 22.6883 23.8305 22.3415 23.5135C21.9948 23.1965 21.8214 22.7816 21.8214 22.2689C21.8214 21.8429 21.9366 21.4714 22.1669 21.1544C22.3997 20.8349 22.7118 20.5872 23.1031 20.4113C23.4969 20.233 23.9365 20.1438 24.422 20.1438C24.9124 20.1438 25.3483 20.2318 25.7297 20.4076C26.1112 20.581 26.4133 20.8188 26.6362 21.1209C26.8616 21.4231 26.9805 21.7661 26.9929 22.15H26.1012ZM30.8854 27.9754C30.3356 27.9754 29.8613 27.854 29.4625 27.6113C29.0663 27.3661 28.7604 27.0243 28.5449 26.5859C28.3319 26.1451 28.2254 25.6324 28.2254 25.0478C28.2254 24.4633 28.3319 23.9482 28.5449 23.5023C28.7604 23.054 29.0601 22.7048 29.444 22.4547C29.8303 22.202 30.2811 22.0757 30.7963 22.0757C31.0935 22.0757 31.387 22.1253 31.6768 22.2243C31.9666 22.3234 32.2303 22.4844 32.4681 22.7073C32.7059 22.9277 32.8954 23.22 33.0365 23.5841C33.1777 23.9482 33.2483 24.3965 33.2483 24.929V25.3005H28.8495V24.5426H32.3567C32.3567 24.2206 32.2923 23.9333 32.1635 23.6807C32.0371 23.428 31.8563 23.2287 31.6211 23.0825C31.3882 22.9364 31.1133 22.8633 30.7963 22.8633C30.4471 22.8633 30.1449 22.95 29.8898 23.1234C29.6372 23.2943 29.4427 23.5172 29.3065 23.7921C29.1703 24.067 29.1022 24.3618 29.1022 24.6763V25.1816C29.1022 25.6125 29.1765 25.9779 29.3251 26.2776C29.4762 26.5748 29.6855 26.8014 29.9529 26.9574C30.2204 27.111 30.5313 27.1878 30.8854 27.1878C31.1158 27.1878 31.3238 27.1556 31.5096 27.0912C31.6978 27.0243 31.8601 26.9252 31.9963 26.794C32.1325 26.6602 32.2378 26.4943 32.3121 26.2961L33.1591 26.5339C33.07 26.8212 32.9201 27.0738 32.7096 27.2918C32.4991 27.5073 32.239 27.6757 31.9294 27.7971C31.6198 27.9159 31.2718 27.9754 30.8854 27.9754ZM36.2613 27.9903C35.8997 27.9903 35.5715 27.9221 35.2768 27.7859C34.982 27.6472 34.748 27.4478 34.5746 27.1878C34.4012 26.9252 34.3145 26.6082 34.3145 26.2367C34.3145 25.9098 34.3789 25.6447 34.5077 25.4417C34.6365 25.2361 34.8087 25.0751 35.0241 24.9587C35.2396 24.8423 35.4774 24.7556 35.7375 24.6986C36 24.6392 36.2638 24.5921 36.5288 24.5574C36.8755 24.5129 37.1566 24.4794 37.3721 24.4571C37.5901 24.4324 37.7486 24.3915 37.8477 24.3345C37.9492 24.2776 38 24.1785 38 24.0373V24.0076C38 23.641 37.8997 23.3562 37.6991 23.1531C37.5009 22.95 37.2 22.8485 36.7963 22.8485C36.3777 22.8485 36.0495 22.9401 35.8118 23.1234C35.574 23.3067 35.4068 23.5023 35.3102 23.7104L34.478 23.4132C34.6266 23.0664 34.8248 22.7965 35.0724 22.6033C35.3226 22.4076 35.595 22.2714 35.8898 22.1946C36.187 22.1153 36.4792 22.0757 36.7665 22.0757C36.9498 22.0757 37.1604 22.098 37.3981 22.1426C37.6384 22.1847 37.87 22.2726 38.0929 22.4064C38.3182 22.5401 38.5052 22.742 38.6539 23.0119C38.8025 23.2819 38.8768 23.6435 38.8768 24.0968V27.8565H38V27.0838H37.9554C37.896 27.2076 37.7969 27.3401 37.6582 27.4813C37.5195 27.6225 37.335 27.7426 37.1046 27.8416C36.8743 27.9407 36.5932 27.9903 36.2613 27.9903ZM36.395 27.2026C36.7418 27.2026 37.034 27.1345 37.2718 26.9983C37.5121 26.8621 37.6929 26.6862 37.8142 26.4708C37.9381 26.2553 38 26.0286 38 25.7909V24.9884C37.9628 25.033 37.8811 25.0739 37.7548 25.111C37.6309 25.1457 37.4873 25.1766 37.3238 25.2039C37.1628 25.2286 37.0056 25.2509 36.852 25.2708C36.7009 25.2881 36.5783 25.303 36.4842 25.3153C36.2563 25.3451 36.0433 25.3934 35.8452 25.4602C35.6495 25.5246 35.491 25.6225 35.3696 25.7537C35.2508 25.8825 35.1913 26.0584 35.1913 26.2813C35.1913 26.5859 35.304 26.8163 35.5294 26.9723C35.7573 27.1259 36.0458 27.2026 36.395 27.2026ZM42.9588 22.15V22.8931H40.0015V22.15H42.9588ZM40.8634 20.7828H41.7402V26.2218C41.7402 26.4695 41.7761 26.6553 41.848 26.7791C41.9223 26.9005 42.0164 26.9822 42.1303 27.0243C42.2467 27.0639 42.3693 27.0838 42.4981 27.0838C42.5947 27.0838 42.674 27.0788 42.7359 27.0689C42.7978 27.0565 42.8473 27.0466 42.8845 27.0392L43.0628 27.8268C43.0034 27.8491 42.9204 27.8714 42.8139 27.8937C42.7074 27.9184 42.5724 27.9308 42.4089 27.9308C42.1613 27.9308 41.9185 27.8776 41.6808 27.7711C41.4455 27.6646 41.2498 27.5023 41.0938 27.2844C40.9402 27.0664 40.8634 26.7915 40.8634 26.4596V20.7828ZM44.2777 27.8565V22.15H45.1545V27.8565H44.2777ZM44.7235 21.1989C44.5526 21.1989 44.4052 21.1407 44.2814 21.0243C44.16 20.9079 44.0993 20.768 44.0993 20.6045C44.0993 20.441 44.16 20.3011 44.2814 20.1847C44.4052 20.0683 44.5526 20.0101 44.7235 20.0101C44.8944 20.0101 45.0405 20.0683 45.1619 20.1847C45.2857 20.3011 45.3476 20.441 45.3476 20.6045C45.3476 20.768 45.2857 20.9079 45.1619 21.0243C45.0405 21.1407 44.8944 21.1989 44.7235 21.1989ZM47.6371 24.4237V27.8565H46.7603V22.15H47.6074V23.0417H47.6817C47.8154 22.7519 48.0185 22.5191 48.291 22.3432C48.5634 22.1649 48.9151 22.0757 49.3461 22.0757C49.7325 22.0757 50.0705 22.155 50.3603 22.3135C50.6501 22.4695 50.8755 22.7073 51.0365 23.0268C51.1975 23.3438 51.278 23.7451 51.278 24.2305V27.8565H50.4012V24.29C50.4012 23.8417 50.2848 23.4924 50.052 23.2423C49.8191 22.9896 49.4996 22.8633 49.0935 22.8633C48.8136 22.8633 48.5634 22.924 48.343 23.0454C48.125 23.1667 47.9529 23.3438 47.8266 23.5766C47.7003 23.8095 47.6371 24.0918 47.6371 24.4237ZM55.1835 30.1153C54.76 30.1153 54.3959 30.0608 54.0913 29.9519C53.7866 29.8454 53.5328 29.7042 53.3297 29.5283C53.129 29.355 52.9693 29.1692 52.8504 28.9711L53.5489 28.4807C53.6281 28.5847 53.7284 28.7036 53.8498 28.8373C53.9711 28.9735 54.1371 29.0912 54.3476 29.1902C54.5606 29.2918 54.8393 29.3426 55.1835 29.3426C55.6442 29.3426 56.0244 29.2311 56.3241 29.0082C56.6238 28.7853 56.7736 28.4361 56.7736 27.9605V26.8014H56.6993C56.6349 26.9054 56.5433 27.0342 56.4244 27.1878C56.308 27.3389 56.1396 27.4738 55.9191 27.5927C55.7012 27.7091 55.4064 27.7673 55.0349 27.7673C54.5742 27.7673 54.1606 27.6584 53.7941 27.4404C53.43 27.2225 53.1414 26.9054 52.9284 26.4893C52.7179 26.0732 52.6126 25.568 52.6126 24.9735C52.6126 24.389 52.7154 23.88 52.921 23.4466C53.1266 23.0107 53.4126 22.6739 53.7792 22.4361C54.1458 22.1958 54.5693 22.0757 55.0498 22.0757C55.4213 22.0757 55.716 22.1376 55.934 22.2615C56.1544 22.3828 56.3228 22.5215 56.4393 22.6776C56.5581 22.8311 56.6498 22.9574 56.7142 23.0565H56.8033V22.15H57.6504V28.02C57.6504 28.5104 57.5389 28.9091 57.316 29.2163C57.0956 29.5259 56.7984 29.7525 56.4244 29.8961C56.0529 30.0423 55.6393 30.1153 55.1835 30.1153ZM55.1538 26.9797C55.5055 26.9797 55.8027 26.8992 56.0454 26.7382C56.2882 26.5773 56.4727 26.3457 56.599 26.0435C56.7253 25.7413 56.7885 25.3797 56.7885 24.9587C56.7885 24.5475 56.7266 24.1847 56.6027 23.8701C56.4789 23.5556 56.2956 23.3091 56.0529 23.1308C55.8102 22.9525 55.5105 22.8633 55.1538 22.8633C54.7823 22.8633 54.4727 22.9574 54.225 23.1457C53.9798 23.3339 53.7953 23.5865 53.6715 23.9036C53.5501 24.2206 53.4894 24.5723 53.4894 24.9587C53.4894 25.355 53.5513 25.7054 53.6752 26.0101C53.8015 26.3122 53.9872 26.55 54.2324 26.7234C54.4801 26.8943 54.7872 26.9797 55.1538 26.9797ZM61.1278 24.6466C61.1278 25.5828 61.0052 26.4447 60.76 27.2324C60.5173 28.0175 60.1693 28.7407 59.716 29.402H58.9433C59.1216 29.1568 59.2875 28.8546 59.4411 28.4955C59.5971 28.1389 59.7334 27.7475 59.8498 27.3215C59.9662 26.893 60.0566 26.4509 60.121 25.9952C60.1879 25.537 60.2213 25.0875 60.2213 24.6466C60.2213 24.0571 60.1643 23.459 60.0504 22.8522C59.9365 22.2454 59.7829 21.6819 59.5897 21.1618C59.3965 20.6417 59.181 20.2181 58.9433 19.8912H59.716C60.1693 20.5525 60.5173 21.277 60.76 22.0646C61.0052 22.8497 61.1278 23.7104 61.1278 24.6466Z" fill="#777779"/>
</svg>
