<svg width="30" height="30" viewBox="0 0 30 30" fill="none" xmlns="http://www.w3.org/2000/svg">
<mask id="mask0_7626_6224" style="mask-type:alpha" maskUnits="userSpaceOnUse" x="0" y="0" width="30" height="30">
<ellipse cx="15" cy="15" rx="15" ry="15" fill="#C4C4C4"/>
</mask>
<g mask="url(#mask0_7626_6224)">
<path d="M22.6924 24.0435L18.5752 22.8325C18.0765 22.6859 17.734 22.2281 17.734 21.7082V19.8506H12.2649V21.7082C12.2649 22.2281 11.9224 22.6858 11.4236 22.8325L7.30644 24.0435C6.30894 24.3369 5.6239 25.2523 5.6239 26.2921V29.2261C5.6239 29.8733 6.14859 30.398 6.79585 30.398H23.203C23.8503 30.398 24.375 29.8733 24.375 29.2261V26.2921C24.375 25.2523 23.69 24.3369 22.6924 24.0435Z" fill="#E3AA75"/>
<path d="M22.6924 24.0436L18.5752 22.8327C18.5056 22.8122 18.4399 22.7844 18.3769 22.7524L14.9992 23.3665L11.622 22.7524C11.559 22.7844 11.4933 22.8122 11.4236 22.8327L7.30644 24.0436C6.3089 24.337 5.6239 25.2525 5.6239 26.2923V29.2263C5.6239 29.8735 6.14859 30.3982 6.79585 30.3982H23.203C23.8503 30.3982 24.375 29.8735 24.375 29.2262V26.2922C24.375 25.2525 23.69 24.337 22.6924 24.0436Z" fill="url(#paint0_linear_7626_6224)"/>
<path d="M10.3791 23.7279L12.3147 25.387C12.5978 25.6296 12.9587 25.7632 13.3312 25.7632C13.8088 25.7632 14.2537 25.5495 14.5518 25.1768L14.9994 24.6172L15.447 25.1767C15.7452 25.5495 16.1901 25.7632 16.6677 25.7632C17.0401 25.7632 17.4011 25.6296 17.6841 25.387L19.6198 23.7279C19.7767 23.5933 19.8848 23.4216 19.9454 23.2357L18.5752 22.8327C18.5056 22.8122 18.4399 22.7844 18.3769 22.7524L14.9992 23.3665L11.622 22.7524C11.559 22.7844 11.4933 22.8122 11.4236 22.8327L10.0535 23.2357C10.1141 23.4216 10.2222 23.5934 10.3791 23.7279Z" fill="url(#paint1_linear_7626_6224)"/>
<path d="M12.2649 20.7223C13.0856 21.1607 14.0163 21.4132 14.9994 21.4132C15.9825 21.4132 16.9133 21.1607 17.734 20.7223V19.8506H12.2649V20.7223Z" fill="#D29B6E"/>
<path d="M20.2732 13.9909H20.0779V9.69373H9.92109V13.9908H9.72577C9.1864 13.9908 8.74915 14.4281 8.74915 14.9674C8.74915 15.5068 9.1864 15.9441 9.72577 15.9441H9.94082C10.1409 18.5656 12.3267 20.6318 14.9995 20.6318C17.6723 20.6318 19.8581 18.5656 20.0582 15.9441H20.2732C20.8126 15.9441 21.2498 15.5068 21.2498 14.9674C21.2498 14.4281 20.8126 13.9909 20.2732 13.9909Z" fill="url(#paint2_linear_7626_6224)"/>
<path d="M18.5153 10.475V9.69373H9.92105V13.9908H9.78148C9.27061 13.9908 8.8051 14.3584 8.75421 14.8667C8.69564 15.4512 9.15315 15.944 9.72578 15.944H9.94083C10.1409 18.5656 12.3267 20.6318 14.9995 20.6318C15.2667 20.6318 15.5273 20.6057 15.7832 20.5659C13.3492 20.1903 11.4837 18.0925 11.4837 15.5533V12.8188C11.4837 11.9558 12.1832 11.2562 13.0462 11.2562H17.734C18.1655 11.2563 18.5153 10.9066 18.5153 10.475Z" fill="url(#paint3_linear_7626_6224)"/>
<path d="M14.9995 23.366L11.8403 21.6109C11.6459 21.5029 11.4007 21.5787 11.3012 21.7777L10.8115 22.7571C10.7473 22.8854 10.7787 23.0408 10.8876 23.1341L12.8232 24.7932C13.1587 25.0808 13.6657 25.0332 13.9417 24.6881L14.9995 23.366Z" fill="url(#paint4_linear_7626_6224)"/>
<path d="M14.9995 23.366L18.1587 21.6109C18.3531 21.5029 18.5983 21.5787 18.6978 21.7777L19.1875 22.7571C19.2517 22.8854 19.2203 23.0408 19.1114 23.1341L17.1758 24.7932C16.8403 25.0808 16.3332 25.0332 16.0572 24.6881L14.9995 23.366Z" fill="url(#paint5_linear_7626_6224)"/>
<path d="M12.6555 15.1962C12.4396 15.1962 12.2649 15.0213 12.2649 14.8056V14.4149C12.2649 14.1992 12.4396 14.0243 12.6555 14.0243C12.8715 14.0243 13.0462 14.1992 13.0462 14.4149V14.8056C13.0462 15.0214 12.8715 15.1962 12.6555 15.1962Z" fill="url(#paint6_radial_7626_6224)"/>
<path d="M17.3433 15.1962C17.1274 15.1962 16.9526 15.0213 16.9526 14.8056V14.4149C16.9526 14.1992 17.1274 14.0243 17.3433 14.0243C17.5592 14.0243 17.7339 14.1992 17.7339 14.4149V14.8056C17.7339 15.0214 17.5592 15.1962 17.3433 15.1962Z" fill="url(#paint7_radial_7626_6224)"/>
<path d="M13.0462 13.6H12.2649C12.049 13.6 11.8743 13.4251 11.8743 13.2094C11.8743 12.9937 12.049 12.8187 12.2649 12.8187H13.0462C13.2621 12.8187 13.4369 12.9937 13.4369 13.2094C13.4369 13.4251 13.2622 13.6 13.0462 13.6Z" fill="url(#paint8_linear_7626_6224)"/>
<path d="M17.734 13.6H16.9527C16.7368 13.6 16.562 13.4251 16.562 13.2094C16.562 12.9937 16.7368 12.8187 16.9527 12.8187H17.734C17.9499 12.8187 18.1246 12.9937 18.1246 13.2094C18.1246 13.4251 17.9499 13.6 17.734 13.6Z" fill="url(#paint9_linear_7626_6224)"/>
<path d="M13.455 16.5627C13.332 16.5627 13.2406 16.6752 13.261 16.7964C13.3879 17.5486 14.1179 18.1253 14.9994 18.1253C15.8809 18.1253 16.6109 17.5486 16.7378 16.7964C16.7583 16.6752 16.6669 16.5627 16.5439 16.5627H13.455Z" fill="white"/>
<path d="M14.9995 26.8819C15.2153 26.8819 15.3902 26.707 15.3902 26.4912C15.3902 26.2755 15.2153 26.1006 14.9995 26.1006C14.7838 26.1006 14.6089 26.2755 14.6089 26.4912C14.6089 26.707 14.7838 26.8819 14.9995 26.8819Z" fill="url(#paint10_radial_7626_6224)"/>
<path d="M14.9995 29.2258C15.2153 29.2258 15.3902 29.0509 15.3902 28.8351C15.3902 28.6194 15.2153 28.4445 14.9995 28.4445C14.7838 28.4445 14.6089 28.6194 14.6089 28.8351C14.6089 29.0509 14.7838 29.2258 14.9995 29.2258Z" fill="url(#paint11_radial_7626_6224)"/>
<path d="M19.3764 8.91199H10.6226C9.42981 8.91199 8.51556 9.97171 8.69045 11.1516L9.1398 14.1834L10.0169 14.0751C10.4083 14.0267 10.7024 13.6941 10.7024 13.2997V11.2558C10.7024 10.8243 11.0522 10.4745 11.4837 10.4745H18.5153C18.9468 10.4745 19.2966 10.8243 19.2966 11.2558V13.2996C19.2966 13.6941 19.5907 14.0267 19.9822 14.075L20.8592 14.1834L21.3086 11.1515C21.4834 9.97167 20.5692 8.91199 19.3764 8.91199Z" fill="url(#paint12_linear_7626_6224)"/>
<path d="M20.2613 6.27528C20.1862 6.04265 19.916 5.92971 19.7025 6.04879C19.2956 6.2759 18.539 6.56867 17.3433 6.56867H13.4368C11.9266 6.56867 10.7023 7.79294 10.7023 9.30322C10.7023 9.95047 11.227 10.4752 11.8742 10.4752H18.1246C19.5926 10.4752 21.0606 8.75132 20.2613 6.27528Z" fill="url(#paint13_linear_7626_6224)"/>
<path d="M9.13972 26.8821V30.3979H7.96777V28.054C7.96777 27.4068 8.49247 26.8821 9.13972 26.8821Z" fill="url(#paint14_linear_7626_6224)"/>
<path d="M20.8591 26.8821V30.3979H22.0311V28.054C22.0311 27.4068 21.5064 26.8821 20.8591 26.8821Z" fill="url(#paint15_linear_7626_6224)"/>
<path d="M9.13977 30.3981H10.7024V23.0447L9.13977 23.5043V30.3981Z" fill="url(#paint16_linear_7626_6224)"/>
<path d="M20.8592 30.3979H19.2966V23.0446L20.8592 23.5042V30.3979Z" fill="url(#paint17_linear_7626_6224)"/>
<path d="M9.13977 30.3979H9.92107V27.6634C9.92107 27.2319 9.57126 26.8821 9.13977 26.8821V30.3979V30.3979Z" fill="#FFD164"/>
<path d="M20.8592 30.3979H20.0779V27.6634C20.0779 27.2319 20.4277 26.8821 20.8592 26.8821V30.3979Z" fill="#FFD164"/>
<path d="M13.0277 7.93035C13.0336 8.48426 13.5242 8.91245 14.0781 8.91245H19.3763C19.6574 8.91245 19.9221 8.97307 20.1617 9.07852C20.5175 8.35617 20.6226 7.39336 20.2607 6.27364C20.1859 6.04215 19.9159 5.92946 19.7036 6.04811C19.2968 6.27531 18.54 6.56861 17.3433 6.56861H13.4368C13.4124 6.58295 13.3847 6.59915 13.3603 6.6135C13.1491 7.00133 13.0276 7.44502 13.0276 7.91777C13.0276 7.92192 13.0277 7.92611 13.0277 7.93035Z" fill="url(#paint18_linear_7626_6224)"/>
</g>
<defs>
<linearGradient id="paint0_linear_7626_6224" x1="14.9994" y1="22.7524" x2="14.9994" y2="30.3982" gradientUnits="userSpaceOnUse">
<stop stop-color="#FF414F"/>
<stop offset="1" stop-color="#FF7456"/>
</linearGradient>
<linearGradient id="paint1_linear_7626_6224" x1="14.9994" y1="22.7524" x2="14.9994" y2="25.7632" gradientUnits="userSpaceOnUse">
<stop stop-color="#B33639"/>
<stop offset="1" stop-color="#E64549"/>
</linearGradient>
<linearGradient id="paint2_linear_7626_6224" x1="9.37501" y1="10.9378" x2="19.375" y2="18.4378" gradientUnits="userSpaceOnUse">
<stop stop-color="#EDB379"/>
<stop offset="1" stop-color="#FFC182"/>
</linearGradient>
<linearGradient id="paint3_linear_7626_6224" x1="9.06248" y1="11.2503" x2="15" y2="14.0628" gradientUnits="userSpaceOnUse">
<stop stop-color="#C58646"/>
<stop offset="1" stop-color="#C68748" stop-opacity="0.06"/>
</linearGradient>
<linearGradient id="paint4_linear_7626_6224" x1="12.889" y1="21.5616" x2="12.889" y2="24.9814" gradientUnits="userSpaceOnUse">
<stop stop-color="#FF414F"/>
<stop offset="1" stop-color="#FF7456"/>
</linearGradient>
<linearGradient id="paint5_linear_7626_6224" x1="17.11" y1="21.5616" x2="17.11" y2="24.9814" gradientUnits="userSpaceOnUse">
<stop stop-color="#FF414F"/>
<stop offset="1" stop-color="#FF7456"/>
</linearGradient>
<radialGradient id="paint6_radial_7626_6224" cx="0" cy="0" r="1" gradientUnits="userSpaceOnUse" gradientTransform="translate(12.5 14.3748) rotate(71.5651) scale(0.988212 0.658807)">
<stop stop-color="#040404"/>
<stop offset="1" stop-color="#767676"/>
</radialGradient>
<radialGradient id="paint7_radial_7626_6224" cx="0" cy="0" r="1" gradientUnits="userSpaceOnUse" gradientTransform="translate(17.1877 14.3748) rotate(71.565) scale(0.988211 0.658807)">
<stop stop-color="#040404"/>
<stop offset="1" stop-color="#767676"/>
</radialGradient>
<linearGradient id="paint8_linear_7626_6224" x1="12.8125" y1="12.8126" x2="12.8125" y2="13.7501" gradientUnits="userSpaceOnUse">
<stop stop-color="#332A2E"/>
<stop offset="1" stop-color="#6E5A64"/>
</linearGradient>
<linearGradient id="paint9_linear_7626_6224" x1="17.5002" y1="12.8126" x2="17.5002" y2="13.7501" gradientUnits="userSpaceOnUse">
<stop stop-color="#332A2E"/>
<stop offset="1" stop-color="#6E5A64"/>
</linearGradient>
<radialGradient id="paint10_radial_7626_6224" cx="0" cy="0" r="1" gradientUnits="userSpaceOnUse" gradientTransform="translate(15.0001 25.9375) rotate(90.0312) scale(0.944414)">
<stop stop-color="#FFC350"/>
<stop offset="1" stop-color="#FFD179" stop-opacity="0.97"/>
</radialGradient>
<radialGradient id="paint11_radial_7626_6224" cx="0" cy="0" r="1" gradientUnits="userSpaceOnUse" gradientTransform="translate(15.0001 28.2813) rotate(90.0312) scale(0.944416 0.944415)">
<stop stop-color="#FFC350"/>
<stop offset="1" stop-color="#FFD179" stop-opacity="0.97"/>
</radialGradient>
<linearGradient id="paint12_linear_7626_6224" x1="14.9995" y1="8.91199" x2="14.9995" y2="14.1834" gradientUnits="userSpaceOnUse">
<stop stop-color="#362A30"/>
<stop offset="1" stop-color="#826574"/>
</linearGradient>
<linearGradient id="paint13_linear_7626_6224" x1="10.9375" y1="9.06284" x2="20.625" y2="6.87533" gradientUnits="userSpaceOnUse">
<stop stop-color="#64505A"/>
<stop offset="1" stop-color="#78606C"/>
</linearGradient>
<linearGradient id="paint14_linear_7626_6224" x1="8.55375" y1="26.8821" x2="8.55375" y2="30.3979" gradientUnits="userSpaceOnUse">
<stop stop-color="#B33639"/>
<stop offset="1" stop-color="#E64549"/>
</linearGradient>
<linearGradient id="paint15_linear_7626_6224" x1="21.4451" y1="26.8821" x2="21.4451" y2="30.3979" gradientUnits="userSpaceOnUse">
<stop stop-color="#B33639"/>
<stop offset="1" stop-color="#E64549"/>
</linearGradient>
<linearGradient id="paint16_linear_7626_6224" x1="9.92107" y1="23.0447" x2="9.92107" y2="30.3981" gradientUnits="userSpaceOnUse">
<stop stop-color="#FFCA62"/>
<stop offset="1" stop-color="#FFCA62" stop-opacity="0.38"/>
</linearGradient>
<linearGradient id="paint17_linear_7626_6224" x1="20.0779" y1="23.0446" x2="20.0779" y2="30.3979" gradientUnits="userSpaceOnUse">
<stop stop-color="#FFCA62"/>
<stop offset="1" stop-color="#FFCA62" stop-opacity="0.38"/>
</linearGradient>
<linearGradient id="paint18_linear_7626_6224" x1="13.1249" y1="8.4378" x2="20.3124" y2="6.2503" gradientUnits="userSpaceOnUse">
<stop stop-color="#7A646F"/>
<stop offset="1" stop-color="#6E5A64"/>
</linearGradient>
</defs>
</svg>
